<svg width="24" height="24" viewBox="0 0 24 24" fill="none" xmlns="http://www.w3.org/2000/svg">
<path d="M8.29652 2.08623C6.97465 2.36748 5.88715 3.20186 5.29652 4.38311C5.0059 4.96904 4.87465 5.46123 4.84184 6.09404C4.7809 7.28467 5.1934 8.40029 6.0184 9.27217C6.86684 10.1628 7.90746 10.6128 9.14027 10.6128C10.2981 10.6128 11.2543 10.2331 12.0934 9.44092C12.6793 8.88779 13.1059 8.17061 13.3168 7.38311C13.4668 6.82998 13.4715 5.80342 13.3215 5.25498C13.0637 4.31279 12.5575 3.53467 11.8168 2.94404C11.4278 2.63467 10.6731 2.25029 10.2184 2.13311C9.80121 2.02529 8.70434 1.99717 8.29652 2.08623ZM9.96527 2.90654C11.0012 3.16904 11.8543 3.86279 12.2996 4.79561C13.2606 6.81123 12.1215 9.20654 9.94652 9.73623C9.53402 9.83467 8.74652 9.83467 8.33402 9.73623C7.1059 9.43623 6.14965 8.51748 5.7559 7.26592C5.61527 6.81123 5.6059 5.91592 5.73246 5.43779C6.06996 4.19561 7.04496 3.22998 8.29652 2.90654C8.77934 2.78467 9.47777 2.78467 9.96527 2.90654Z" fill="url(#paint0_linear_1097_2763)"/>
<path d="M6.24805 11.4423C4.34492 11.6251 2.75117 12.9751 2.17461 14.8829C2.05273 15.2813 2.04336 15.3657 2.02461 16.5001L2.00586 17.6954L2.13242 17.8126L2.25898 17.9298L7.41992 17.9532L12.5762 17.9767L12.6418 18.2579C12.9746 19.7345 13.9309 20.9251 15.2996 21.5626C15.984 21.886 16.359 21.961 17.273 21.9563C18.1637 21.9563 18.473 21.8954 19.1715 21.5907C20.5402 21.0001 21.5902 19.6923 21.8996 18.1923C21.9793 17.822 21.9887 17.6298 21.9699 17.086C21.9184 15.7735 21.459 14.7423 20.5262 13.8517C19.7527 13.111 18.8996 12.7079 17.8121 12.5626C17.0855 12.4595 16.0824 12.6048 15.4027 12.9095L15.1309 13.0313L14.8402 12.7642C13.973 11.9579 13.0543 11.5407 11.9527 11.4423C11.6059 11.4095 11.4746 11.4142 11.3668 11.4657C11.2871 11.5032 10.7527 12.0048 10.1715 12.586L9.1168 13.6407L8.01523 12.5438C7.17148 11.7001 6.88086 11.4423 6.77305 11.4235C6.69805 11.4142 6.45898 11.4188 6.24805 11.4423ZM7.71055 13.3642C8.3293 13.9876 8.90586 14.522 8.99023 14.5595C9.1168 14.6157 9.16367 14.6157 9.29492 14.5595C9.37461 14.522 9.95117 13.9876 10.5699 13.3642C11.6668 12.2626 11.6996 12.2345 11.8824 12.2345C12.1918 12.2345 12.8434 12.4126 13.2512 12.6095C13.5934 12.7782 14.2824 13.2657 14.3668 13.4063C14.3855 13.4392 14.2496 13.6032 14.0293 13.8188C13.1105 14.7095 12.7168 15.5345 12.5387 16.9313L12.5105 17.1563H7.6543H2.80273L2.82148 16.2751C2.84023 15.4126 2.84492 15.3892 3.0043 14.9204C3.36992 13.8704 4.02617 13.1157 4.9918 12.6329C5.43711 12.4126 6.02305 12.2438 6.37461 12.2392L6.58555 12.2345L7.71055 13.3642ZM18.1637 13.4345C19.9496 13.8798 21.1871 15.4407 21.1871 17.2454C21.1871 18.3235 20.7934 19.2751 20.034 20.0345C18.1262 21.9423 14.9434 21.4173 13.734 18.9985C13.448 18.4173 13.3402 17.9438 13.3449 17.2501C13.3496 16.5517 13.448 16.111 13.734 15.5298C14.3059 14.3673 15.4121 13.561 16.7105 13.3595C17.0668 13.3079 17.798 13.3407 18.1637 13.4345Z" fill="url(#paint1_linear_1097_2763)"/>
<path d="M16.7109 14.705C16.4156 14.8128 16.0688 15.0519 15.9188 15.2487C15.6516 15.5956 15.5531 15.9144 15.525 16.4815L15.5016 17.0159H15.3656C15.2109 17.0159 15.0516 17.0909 14.9672 17.1987C14.925 17.255 14.9109 17.6065 14.9062 18.4784C14.9062 19.6222 14.9109 19.6925 15 19.7815C15.0516 19.8331 15.1406 19.8847 15.1969 19.8987C15.2578 19.9128 16.2281 19.9175 17.3578 19.9128L19.4156 19.8987L19.5281 19.7675C19.6406 19.6362 19.6406 19.6362 19.6406 18.469C19.6406 17.3206 19.6406 17.3019 19.5328 17.18C19.4578 17.0862 19.3688 17.0487 19.2094 17.03L18.9938 17.0065L18.975 16.4347C18.9609 15.9237 18.9422 15.8394 18.825 15.605C18.6609 15.2722 18.3375 14.9534 18 14.7847C17.6625 14.6159 17.0672 14.5784 16.7109 14.705ZM17.6625 15.5112C18.0563 15.7128 18.1875 15.9753 18.1875 16.5706V17.0159H17.2453H16.3031L16.3219 16.5519C16.3359 16.1394 16.3547 16.0644 16.4766 15.8628C16.7297 15.4597 17.2547 15.3003 17.6625 15.5112ZM18.8438 18.469V19.1253H17.2734H15.7031V18.469V17.8128H17.2734H18.8438V18.469Z" fill="url(#paint2_linear_1097_2763)"/>
<defs>
<linearGradient id="paint0_linear_1097_2763" x1="4.83594" y1="6.32299" x2="13.4317" y2="6.32299" gradientUnits="userSpaceOnUse">
<stop offset="0.3125" stop-color="#DC9750"/>
<stop offset="1" stop-color="#58003F"/>
</linearGradient>
<linearGradient id="paint1_linear_1097_2763" x1="2.00586" y1="16.6878" x2="21.9781" y2="16.6878" gradientUnits="userSpaceOnUse">
<stop offset="0.3125" stop-color="#DC9750"/>
<stop offset="1" stop-color="#58003F"/>
</linearGradient>
<linearGradient id="paint2_linear_1097_2763" x1="14.9062" y1="17.2722" x2="19.6406" y2="17.2722" gradientUnits="userSpaceOnUse">
<stop offset="0.3125" stop-color="#DC9750"/>
<stop offset="1" stop-color="#58003F"/>
</linearGradient>
</defs>
</svg>
