<svg width="19" height="17" viewBox="0 0 19 17" fill="none" xmlns="http://www.w3.org/2000/svg">
<path d="M1.24805 6.7207V14.721C1.24805 15.1925 1.43535 15.6447 1.76876 15.9781C2.10217 16.3115 2.55437 16.4989 3.02588 16.4989H15.4707C15.9423 16.4989 16.3945 16.3115 16.7279 15.9781C17.0613 15.6447 17.2486 15.1925 17.2486 14.721V6.7207" stroke="url(#paint0_linear_870_103278)"/>
<path d="M11.7642 16.5049V11.1714C11.7642 10.6999 11.5769 10.2477 11.2435 9.91427C10.91 9.58086 10.4579 9.39355 9.98634 9.39355H8.2085C7.73699 9.39355 7.28479 9.58086 6.95138 9.91427C6.61797 10.2477 6.43066 10.6999 6.43066 11.1714V16.5049" stroke="url(#paint1_linear_870_103278)" stroke-miterlimit="16"/>
<path d="M17.9804 6.15711L16.4746 0.886681C16.4427 0.775253 16.3754 0.677238 16.2829 0.607469C16.1904 0.5377 16.0776 0.499974 15.9617 0.5H12.3643L12.7865 5.57042C12.793 5.65191 12.8188 5.73068 12.8618 5.80024C12.9048 5.86979 12.9637 5.92813 13.0336 5.97043C13.3803 6.17755 14.0576 6.55979 14.5866 6.72246C15.4897 7.00069 16.8089 6.90025 17.5609 6.8078C17.634 6.79835 17.7042 6.77306 17.7665 6.73369C17.8288 6.69432 17.8818 6.64183 17.9217 6.57988C17.9617 6.51792 17.9876 6.44799 17.9978 6.37497C18.0079 6.30195 18.002 6.2276 17.9804 6.15711Z" stroke="url(#paint2_linear_870_103278)"/>
<path d="M11.0257 6.72246C11.5306 6.5669 12.1707 6.21222 12.528 6.00066C12.6112 5.95092 12.6786 5.87875 12.7226 5.79244C12.7667 5.70612 12.7855 5.60915 12.7769 5.51264L12.3591 0.5H6.13668L5.71889 5.51264C5.71015 5.6093 5.72888 5.70646 5.77291 5.79294C5.81694 5.87943 5.88449 5.95174 5.96779 6.00154C6.32513 6.21222 6.96515 6.5669 7.47006 6.72246C8.79721 7.13137 9.69858 7.13137 11.0257 6.72246Z" stroke="url(#paint3_linear_870_103278)"/>
<path d="M2.02746 0.886681L0.521634 6.15799C0.500379 6.22838 0.494697 6.30255 0.504982 6.37535C0.515267 6.44815 0.541272 6.51784 0.581193 6.57958C0.621114 6.64133 0.673994 6.69364 0.736162 6.7329C0.79833 6.77215 0.868296 6.79741 0.941204 6.80691C1.69234 6.90025 3.01238 6.9998 3.91553 6.72246C4.44443 6.55979 5.12268 6.17755 5.46847 5.97132C5.53854 5.92893 5.5975 5.87045 5.64047 5.80073C5.68345 5.73102 5.7092 5.65207 5.71559 5.57042L6.13782 0.5H2.54037C2.42447 0.499974 2.31172 0.5377 2.21918 0.607469C2.12663 0.677238 2.05933 0.775253 2.02746 0.886681Z" stroke="url(#paint4_linear_870_103278)"/>
<defs>
<linearGradient id="paint0_linear_870_103278" x1="1.24805" y1="11.6098" x2="17.2486" y2="11.6098" gradientUnits="userSpaceOnUse">
<stop offset="0.3125" stop-color="#DC9750"/>
<stop offset="1" stop-color="#58003F"/>
</linearGradient>
<linearGradient id="paint1_linear_870_103278" x1="6.43066" y1="12.9492" x2="11.7642" y2="12.9492" gradientUnits="userSpaceOnUse">
<stop offset="0.3125" stop-color="#DC9750"/>
<stop offset="1" stop-color="#58003F"/>
</linearGradient>
<linearGradient id="paint2_linear_870_103278" x1="12.3643" y1="3.7021" x2="18.0026" y2="3.7021" gradientUnits="userSpaceOnUse">
<stop offset="0.3125" stop-color="#DC9750"/>
<stop offset="1" stop-color="#58003F"/>
</linearGradient>
<linearGradient id="paint3_linear_870_103278" x1="5.7168" y1="3.76457" x2="12.7789" y2="3.76457" gradientUnits="userSpaceOnUse">
<stop offset="0.3125" stop-color="#DC9750"/>
<stop offset="1" stop-color="#58003F"/>
</linearGradient>
<linearGradient id="paint4_linear_870_103278" x1="0.5" y1="3.70187" x2="6.13782" y2="3.70187" gradientUnits="userSpaceOnUse">
<stop offset="0.3125" stop-color="#DC9750"/>
<stop offset="1" stop-color="#58003F"/>
</linearGradient>
</defs>
</svg>
