<svg width="24" height="24" viewBox="0 0 24 24" fill="none" xmlns="http://www.w3.org/2000/svg">
<path d="M14.9987 19.002C14.9987 20.6588 13.6556 22.002 11.9987 22.002C10.3419 22.002 8.99874 20.6588 8.99874 19.002M13.7952 6.24051C14.2307 5.79059 14.4987 5.17757 14.4987 4.50195C14.4987 3.12124 13.3795 2.00195 11.9987 2.00195C10.618 2.00195 9.49874 3.12124 9.49874 4.50195C9.49874 5.17757 9.76675 5.79059 10.2022 6.24051M17.9987 11.202C17.9987 9.82283 17.3666 8.50019 16.2414 7.525C15.1162 6.54981 13.59 6.00195 11.9987 6.00195C10.4074 6.00195 8.88132 6.54981 7.7561 7.525C6.63089 8.50019 5.99874 9.82283 5.99874 11.202C5.99874 13.4838 5.43288 15.1525 4.72681 16.3466C3.92208 17.7076 3.51972 18.388 3.53561 18.5506C3.55379 18.7366 3.58726 18.7952 3.73808 18.9055C3.86991 19.002 4.53225 19.002 5.85693 19.002H18.1406C19.4652 19.002 20.1276 19.002 20.2594 18.9055C20.4102 18.7952 20.4437 18.7366 20.4619 18.5506C20.4778 18.388 20.0754 17.7076 19.2707 16.3466C18.5646 15.1525 17.9987 13.4838 17.9987 11.202Z" stroke="#757A91" stroke-width="1.4" stroke-linecap="round" stroke-linejoin="round"/>
</svg>
