<svg width="24" height="24" viewBox="0 0 24 24" fill="none" xmlns="http://www.w3.org/2000/svg">
<path fill-rule="evenodd" clip-rule="evenodd" d="M7.25006 6C7.25006 4.74022 7.7505 3.53204 8.6413 2.64124C9.5321 1.75044 10.7403 1.25 12.0001 1.25C13.2598 1.25 14.468 1.75044 15.3588 2.64124C16.2496 3.53204 16.7501 4.74022 16.7501 6C16.7501 7.25978 16.2496 8.46796 15.3588 9.35876C14.468 10.2496 13.2598 10.75 12.0001 10.75C10.7403 10.75 9.5321 10.2496 8.6413 9.35876C7.7505 8.46796 7.25006 7.25978 7.25006 6ZM12.0001 2.75C11.1381 2.75 10.3115 3.09241 9.70196 3.7019C9.09247 4.3114 8.75006 5.13805 8.75006 6C8.75006 6.86195 9.09247 7.6886 9.70196 8.2981C10.3115 8.90759 11.1381 9.25 12.0001 9.25C12.862 9.25 13.6887 8.90759 14.2982 8.2981C14.9076 7.6886 15.2501 6.86195 15.2501 6C15.2501 5.13805 14.9076 4.3114 14.2982 3.7019C13.6887 3.09241 12.862 2.75 12.0001 2.75ZM14.7751 12.513C13.8606 12.3364 12.9314 12.2483 12.0001 12.25C9.68706 12.25 7.55506 12.776 5.97606 13.664C4.42006 14.54 3.25006 15.866 3.25006 17.5V17.602C3.24906 18.764 3.24806 20.222 4.52706 21.264C5.15606 21.776 6.03706 22.141 7.22706 22.381C8.41906 22.623 9.97406 22.75 12.0001 22.75C14.8681 22.75 16.8101 22.496 18.1201 22.009C19.2991 21.569 19.9971 20.927 20.3701 20.117C21.0024 19.7536 21.5424 19.2493 21.9484 18.6434C22.3544 18.0375 22.6153 17.3463 22.7109 16.6233C22.8066 15.9002 22.7344 15.1649 22.4999 14.4743C22.2655 13.7837 21.8751 13.1564 21.3591 12.641C20.9183 12.1995 20.3946 11.8493 19.8182 11.6107C19.2418 11.372 18.6239 11.2494 18.0001 11.25C16.7551 11.25 15.6221 11.73 14.7751 12.513ZM6.71006 14.972C5.37006 15.725 4.75006 16.649 4.75006 17.5C4.75006 18.808 4.79006 19.544 5.47306 20.1C5.84306 20.402 6.46306 20.697 7.52306 20.911C8.58006 21.125 10.0251 21.25 11.9991 21.25C14.5771 21.25 16.2391 21.037 17.3101 20.7C16.2988 20.5525 15.3622 20.0821 14.6401 19.359C14.1989 18.918 13.8491 18.3943 13.6108 17.8179C13.3724 17.2415 13.2502 16.6237 13.2511 16C13.2511 15.232 13.4321 14.507 13.7561 13.865C13.174 13.787 12.5873 13.7486 12.0001 13.75C9.89506 13.75 8.02606 14.232 6.71006 14.972ZM14.7511 16C14.751 15.4216 14.9054 14.8537 15.1981 14.3548C15.4909 13.856 15.9115 13.4443 16.4165 13.1623C16.9215 12.8803 17.4926 12.7382 18.0709 12.7506C18.6492 12.763 19.2136 12.9296 19.7061 13.233L15.2331 17.706C14.9161 17.1935 14.7488 16.6026 14.7501 16M16.2931 18.767L20.7661 14.294C21.1507 14.9168 21.3139 15.6512 21.2292 16.3782C21.1445 17.1053 20.8167 17.7825 20.2991 18.3001C19.7815 18.8177 19.1044 19.1454 18.3773 19.2301C17.6502 19.3149 16.9158 19.1517 16.2931 18.767Z" fill="#58003F"/>
</svg>
