<svg width="20" height="20" viewBox="0 0 20 20" fill="none" xmlns="http://www.w3.org/2000/svg">
<path d="M5.79763 14.1403C3.64703 11.9855 1.99314 9.38691 0.951627 6.52626C0.378627 4.96226 0.903627 3.24426 2.08163 2.06626L2.81063 1.33826C3.00661 1.14188 3.23941 0.986076 3.49568 0.879772C3.75196 0.773468 4.02668 0.71875 4.30413 0.71875C4.58157 0.71875 4.8563 0.773468 5.11257 0.879772C5.36885 0.986076 5.60164 1.14188 5.79763 1.33826L7.50463 3.04526C7.70101 3.24125 7.85681 3.47404 7.96312 3.73032C8.06942 3.98659 8.12414 4.26131 8.12414 4.53876C8.12414 4.81621 8.06942 5.09093 7.96312 5.34721C7.85681 5.60348 7.70101 5.83627 7.50463 6.03226L7.08463 6.45226C6.91651 6.62034 6.78315 6.81989 6.69217 7.03951C6.60118 7.25914 6.55435 7.49454 6.55435 7.73226C6.55435 7.96999 6.60118 8.20538 6.69217 8.42501C6.78315 8.64463 6.91651 8.84418 7.08463 9.01226L10.9246 12.8533C11.0927 13.0214 11.2923 13.1547 11.5119 13.2457C11.7315 13.3367 11.9669 13.3835 12.2046 13.3835C12.4424 13.3835 12.6777 13.3367 12.8974 13.2457C13.117 13.1547 13.3165 13.0214 13.4846 12.8533L13.9056 12.4333C14.1016 12.2369 14.3344 12.0811 14.5907 11.9748C14.847 11.8685 15.1217 11.8138 15.3991 11.8138C15.6766 11.8138 15.9513 11.8685 16.2076 11.9748C16.4638 12.0811 16.6966 12.2369 16.8926 12.4333L18.5996 14.1403C18.796 14.3362 18.9518 14.569 19.0581 14.8253C19.1644 15.0816 19.2191 15.3563 19.2191 15.6338C19.2191 15.9112 19.1644 16.1859 19.0581 16.4422C18.9518 16.6985 18.796 16.9313 18.5996 17.1273L17.8716 17.8553C16.6936 19.0343 14.9756 19.5593 13.4116 18.9863C10.551 17.9447 7.95239 16.2909 5.79763 14.1403Z" stroke="#58003F" stroke-width="1.4375" stroke-linejoin="round"/>
</svg>
