<svg width="24" height="24" viewBox="0 0 24 24" fill="none" xmlns="http://www.w3.org/2000/svg">
<path d="M20.4364 19.9242H3.56641C3.16858 19.9242 2.78705 19.7662 2.50575 19.4849C2.22444 19.2036 2.06641 18.822 2.06641 18.4242V9.28421C2.06641 8.88638 2.22444 8.50485 2.50575 8.22355C2.78705 7.94224 3.16858 7.78421 3.56641 7.78421H6.22441C6.34942 7.78474 6.47009 7.73842 6.56264 7.65438C6.65519 7.57035 6.71291 7.45469 6.72441 7.33021L6.89041 5.53021C6.89984 5.13957 7.06234 4.76827 7.34292 4.49631C7.62349 4.22434 7.99967 4.07347 8.39041 4.07621H15.6204C16.0182 4.07621 16.3998 4.23424 16.6811 4.51555C16.9624 4.79685 17.1204 5.17838 17.1204 5.57621L17.2844 7.33221C17.2959 7.45669 17.3536 7.57235 17.4462 7.65638C17.5387 7.74042 17.6594 7.78674 17.7844 7.78621H20.4424C20.8402 7.78621 21.2218 7.94424 21.5031 8.22555C21.7844 8.50685 21.9424 8.88838 21.9424 9.28621V18.4262C21.9421 18.6235 21.903 18.8189 21.8271 19.001C21.7512 19.1832 21.6401 19.3485 21.5002 19.4877C21.3603 19.6269 21.1944 19.737 21.0118 19.8119C20.8293 19.8868 20.6337 19.925 20.4364 19.9242ZM3.56641 8.78421C3.4338 8.78421 3.30662 8.83689 3.21285 8.93066C3.11908 9.02442 3.06641 9.1516 3.06641 9.28421V18.4242C3.06641 18.5568 3.11908 18.684 3.21285 18.7778C3.30662 18.8715 3.4338 18.9242 3.56641 18.9242H20.4364C20.569 18.9242 20.6962 18.8715 20.79 18.7778C20.8837 18.684 20.9364 18.5568 20.9364 18.4242V9.28421C20.9364 9.1516 20.8837 9.02442 20.79 8.93066C20.6962 8.83689 20.569 8.78421 20.4364 8.78421H17.7784C17.4044 8.7843 17.0439 8.64467 16.7675 8.39271C16.4911 8.14074 16.3188 7.79462 16.2844 7.42221L16.1184 5.62221C16.1226 5.55326 16.1129 5.48418 16.0898 5.41907C16.0667 5.35395 16.0308 5.29415 15.9842 5.24321C15.9375 5.19227 15.8811 5.15123 15.8183 5.12254C15.7554 5.09385 15.6875 5.07809 15.6184 5.07621H8.38641C8.2538 5.07621 8.12662 5.12889 8.03285 5.22266C7.93908 5.31642 7.88641 5.4436 7.88641 5.57621L7.71841 7.42221C7.684 7.79462 7.51171 8.14074 7.23533 8.39271C6.95894 8.64467 6.5984 8.7843 6.22441 8.78421H3.56641Z" fill="#58003F" fill-opacity="0.6"/>
<path d="M12 17.2813C11.2089 17.2813 10.4355 17.0467 9.77772 16.6071C9.11993 16.1676 8.60723 15.5429 8.30448 14.812C8.00173 14.0811 7.92252 13.2768 8.07686 12.5009C8.2312 11.725 8.61216 11.0122 9.17157 10.4528C9.73098 9.89341 10.4437 9.51245 11.2196 9.35811C11.9956 9.20377 12.7998 9.28298 13.5307 9.58573C14.2616 9.88848 14.8864 10.4012 15.3259 11.059C15.7654 11.7168 16 12.4901 16 13.2813C16 14.3421 15.5786 15.3595 14.8284 16.1097C14.0783 16.8598 13.0609 17.2813 12 17.2813ZM12 10.2813C11.4067 10.2813 10.8266 10.4572 10.3333 10.7868C9.83994 11.1165 9.45543 11.585 9.22836 12.1332C9.0013 12.6814 8.94189 13.2846 9.05765 13.8665C9.1734 14.4485 9.45912 14.983 9.87868 15.4026C10.2982 15.8221 10.8328 16.1079 11.4147 16.2236C11.9967 16.3394 12.5999 16.28 13.1481 16.0529C13.6962 15.8258 14.1648 15.4413 14.4944 14.948C14.8241 14.4546 15 13.8746 15 13.2813C15 12.4856 14.6839 11.7225 14.1213 11.1599C13.5587 10.5973 12.7957 10.2813 12 10.2813Z" fill="#58003F" fill-opacity="0.6"/>
</svg>
