<svg width="35" height="35" viewBox="0 0 35 35" fill="none" xmlns="http://www.w3.org/2000/svg">
<g clip-path="url(#clip0_870_32745)">
<path d="M17.8087 1.05273C16.9337 1.25097 16.0176 1.82519 15.5391 2.46093L15.2862 2.80273H14.4249C12.9962 2.80273 12.1485 3.083 11.4444 3.7871C10.3848 4.85351 10.3506 6.27538 11.3555 7.32812L11.7588 7.75878V11.4707C11.7588 15.5928 11.7794 15.8047 12.2032 16.7207C12.545 17.4658 12.9483 18.0195 13.6934 18.751L14.3702 19.4277L14.1104 19.6943C13.7891 20.0293 13.4678 20.125 12.3399 20.2275C9.8858 20.4463 8.18365 21.4033 7.37701 23.0029L7.17194 23.4131L4.21881 23.4473C1.55963 23.4814 1.23834 23.4951 1.01959 23.6045C0.45221 23.8848 0.0762331 24.4453 0.0215456 25.0947C-0.0399778 25.751 0.38385 26.4619 1.01959 26.7764C1.211 26.8721 1.47076 26.9062 2.17487 26.9199L3.07721 26.9473L3.29596 27.3643C3.64459 28.0684 4.15045 28.7383 4.78619 29.3535L5.39459 29.9414H4.99811C4.47174 29.9414 3.93854 30.208 3.65826 30.6113C3.46002 30.9053 3.45319 30.9326 3.43268 31.8691C3.41217 32.5322 3.43268 32.8945 3.4942 33.0449C3.64459 33.4141 3.89752 33.6875 4.25983 33.8721C4.60846 34.043 4.62213 34.043 6.36529 34.043C8.31354 34.043 8.36139 34.0293 8.45026 33.585C8.48444 33.4072 8.45709 33.332 8.32037 33.1953L8.14264 33.0176H6.47467C4.34869 33.0176 4.4444 33.0654 4.4444 31.999C4.4444 31.3223 4.45807 31.2539 4.60162 31.1172L4.75885 30.9668H10.3028C16.8038 30.9668 16.1544 30.8711 16.1954 31.8145C16.2227 32.498 16.1817 32.6963 15.9971 32.8809C15.8672 33.0107 15.7579 33.0176 12.9893 33.0176H10.1114L9.94733 33.1885C9.72858 33.4004 9.72858 33.6602 9.94733 33.8721L10.1114 34.043H12.9962C16.0997 34.043 16.2227 34.0293 16.6465 33.6875C17.0225 33.373 17.1797 33.0107 17.2139 32.3477L17.2481 31.7871L23.2296 31.8008L29.211 31.8213L29.293 32.1494C29.4092 32.6211 29.71 33.0039 30.1475 33.25C30.5167 33.4619 30.5303 33.4619 31.4805 33.4551C32.3077 33.4551 32.4922 33.4346 32.834 33.2979C33.586 33.0039 34.167 32.3955 34.4337 31.623C34.5362 31.3291 34.5567 31.042 34.5567 29.7363C34.5567 28.2939 34.543 28.1709 34.3926 27.8018C34.1807 27.2686 33.6065 26.6602 33.0733 26.3867C32.8409 26.2773 32.6016 26.1816 32.5264 26.1816C32.4102 26.1816 32.4034 26.0312 32.4034 22.5312V18.8877L32.9708 18.8535C33.8389 18.8057 34.42 18.4434 34.8028 17.7051L34.9669 17.3975V14.6221V11.8535L34.7618 11.4502C34.5225 10.9785 34.0577 10.5889 33.5723 10.4453C33.3536 10.3838 32.8204 10.3564 31.8223 10.3564C30.4688 10.3564 30.3663 10.3633 30.045 10.5137C29.6143 10.7119 29.2315 11.0811 28.9991 11.5186L28.8145 11.8603V14.5947V17.3291L29.0059 17.7187C29.3614 18.4434 29.9424 18.8057 30.8174 18.8535L31.378 18.8877V22.4971V26.1133H30.9473H30.5235L30.2022 24.8076C29.8536 23.3721 29.6075 22.7705 29.1085 22.1689C28.1378 21 26.6407 20.3848 24.2481 20.1728C23.4483 20.1045 23.0176 19.9268 22.7852 19.5781C22.6758 19.4072 22.6758 19.4072 23.1612 18.9629C24.0704 18.1357 24.8087 16.9805 25.1299 15.8936C25.2393 15.5244 25.253 15.0664 25.2735 11.6143L25.3008 7.74511L25.6768 7.35546C26.2305 6.78808 26.4219 6.33691 26.4219 5.60546C26.4219 5.08593 26.3946 4.96972 26.2032 4.57324C25.7862 3.73242 24.959 3.10351 24.0157 2.90527C23.7491 2.85058 23.168 2.80273 22.6622 2.80273H21.7735L21.6163 2.52246C21.254 1.89355 20.6661 1.42187 19.921 1.15527C19.4014 0.970695 18.376 0.922844 17.8087 1.05273ZM19.7022 2.18749C20.2081 2.37206 20.6046 2.76855 20.8506 3.31542C20.9942 3.63671 21.0899 3.7666 21.2061 3.7871C21.295 3.80761 21.9171 3.83496 22.5938 3.84179C23.7764 3.8623 23.8379 3.86913 24.2344 4.05371C24.9864 4.40917 25.3897 4.94238 25.3897 5.60546C25.3897 6.1455 25.2188 6.42578 24.5215 7.01367L24.2686 7.22558V8.88671V10.541L24.1182 10.5068C23.3184 10.3086 20.7618 9.98046 20.0167 9.98046C19.6817 9.98046 19.6133 10.001 19.4903 10.1582C19.3126 10.3838 19.3057 10.6025 19.4698 10.8008C19.586 10.9375 19.7022 10.9648 20.6866 11.0537C21.2813 11.1084 21.8077 11.1631 21.8487 11.1768C21.8897 11.1904 21.9444 11.375 21.9649 11.5937C22.0606 12.4961 22.7442 13.3848 23.7217 13.8564L24.2686 14.1162V14.4785C24.2686 15.7021 23.7012 16.96 22.6827 17.9785C21.1241 19.5371 18.8682 20.3232 17.3985 19.8311C16.3253 19.4687 15.17 18.7715 14.3838 18.0059C13.2969 16.9463 12.7911 15.8594 12.7842 14.5879V14.0957L13.2969 13.8564C14.2471 13.4053 14.8624 12.6396 15.0606 11.6553L15.1563 11.1768L15.5596 11.1289C15.7784 11.1016 16.3458 11.0537 16.8106 11.0195C17.5694 10.9648 17.6719 10.9443 17.7881 10.8008C17.9522 10.6025 17.9454 10.2881 17.7745 10.1172C17.6583 10.001 17.5489 9.98046 17.1046 9.98046C16.2842 9.98046 13.7891 10.2949 12.9415 10.5068L12.7842 10.541V8.89355C12.7842 7.02734 12.8594 7.29394 12.1827 6.68554C11.8135 6.35058 11.67 6.06347 11.67 5.63964C11.67 5.0039 12.128 4.40917 12.8868 4.05371C13.2764 3.87597 13.3516 3.8623 14.459 3.84179C15.1016 3.83496 15.6895 3.80761 15.7715 3.79394C15.8604 3.77343 15.9971 3.62988 16.0997 3.45898C16.3184 3.083 16.9131 2.52246 17.2823 2.33105C18.0001 1.96191 18.9639 1.90722 19.7022 2.18749ZM14.0147 11.5869C13.9258 11.9697 13.6182 12.4277 13.2764 12.6807C12.7911 13.0361 12.7774 13.0225 12.7979 12.25L12.8184 11.5869L13.3653 11.4707C14.1172 11.3203 14.0762 11.3135 14.0147 11.5869ZM23.8926 11.5117L24.2344 11.5869L24.2549 12.291L24.2754 12.9951L24.0635 12.8857C23.544 12.6191 23.1202 12.0859 23.004 11.5664L22.9561 11.3408L23.2569 11.3887C23.4141 11.416 23.7081 11.4707 23.8926 11.5117ZM33.6065 11.6211C33.9688 11.9561 33.9756 12.0381 33.9756 14.6357C33.9756 17.2881 33.9688 17.3496 33.5381 17.6572C33.3399 17.8008 33.2442 17.8076 32.0069 17.8281C30.7901 17.8486 30.6602 17.8418 30.4004 17.7119C29.8331 17.4385 29.8399 17.4658 29.8399 14.5947C29.8399 11.7783 29.8331 11.8398 30.3047 11.5459C30.5098 11.4228 30.626 11.416 31.9727 11.4297C33.4083 11.4502 33.4219 11.4502 33.6065 11.6211ZM17.0225 20.7949C18.1573 21.1709 19.3194 21.082 20.7139 20.5078C20.9942 20.3916 21.3428 20.2275 21.5001 20.1455L21.7803 19.9883L22.0674 20.3096L22.3546 20.6309L22.0674 20.8838C20.6729 22.1484 17.0362 22.2783 15.2657 21.1299C14.6436 20.7266 14.6368 20.7061 14.9649 20.3164L15.252 19.9814L15.8126 20.2754C16.1202 20.4395 16.6671 20.6719 17.0225 20.7949ZM13.4678 22.3193V23.4541L12.8047 23.4336L12.1348 23.4131V22.3535V21.2939L12.3741 21.2529C12.504 21.2256 12.8047 21.2051 13.044 21.1982L13.4678 21.1914V22.3193ZM24.5967 21.2393L24.9522 21.2803L24.9385 22.8936L24.918 24.5068H24.2686H23.6192L23.5987 22.8457L23.585 21.1914H23.9063C24.0909 21.1914 24.3985 21.2119 24.5967 21.2393ZM11.0753 22.4561V23.4473H9.70807C8.95611 23.4473 8.34088 23.4199 8.34088 23.3926C8.34088 23.3037 8.69635 22.8252 8.96295 22.5654C9.31158 22.2168 9.87213 21.8818 10.4532 21.6631C10.7403 21.5605 10.9932 21.4717 11.0274 21.4648C11.0547 21.4648 11.0753 21.9092 11.0753 22.4561ZM27.0713 21.8887C27.4952 22.0937 27.7686 22.2852 28.0831 22.5996C28.671 23.1875 28.8897 23.7002 29.2862 25.375L29.6006 26.7217L29.4297 27.043C29.2588 27.3574 29.2588 27.3848 29.2588 29.0596V30.7617H28.5137H27.7618L27.6934 30.3994C27.6524 30.208 27.4542 29.0527 27.2422 27.8359C26.8116 25.3203 26.7296 25.0879 26.1485 24.7051L25.9776 24.5957V23.0371V21.4785L26.2374 21.5469C26.3741 21.5811 26.7501 21.7383 27.0713 21.8887ZM15.71 22.4902C16.5713 22.8047 17.337 22.9277 18.4581 22.9277C19.0049 22.9277 19.6817 22.8936 19.962 22.8389C20.7208 22.7021 21.6504 22.3877 22.1085 22.1143C22.3272 21.9844 22.5186 21.875 22.5323 21.875C22.546 21.875 22.5596 22.4766 22.5596 23.208V24.541H21.3292H20.1055L20.003 24.3496C19.8799 24.1103 19.5108 23.7686 19.21 23.6113C18.9913 23.4951 18.7588 23.4814 16.7354 23.4609L14.4932 23.4404V22.6611V21.875L14.8282 22.0869C15.0196 22.1963 15.4092 22.3809 15.71 22.4902ZM2.57135 24.6436C2.53033 24.8076 2.6192 25.5732 2.7149 25.8057C2.74908 25.9082 2.68756 25.9219 2.09967 25.9014C1.48444 25.874 1.42975 25.8603 1.25201 25.6826C0.910217 25.3408 1.02643 24.7187 1.47076 24.5342C1.54596 24.5068 1.83307 24.4795 2.11334 24.4795L2.61237 24.4727L2.57135 24.6436ZM16.5987 24.7803C16.6465 25.3408 16.2911 26.4209 15.7921 27.2549C15.1563 28.2939 14.3838 29.0527 13.3516 29.6406L12.8184 29.9414H10.1592H7.50006L7.01471 29.6953C6.39947 29.3809 6.06451 29.1484 5.57916 28.7041C4.79987 27.9932 4.13678 26.9336 3.80182 25.8535C3.63776 25.3203 3.5694 24.623 3.67194 24.5205C3.69244 24.4932 6.61139 24.4795 10.1456 24.4863L16.5782 24.5068L16.5987 24.7803ZM18.8409 24.6025C19.1417 24.7871 19.251 25.1289 19.1143 25.4502C18.9708 25.7988 18.711 25.9082 18.0411 25.9082C17.4942 25.9082 17.4874 25.9082 17.5352 25.751C17.5626 25.6689 17.5967 25.3477 17.6172 25.0332L17.6583 24.4727H18.1436C18.4991 24.4727 18.6837 24.5068 18.8409 24.6025ZM25.752 25.7441C25.8272 25.8603 26.0118 26.7695 26.2852 28.3418L26.7022 30.7617H21.8965H17.0909L16.7696 30.4268C16.3868 30.0303 16.1202 29.9414 15.3546 29.9414H14.8213L15.3067 29.4902C15.9014 28.9434 16.4962 28.1641 16.8516 27.4668L17.1182 26.9473L18.0479 26.9199C18.8272 26.8994 19.0118 26.8721 19.251 26.749C19.5997 26.5645 19.9893 26.1338 20.0987 25.8125L20.1807 25.5664H22.9083H25.6358L25.752 25.7441ZM32.5743 27.3027C33.0186 27.5078 33.3331 27.8701 33.4698 28.3418C33.5587 28.6494 33.5723 28.9639 33.5518 29.9619C33.5245 31.3223 33.4766 31.5137 33.046 31.9512C32.6495 32.3408 32.376 32.4297 31.4942 32.4297L30.6807 32.4365L30.4825 32.2109L30.2842 31.9922V29.7842C30.2842 27.0088 30.2159 27.1523 31.5147 27.1455C32.1299 27.1387 32.2803 27.166 32.5743 27.3027Z" fill="#58003F"/>
<path d="M18.1143 4.43574L17.9023 4.64765L17.9229 6.02168C17.9434 7.36836 17.9434 7.3957 18.1074 7.52558C18.3125 7.69648 18.627 7.68965 18.7979 7.51875C18.9277 7.38886 18.9346 7.29316 18.9346 5.96015C18.9346 4.39472 18.9277 4.37422 18.5107 4.27168C18.3604 4.23066 18.2852 4.26484 18.1143 4.43574Z" fill="#58003F"/>
<path d="M14.5967 5.50325C14.4258 5.66731 14.4258 5.67415 14.4258 7.02766C14.4258 8.54524 14.4531 8.64094 14.8838 8.72297C15.0615 8.75715 15.1367 8.72981 15.2734 8.59309L15.4512 8.41536V7.04133C15.4512 5.67415 15.4512 5.66731 15.2803 5.50325C15.1914 5.40755 15.0342 5.33235 14.9385 5.33235C14.8428 5.33235 14.6855 5.40755 14.5967 5.50325Z" fill="#58003F"/>
<path d="M21.6426 5.4762L21.4648 5.61291V7.04163V8.47034L21.6426 8.60706C21.8477 8.77112 21.9365 8.78479 22.1758 8.67542C22.4629 8.5387 22.4971 8.32678 22.4766 6.91174C22.4561 5.61975 22.4561 5.59241 22.292 5.46252C22.0869 5.29162 21.8682 5.29846 21.6426 5.4762Z" fill="#58003F"/>
<path d="M15.6423 12.776C15.362 12.8649 14.9929 13.1109 14.945 13.234C14.8493 13.4801 14.904 13.733 15.0818 13.8697C15.3073 14.0475 15.3894 14.0475 15.7243 13.8766C15.8747 13.8014 16.1277 13.7399 16.3054 13.7399C16.4831 13.7399 16.7361 13.8014 16.8864 13.8766C17.2214 14.0475 17.3034 14.0475 17.529 13.8697C17.7204 13.7193 17.7683 13.4322 17.6384 13.1861C17.4948 12.9332 17.03 12.7623 16.4079 12.735C16.0866 12.7281 15.7448 12.7486 15.6423 12.776Z" fill="#58003F"/>
<path d="M19.7237 12.8175C19.1153 13.0499 18.9034 13.5079 19.2452 13.8428C19.4435 14.0479 19.5802 14.0548 19.9151 13.877C20.2569 13.6925 20.7218 13.6993 21.1046 13.8907C21.3849 14.0274 21.4259 14.0343 21.59 13.9386C22.0548 13.6788 22.0001 13.2208 21.4669 12.9268C21.0841 12.7081 20.1544 12.6534 19.7237 12.8175Z" fill="#58003F"/>
<path d="M8.16498 13.4948C7.89154 13.7751 7.77533 13.9597 7.6933 14.2536C7.55658 14.7253 7.59076 14.9646 7.90521 15.6618C8.03509 15.9489 8.13763 16.2634 8.13763 16.3591C8.13763 16.4548 8.03509 16.653 7.89837 16.8171C7.54974 17.2341 7.59076 17.6032 7.99408 17.7673C8.28119 17.8903 8.55462 17.7263 8.86908 17.2546C9.08099 16.9401 9.12884 16.7966 9.14935 16.4411C9.17669 16.0788 9.14935 15.9421 8.99212 15.6071C8.56146 14.6843 8.56146 14.5339 8.97162 14.1032C9.25189 13.8161 9.25873 13.5085 8.99896 13.2829C8.71869 13.0437 8.56146 13.0847 8.16498 13.4948Z" fill="#58003F"/>
<path d="M5.32427 16.2072C4.69536 16.8908 4.61333 17.4582 5.01665 18.3947C5.15337 18.716 5.26274 19.051 5.26274 19.1399C5.26274 19.2356 5.15337 19.4475 5.02349 19.6115C4.74321 19.967 4.7227 20.1789 4.95513 20.4045C5.21489 20.6711 5.46782 20.6301 5.80278 20.261C6.377 19.6457 6.44536 19.0578 6.04888 18.1828C5.75493 17.5334 5.74809 17.301 6.00786 17.0071C6.39067 16.5559 6.43169 16.2414 6.13091 16.0295C5.86431 15.8449 5.60454 15.8996 5.32427 16.2072Z" fill="#58003F"/>
</g>
<defs>
<clipPath id="clip0_870_32745">
<rect width="35" height="35" fill="white"/>
</clipPath>
</defs>
</svg>
