<svg width="35" height="35" viewBox="0 0 35 35" fill="none" xmlns="http://www.w3.org/2000/svg">
<g clip-path="url(#clip0_870_32812)">
<path d="M21.1371 0.11573C20.8158 0.272957 20.6312 0.560066 20.6244 0.936043C20.6107 1.23682 20.5902 1.26417 20.3441 1.40089C19.9681 1.59229 19.8109 1.82471 19.8109 2.20753C19.8109 2.80225 20.1322 3.07569 20.8294 3.07569H21.2464L21.8138 4.76417C22.1214 5.70069 22.388 6.49366 22.4017 6.53468C22.4291 6.60987 19.9203 8.99561 19.6605 9.13917C19.4759 9.24171 18.8949 9.32374 18.7992 9.26221C18.7445 9.22803 18.8128 9.11182 18.9974 8.92725C19.1478 8.77686 19.3597 8.46241 19.4623 8.23682C19.6332 7.86768 19.6537 7.7378 19.6742 6.9585C19.6947 6.29542 19.6742 6.00147 19.5853 5.69386C19.3597 4.92139 18.9154 4.4087 18.1498 4.06007C17.808 3.90284 17.6986 3.88233 17.138 3.90968C16.6527 3.92335 16.4339 3.96436 16.1878 4.08741C15.682 4.34034 15.2718 4.74366 15.0257 5.24952L14.8002 5.70753V6.7671C14.8002 7.94288 14.8685 8.24366 15.2513 8.72217C15.3607 8.85889 15.4496 9.02979 15.4496 9.09815C15.4496 9.21436 15.3949 9.22803 15.0121 9.22803C13.8705 9.22803 12.9681 9.49464 12.3187 10.0278C11.9291 10.3491 7.95054 15.3189 7.88218 15.5649C7.85484 15.6743 7.83433 15.8999 7.84117 16.0776C7.85484 16.7066 7.9984 16.8501 10.1927 18.4634C11.2933 19.27 12.223 19.9468 12.2572 19.9673C12.3392 20.022 13.3304 24.2603 13.3783 24.7593C13.3988 24.978 13.3783 25.3403 13.3373 25.5659C13.1869 26.3316 11.5804 30.8638 11.2113 31.561C10.8627 32.231 10.8011 32.4702 10.9584 32.5933C10.9994 32.6275 11.6283 32.9829 12.3392 33.3726C15.764 35.2593 15.7367 35.2456 15.9486 34.5894C16.2152 33.7554 16.222 33.7691 15.5316 32.8189L14.9095 31.9712L15.1078 31.4517C15.2103 31.1646 15.641 30.023 16.0648 28.9155C16.4886 27.8081 16.9398 26.5776 17.0765 26.1812L17.3294 25.4634L17.3636 23.5015C17.3841 22.4282 17.4183 21.5191 17.4457 21.4985C17.555 21.3892 17.7328 21.5737 18.6693 22.7358C19.7152 24.0415 19.8861 24.3013 20.098 24.9233C20.2962 25.4976 20.9867 31.1782 20.9867 32.2378C20.9867 32.6685 21.0209 33.0855 21.055 33.1607C21.1234 33.2837 21.2259 33.2905 23.7826 33.2905C26.1136 33.2905 26.4486 33.2769 26.5306 33.1812C26.599 33.0923 26.5921 32.9761 26.4623 32.4839C26.3802 32.1558 26.264 31.8276 26.2162 31.7456C26.1683 31.6704 25.724 31.4243 25.2113 31.1919L24.3021 30.7749L24.2474 30.4058C24.2201 30.2075 24.0423 28.6284 23.8578 26.8921C23.6732 25.1626 23.4681 23.5767 23.4066 23.3716C23.2494 22.8384 23.1605 22.6812 21.7591 20.4595L20.4945 18.4566L20.7679 15.4419L21.0414 12.4273L21.6839 11.7642C22.0462 11.4019 22.9144 10.4927 23.6185 9.74073C25.1224 8.14795 25.307 7.84034 25.348 6.97218C25.3685 6.50733 25.307 6.20655 24.6781 3.72511C24.2953 2.2212 23.9193 0.888191 23.8441 0.765144C23.6253 0.409676 23.1947 0.204597 22.4359 0.0952225C21.5882 -0.0209885 21.4105 -0.0209885 21.1371 0.11573ZM22.3334 0.826668C22.9212 0.908699 23.0716 0.963387 23.1742 1.16163C23.2084 1.22999 23.557 2.43995 23.9398 3.84132C24.7259 6.73292 24.7669 7.04737 24.473 7.60108C24.2953 7.93604 22.3607 10.1167 22.265 10.0894C22.2308 10.0825 22.0462 9.71339 21.8548 9.26905L21.5062 8.45557L22.3402 7.6626C22.7982 7.2251 23.1742 6.82862 23.1742 6.78077C23.1742 6.73292 22.7572 5.42725 22.2513 3.8755C21.7455 2.32374 21.3285 1.0044 21.3285 0.949715C21.3285 0.724129 21.472 0.703621 22.3334 0.826668ZM20.9183 2.11182C20.9183 2.146 20.9388 2.2212 20.9593 2.28272C20.9935 2.36475 20.9525 2.3921 20.7953 2.3921C20.5697 2.3921 20.474 2.30323 20.5355 2.15284C20.5765 2.04346 20.9183 2.00928 20.9183 2.11182ZM17.9515 4.90772C18.266 5.07178 18.5941 5.40675 18.7718 5.74171C18.8812 5.93995 18.9017 6.13819 18.9017 6.83546C18.9017 7.58741 18.8812 7.72413 18.7513 7.97022C18.0746 9.23487 16.3109 9.23487 15.6341 7.97022C15.5043 7.72413 15.4837 7.58057 15.4837 6.83546C15.4837 6.13136 15.5043 5.93995 15.6136 5.74171C15.8529 5.2837 16.263 4.93507 16.7484 4.77784C17.0218 4.68897 17.6576 4.75733 17.9515 4.90772ZM21.3216 9.94581L21.6634 10.7661L20.9798 11.4566C20.6107 11.8394 20.3031 12.1812 20.3031 12.2222C20.3031 12.3589 19.8314 17.5269 19.7836 17.855L19.7425 18.1831H18.1771H16.6117V17.937C16.6117 17.1919 15.7709 16.8228 15.1966 17.3081C15.0531 17.4312 14.889 17.5679 14.8275 17.6157C14.7318 17.6909 14.6019 17.6226 13.8705 17.1167C13.4056 16.7954 12.9955 16.5083 12.9681 16.4741C12.9339 16.4468 12.9955 15.7222 13.098 14.8677L13.2826 13.3091L13.1322 13.1792C12.8929 12.9946 12.7972 13.022 12.4486 13.4048L12.1205 13.7603L11.4916 13.2954L10.8695 12.8374L11.0882 12.5571C11.724 11.7368 12.4007 10.9165 12.599 10.7319C12.722 10.6157 13.016 10.4243 13.2621 10.3013C13.6722 10.0962 13.7611 10.0825 14.5404 10.0552L15.3812 10.0347V10.3355C15.3812 11.0532 15.9144 11.5796 16.5912 11.5317C17.2132 11.4907 17.6371 11.0191 17.6371 10.3696V10.0689L18.6146 10.0347C19.7562 10.0005 19.9955 9.91846 20.5423 9.36475C20.7269 9.18018 20.8978 9.04346 20.932 9.07764C20.9593 9.10499 21.1302 9.49464 21.3216 9.94581ZM16.8851 10.3423C16.8851 10.6841 16.7962 10.8003 16.5365 10.8003C16.2699 10.8003 16.1332 10.6294 16.1332 10.3149V10.0483H16.5091H16.8851V10.3423ZM11.0267 13.8218C11.3343 14.0474 11.6146 14.2593 11.6419 14.2866C11.6693 14.314 11.4916 14.5806 11.2455 14.8882C10.89 15.3189 10.7943 15.4829 10.8148 15.6265C10.8353 15.8247 10.7191 15.7358 14.3968 18.3403C15.2308 18.9282 15.9486 19.4546 15.9964 19.5161C16.0443 19.5708 16.0648 19.687 16.0375 19.7896C16.0033 19.9263 15.8461 20.0357 15.3128 20.3023C14.9369 20.4937 14.5609 20.6441 14.472 20.6441C14.3763 20.6441 13.6722 20.1655 12.6468 19.4067C11.724 18.73 10.4935 17.8276 9.91246 17.4175C9.3314 17.0005 8.78453 16.5972 8.7025 16.522C8.51109 16.3511 8.4359 15.9956 8.54527 15.7837C8.64097 15.606 10.391 13.398 10.4388 13.398C10.4525 13.398 10.7191 13.5894 11.0267 13.8218ZM12.4144 14.813C12.4007 14.8814 12.3597 15.1411 12.3324 15.4009C12.3119 15.6538 12.2709 15.8726 12.2435 15.8862C12.2162 15.9067 12.0794 15.8179 11.9359 15.7017L11.6761 15.4829L12.0111 15.0933C12.3461 14.6968 12.4759 14.6079 12.4144 14.813ZM15.9281 17.9233C15.9281 17.9712 15.8666 18.0874 15.7914 18.1831C15.6683 18.3472 15.6546 18.3472 15.5384 18.231C15.4222 18.1079 15.4222 18.1011 15.5794 17.9712C15.7572 17.8208 15.9281 17.8003 15.9281 17.9233ZM21.0687 20.7466C22.347 22.7905 22.5726 23.1939 22.6888 23.6724C22.7709 24.0142 23.5296 30.6382 23.4886 30.6792C23.4339 30.7271 21.6566 30.9732 21.6156 30.939C21.5951 30.9116 21.4173 29.5991 21.2191 28.02C21.0209 26.4409 20.8089 24.9712 20.7474 24.7593C20.6859 24.5474 20.5287 24.1782 20.4056 23.9321C20.1322 23.3921 18.2455 21.02 17.9173 20.8013C17.5345 20.5415 17.1244 20.6167 16.7484 21.02L16.5775 21.2046L16.5365 23.228C16.5091 24.7798 16.475 25.3335 16.3929 25.5659C15.9281 26.9468 14.1849 31.4448 14.1166 31.4448C14.0619 31.4448 13.638 31.3013 13.1732 31.1304L12.3187 30.8159L12.7972 29.4419C14.1234 25.6069 14.0414 25.8872 14.0414 25.0532C14.0414 24.3696 14.0003 24.1441 13.6175 22.5513C13.3851 21.5874 13.1937 20.7808 13.1937 20.7534C13.1937 20.7261 13.3988 20.8491 13.6449 21.0269C14.014 21.2935 14.1644 21.355 14.4515 21.3823C14.766 21.4097 14.8753 21.3755 15.6341 20.9927C16.6459 20.4868 16.7826 20.3296 16.7826 19.7212C16.7826 19.3999 16.7484 19.2632 16.6253 19.0855L16.4613 18.8667L18.1908 18.8804L19.9203 18.9009L21.0687 20.7466ZM24.7464 31.7935C25.4164 32.1148 25.6351 32.2515 25.6351 32.3403C25.6351 32.4634 25.5326 32.4702 23.6185 32.4702H21.6019V32.1011V31.7251L21.8959 31.6841C22.1351 31.6499 23.639 31.4107 23.8031 31.3833C23.8373 31.3833 24.2543 31.5679 24.7464 31.7935ZM13.1869 31.9302L14.1781 32.2993L14.7455 33.0581C15.1146 33.5571 15.2992 33.8648 15.2718 33.9331C15.2513 33.9946 15.2035 34.0425 15.1761 34.0425C15.1283 34.0425 11.7582 32.2173 11.7035 32.1626C11.6419 32.1079 12.0453 31.5064 12.1205 31.5337C12.1683 31.5474 12.6468 31.7251 13.1869 31.9302Z" fill="#58003F"/>
<path d="M6.20703 5.03809C6.15234 5.10645 6.0498 5.31152 5.98145 5.50293C5.83105 5.91992 5.50977 6.23437 5.0791 6.39844C4.66895 6.54883 4.51172 6.67871 4.51172 6.87012C4.51172 7.06152 4.66895 7.19141 5.0791 7.3418C5.26367 7.41016 5.50977 7.56738 5.63965 7.69043C5.7627 7.82031 5.91992 8.06641 5.98828 8.25098C6.14551 8.68164 6.26855 8.81836 6.50781 8.81836C6.68555 8.81836 6.72656 8.77051 6.93164 8.3125C7.19141 7.75195 7.4375 7.5127 7.99805 7.28711C8.62012 7.03418 8.59961 6.67187 7.9502 6.43262C7.41699 6.23437 7.20508 6.0293 6.93164 5.4209C6.72656 4.96973 6.68555 4.92187 6.50781 4.92187C6.39844 4.92187 6.26172 4.97656 6.20703 5.03809ZM6.81543 6.54199L7.14355 6.86328L6.81543 7.18457L6.4873 7.5127L6.16602 7.18457L5.84473 6.85645L6.15234 6.54883C6.32324 6.37793 6.4668 6.23437 6.47363 6.23437C6.48047 6.22754 6.6377 6.36426 6.81543 6.54199Z" fill="#58003F"/>
<path d="M26.3212 6.00096L26.1639 6.13084L26.3212 6.75975C26.5672 7.77147 26.4784 8.15428 25.788 8.94041C25.4462 9.33006 25.4188 9.38475 25.4872 9.53514C25.5282 9.624 25.6512 9.72654 25.7538 9.74705C25.9178 9.78807 25.9862 9.74705 26.3348 9.36424C26.8885 8.76268 27.0936 8.31834 27.1278 7.62791C27.1483 7.19725 27.121 6.95115 27.0116 6.5615C26.827 5.89158 26.6356 5.74119 26.3212 6.00096Z" fill="#58003F"/>
<path d="M28.3022 11.2104C28.1723 11.3403 28.1654 11.436 28.1654 12.9536C28.1654 13.8354 28.1518 14.56 28.1313 14.56C28.1039 14.56 27.9945 14.5053 27.8715 14.4438C27.5502 14.2798 26.8461 14.2866 26.4565 14.4643C26.1078 14.6215 25.7524 14.9497 25.5951 15.2641C25.4242 15.5854 25.3969 16.1938 25.5268 16.5835C25.9301 17.8071 27.475 18.1831 28.3842 17.2807C28.8422 16.8159 28.8832 16.6655 28.9037 15.1206L28.9242 13.7397H30.6674H32.4037V14.1499C32.4037 14.3755 32.3901 14.56 32.3764 14.56C32.3627 14.56 32.2192 14.4985 32.0551 14.4233C30.9682 13.9311 29.6694 14.8061 29.6694 16.0229C29.6762 17.8823 32.0893 18.4428 32.9711 16.7885C33.1147 16.5151 33.1215 16.4262 33.142 13.9585C33.1625 11.7231 33.1488 11.3813 33.0531 11.2378L32.9506 11.0737H30.6947C28.5278 11.0737 28.432 11.0805 28.3022 11.2104ZM32.4037 12.4067V12.9878H30.6606H28.9174V12.4067V11.8256H30.6606H32.4037V12.4067ZM27.6733 15.1753C28.5346 15.7016 28.186 17.0415 27.1811 17.0415C26.6137 17.0415 26.1625 16.5835 26.1625 16.0161C26.1625 15.2846 27.0444 14.7924 27.6733 15.1753ZM31.932 15.1958C32.349 15.476 32.5199 16.0503 32.308 16.4604C31.8774 17.2876 30.7836 17.2329 30.4486 16.3715C30.3529 16.1118 30.3461 16.0161 30.4145 15.7973C30.4965 15.5239 30.7699 15.1958 31.0024 15.1001C31.2758 14.9907 31.6928 15.0317 31.932 15.1958Z" fill="#58003F"/>
<path d="M22.2458 16.3033C22.1501 16.4469 22.1296 16.6793 22.1227 17.5885C22.1159 18.6481 22.1227 18.7096 22.2936 19.0377C22.5056 19.4479 22.7517 19.5778 22.9704 19.3795C23.1345 19.2291 23.1413 19.0651 23.0046 18.8053C22.8063 18.4156 22.7653 18.0397 22.8405 17.2057C22.9089 16.4674 22.902 16.3854 22.7927 16.2623C22.6286 16.0778 22.3825 16.0983 22.2458 16.3033Z" fill="#58003F"/>
<path d="M5.51029 19.7283C5.41458 19.8172 5.40091 20.1248 5.40091 22.0525V24.2674L5.14798 24.1033C4.7515 23.8504 4.41654 23.7752 3.8765 23.8025C3.03568 23.8435 2.43411 24.2674 2.07181 25.0672C1.92142 25.3953 1.90091 25.5115 1.92825 26.0037C1.96243 26.6599 2.1265 27.0154 2.60501 27.4392C3.04935 27.8426 3.43216 27.9929 4.03372 27.9861C4.86771 27.9861 5.54447 27.5691 5.93411 26.8377L6.11868 26.489L6.13919 24.4861L6.1597 22.49H7.23978C8.19681 22.49 8.33353 22.4763 8.42923 22.367C8.52493 22.2576 8.54544 22.0662 8.54544 21.1092C8.54544 20.0701 8.53177 19.9676 8.40189 19.7967L8.26517 19.6189H6.939C5.82474 19.6189 5.59915 19.6394 5.51029 19.7283ZM7.79349 21.0545V21.7381H6.97318H6.15286V21.0545V20.3709H6.97318H7.79349V21.0545ZM4.71048 24.7322C5.25736 25.0603 5.49661 25.8601 5.23685 26.4754C5.05228 26.9265 4.47806 27.2752 3.92435 27.2752C3.59622 27.2752 3.022 26.9539 2.82376 26.6531C2.33158 25.908 2.71439 24.8416 3.56204 24.575C3.95169 24.4519 4.3345 24.5066 4.71048 24.7322Z" fill="#58003F"/>
<path d="M23.2138 20.0689C23.0497 20.2262 23.0771 20.4107 23.3095 20.7525C23.5282 21.0601 23.6786 21.1148 23.9316 20.985C24.123 20.8756 24.0956 20.5748 23.8564 20.2467C23.6308 19.9322 23.4052 19.8707 23.2138 20.0689Z" fill="#58003F"/>
<path d="M27.6614 22.2983C27.6135 22.3872 27.5247 22.5786 27.4768 22.729C27.3469 23.105 26.9094 23.522 26.4651 23.686C26.0481 23.8433 25.9387 23.9663 26.0003 24.2124C26.0344 24.3423 26.1507 24.4243 26.4925 24.5747C27.0598 24.814 27.2923 25.0464 27.4973 25.5728C27.7639 26.27 28.1467 26.27 28.3928 25.5728C28.5706 25.0737 28.8509 24.7866 29.343 24.5952C30.0266 24.3354 30.1292 23.9253 29.5618 23.7271C28.9329 23.5083 28.7346 23.3374 28.468 22.7769C28.3245 22.4897 28.1809 22.23 28.1399 22.2026C27.9895 22.1001 27.7571 22.1479 27.6614 22.2983ZM28.2425 24.4517L27.928 24.7798L27.6135 24.4517L27.2991 24.1235L27.6135 23.8022L27.928 23.481L28.2425 23.8022L28.5569 24.1304L28.2425 24.4517Z" fill="#58003F"/>
<path d="M11.6546 23.242C11.5316 23.3719 11.5316 23.4129 11.6273 23.8778C11.7093 24.2879 11.7503 24.3836 11.9075 24.4725C12.1126 24.5819 12.263 24.534 12.3997 24.3221C12.4818 24.1922 12.2699 23.3583 12.1195 23.201C11.9827 23.0643 11.7982 23.078 11.6546 23.242Z" fill="#58003F"/>
<path d="M11.8729 25.2783C11.8045 25.3466 11.7567 25.4697 11.7567 25.5449C11.7567 25.6269 11.62 26.0986 11.4491 26.6045C11.203 27.3291 11.1483 27.5478 11.203 27.664C11.285 27.8486 11.62 27.8828 11.7772 27.7187C11.8934 27.6025 12.4129 26.0781 12.4813 25.6611C12.5086 25.4492 12.495 25.3535 12.4061 25.2714C12.2557 25.1211 12.0096 25.1211 11.8729 25.2783Z" fill="#58003F"/>
</g>
<defs>
<clipPath id="clip0_870_32812">
<rect width="35" height="35" fill="white"/>
</clipPath>
</defs>
</svg>
