<svg width="24" height="24" viewBox="0 0 24 24" fill="none" xmlns="http://www.w3.org/2000/svg">
<path d="M19.7492 9.99934C19.7492 9.80043 19.6702 9.60966 19.5295 9.46901C19.3889 9.32836 19.1981 9.24934 18.9992 9.24934C18.8003 9.24934 18.6095 9.32836 18.4688 9.46901C18.3282 9.60966 18.2492 9.80043 18.2492 9.99934H19.7492ZM5.74918 9.99934C5.74918 9.80043 5.67016 9.60966 5.52951 9.46901C5.38886 9.32836 5.19809 9.24934 4.99918 9.24934C4.80026 9.24934 4.6095 9.32836 4.46885 9.46901C4.32819 9.60966 4.24918 9.80043 4.24918 9.99934H5.74918ZM20.4692 12.5293C20.5378 12.603 20.6206 12.6621 20.7126 12.7031C20.8046 12.7441 20.904 12.7662 21.0047 12.7679C21.1054 12.7697 21.2054 12.7512 21.2988 12.7135C21.3922 12.6757 21.477 12.6196 21.5482 12.5484C21.6194 12.4772 21.6756 12.3923 21.7133 12.2989C21.751 12.2055 21.7695 12.1055 21.7678 12.0048C21.766 11.9041 21.744 11.8048 21.703 11.7128C21.662 11.6208 21.6029 11.538 21.5292 11.4693L20.4692 12.5293ZM11.9992 2.99934L12.5292 2.46934C12.3886 2.32889 12.1979 2.25 11.9992 2.25C11.8004 2.25 11.6098 2.32889 11.4692 2.46934L11.9992 2.99934ZM2.46918 11.4693C2.39549 11.538 2.33639 11.6208 2.2954 11.7128C2.2544 11.8048 2.23236 11.9041 2.23059 12.0048C2.22881 12.1055 2.24733 12.2055 2.28505 12.2989C2.32278 12.3923 2.37892 12.4772 2.45014 12.5484C2.52136 12.6196 2.60619 12.6757 2.69958 12.7135C2.79297 12.7512 2.893 12.7697 2.9937 12.7679C3.0944 12.7662 3.19372 12.7441 3.28572 12.7031C3.37771 12.6621 3.46052 12.603 3.52918 12.5293L2.46918 11.4693ZM6.99918 21.7493H16.9992V20.2493H6.99918V21.7493ZM19.7492 18.9993V9.99934H18.2492V18.9993H19.7492ZM5.74918 18.9993V9.99934H4.24918V18.9993H5.74918ZM21.5292 11.4693L12.5292 2.46934L11.4692 3.52934L20.4692 12.5293L21.5292 11.4693ZM11.4692 2.46934L2.46918 11.4693L3.52918 12.5293L12.5292 3.52934L11.4692 2.46934ZM16.9992 21.7493C17.7285 21.7493 18.428 21.4596 18.9437 20.9439C19.4594 20.4282 19.7492 19.7287 19.7492 18.9993H18.2492C18.2492 19.6893 17.6892 20.2493 16.9992 20.2493V21.7493ZM6.99918 20.2493C6.30918 20.2493 5.74918 19.6893 5.74918 18.9993H4.24918C4.24918 19.7287 4.53891 20.4282 5.05463 20.9439C5.57036 21.4596 6.26983 21.7493 6.99918 21.7493V20.2493Z" fill="#DC9750"/>
</svg>
