<svg width="343" height="18" viewBox="0 0 343 18" fill="none" xmlns="http://www.w3.org/2000/svg">
<path d="M174.264 8.6257C174.264 10.216 172.974 11.5052 171.384 11.5052C169.794 11.5052 168.504 10.216 168.504 8.6257C168.504 7.03541 169.794 5.74609 171.384 5.74609C172.974 5.74609 174.264 7.03541 174.264 8.6257Z" fill="#58003F" fill-opacity="0.22"/>
<path d="M330.221 8.63376C334.985 8.63376 338.854 4.77024 338.854 0C338.854 2.58359 339.988 4.90137 341.784 6.48351C343.099 7.64111 343.099 9.62641 341.784 10.784C339.988 12.3661 338.854 14.6838 338.854 17.2674C338.854 12.4972 334.985 8.63376 330.221 8.63376Z" fill="#58003F" fill-opacity="0.22"/>
<path d="M326.296 8.6296C326.296 10.2199 327.585 11.5091 329.175 11.5091C330.766 11.5091 332.055 10.2199 332.055 8.6296C332.055 7.03931 330.766 5.75 329.175 5.75C327.585 5.75 326.296 7.03931 326.296 8.6296Z" fill="#58003F" fill-opacity="0.22"/>
<path d="M328.86 8.01172H169.558V9.23451H328.86V8.01172Z" fill="#58003F" fill-opacity="0.22"/>
<path d="M175.775 8.01367H16.4729V9.23646H175.775V8.01367Z" fill="#58003F" fill-opacity="0.22"/>
<path d="M3.91615 17.2694C3.91615 14.6858 2.78238 12.3681 0.985779 10.786C-0.328593 9.62836 -0.328593 7.64299 0.985779 6.48539C2.78238 4.90325 3.91615 2.58555 3.91615 0.00195312C3.91615 4.77157 7.78527 8.63571 12.5492 8.63571C7.78527 8.63634 3.91615 12.4998 3.91615 17.2694Z" fill="#58003F" fill-opacity="0.22"/>
<path d="M16.4738 8.63156C16.4738 10.2218 15.1845 11.5111 13.5942 11.5111C12.0039 11.5111 10.7146 10.2218 10.7146 8.63156C10.7146 7.04127 12.0039 5.75195 13.5942 5.75195C15.1845 5.75195 16.4738 7.04127 16.4738 8.63156Z" fill="#58003F" fill-opacity="0.22"/>
</svg>
