<svg width="26" height="25" viewBox="0 0 26 25" fill="none" xmlns="http://www.w3.org/2000/svg">
<path d="M12.8327 24.5001C19.276 24.5001 24.4994 19.2767 24.4994 12.8334C24.4994 6.39009 19.276 1.16675 12.8327 1.16675C6.38936 1.16675 1.16602 6.39009 1.16602 12.8334C1.16602 19.2767 6.38936 24.5001 12.8327 24.5001Z" fill="#B3AEAE"/>
<path d="M8.16602 15.1667C8.16602 15.1667 9.91602 17.5001 12.8327 17.5001C15.7493 17.5001 17.4993 15.1667 17.4993 15.1667" fill="#B3AEAE"/>
<path d="M16.916 9.33342C16.916 9.65558 16.6548 9.91675 16.3327 9.91675C16.0105 9.91675 15.7493 9.65558 15.7493 9.33342C15.7493 9.01125 16.0105 8.75008 16.3327 8.75008C16.6548 8.75008 16.916 9.01125 16.916 9.33342Z" fill="#B3AEAE"/>
<path d="M9.91602 9.33342C9.91602 9.65558 9.65485 9.91675 9.33268 9.91675C9.01052 9.91675 8.74935 9.65558 8.74935 9.33342C8.74935 9.01125 9.01052 8.75008 9.33268 8.75008C9.65485 8.75008 9.91602 9.01125 9.91602 9.33342Z" fill="#B3AEAE"/>
<path d="M8.16602 15.1667C8.16602 15.1667 9.91602 17.5001 12.8327 17.5001C15.7493 17.5001 17.4994 15.1667 17.4994 15.1667M16.3327 9.33342H16.3444M9.33268 9.33342H9.34435M24.4994 12.8334C24.4994 19.2767 19.276 24.5001 12.8327 24.5001C6.38936 24.5001 1.16602 19.2767 1.16602 12.8334C1.16602 6.39009 6.38936 1.16675 12.8327 1.16675C19.276 1.16675 24.4994 6.39009 24.4994 12.8334ZM16.916 9.33342C16.916 9.65558 16.6548 9.91675 16.3327 9.91675C16.0105 9.91675 15.7493 9.65558 15.7493 9.33342C15.7493 9.01125 16.0105 8.75008 16.3327 8.75008C16.6548 8.75008 16.916 9.01125 16.916 9.33342ZM9.91602 9.33342C9.91602 9.65558 9.65485 9.91675 9.33268 9.91675C9.01052 9.91675 8.74935 9.65558 8.74935 9.33342C8.74935 9.01125 9.01052 8.75008 9.33268 8.75008C9.65485 8.75008 9.91602 9.01125 9.91602 9.33342Z" stroke="white" stroke-width="2.33333" stroke-linecap="round" stroke-linejoin="round"/>
</svg>
