<svg width="100" height="100" viewBox="0 0 100 100" fill="none" xmlns="http://www.w3.org/2000/svg">
<g clip-path="url(#clip0_870_98929)">
<path d="M32.4618 0.605469C31.036 1.30859 30.04 2.40234 29.4931 3.86719C29.1025 4.90234 29.1025 5.25391 29.1415 21.1523L29.2001 37.4023L29.7275 38.3984C30.3525 39.5703 31.5439 40.7031 32.7939 41.2891C33.6923 41.6992 33.8095 41.6992 47.4618 41.6992H61.2314L62.3056 41.1719C63.1259 40.7617 64.2001 39.8242 66.7196 37.2656C69.6493 34.2969 70.1181 33.75 70.4892 32.7539C70.8993 31.6406 70.8993 31.4453 70.8993 18.2617C70.8993 5.35156 70.8798 4.86328 70.5087 3.84766C69.9618 2.40234 68.9657 1.30859 67.54 0.605469L66.3485 0H50.0009H33.6532L32.4618 0.605469ZM65.6454 4.49219C66.6025 5.01953 66.6025 4.96094 66.6025 18.2617C66.6025 28.6133 66.5634 30.7812 66.329 31.2109C66.1728 31.5039 64.786 32.9883 63.2431 34.5117C61.0165 36.6992 60.3134 37.3047 59.7665 37.4023C59.3954 37.4609 53.5751 37.5 46.8368 37.4609L34.5712 37.4023L34.0439 36.8555L33.497 36.3281L33.4384 21.1328C33.3993 9.98047 33.4579 5.82031 33.6142 5.41016C34.1025 4.23828 33.2626 4.29688 49.9618 4.29688C60.079 4.29688 65.3915 4.35547 65.6454 4.49219Z" fill="#58003F"/>
<path d="M57.1298 12.7725C56.9149 12.9092 54.7274 15.4678 52.247 18.4365L47.7743 23.8272L45.1962 21.2881L42.6376 18.749H41.6806C40.8603 18.749 40.6064 18.8467 40.1962 19.2764C39.5907 19.9209 39.3564 20.6826 39.5517 21.4248C39.7079 22.0889 46.2899 28.7686 47.0907 29.1201C47.9696 29.4717 48.8485 29.1982 49.747 28.2607C51.7978 26.1318 60.3134 15.624 60.4306 15.0772C60.7431 13.6904 59.7665 12.499 58.3212 12.499C57.872 12.499 57.3446 12.6162 57.1298 12.7725Z" fill="#58003F"/>
<path d="M14.4336 21.0547C11.4844 21.8359 9.21875 24.1797 8.51562 27.1484C8.24219 28.2422 8.20312 31.5039 8.20312 51.6992V75H4.66797H1.13281L0.566406 75.5664C0.0976562 76.0547 0 76.3086 0 77.0898C0 77.9102 0.0976562 78.1445 0.605469 78.6328L1.19141 79.1992H50H98.8086L99.3945 78.6328C99.9023 78.1445 100 77.9102 100 77.0898C100 76.3086 99.9023 76.0547 99.4336 75.5664L98.8672 75H95.332H91.7969V51.6992C91.7969 26.3477 91.8164 26.9531 90.7031 25.0391C88.9258 22.0312 86.0352 20.5664 82.1094 20.7227C80.5078 20.8008 80.4102 20.8203 79.8633 21.4453C79.0625 22.3242 79.0625 23.6133 79.8438 24.3945C80.332 24.9023 80.5273 24.9414 82.3438 25.0391C85.0391 25.1953 86.0938 25.7617 87.0312 27.5391C87.3828 28.2031 87.4023 29.2188 87.4609 51.6016L87.5195 75H50H12.4805L12.5391 51.6016L12.5977 28.2227L13.0273 27.4414C13.9062 25.7812 15 25.1953 17.4414 25.0781C19.8828 24.9414 20.0781 24.8828 20.5078 24.1602C21.25 22.9492 20.918 21.6016 19.7266 20.9961C18.9453 20.6055 16.0938 20.625 14.4336 21.0547Z" fill="#58003F"/>
</g>
<defs>
<clipPath id="clip0_870_98929">
<rect width="100" height="100" fill="white"/>
</clipPath>
</defs>
</svg>
