<svg width="31" height="31" viewBox="0 0 31 31" fill="none" xmlns="http://www.w3.org/2000/svg">
<g clip-path="url(#clip0_870_32758)">
<path d="M14.4249 0.0961952C12.1059 0.483694 10.0837 2.17295 9.29657 4.37686C8.98778 5.24874 8.90302 5.79366 8.90302 6.99854V8.05206H8.54579C8.35204 8.05206 8.10985 8.08233 8.00087 8.11866C7.82528 8.1792 7.77684 8.16104 7.20165 7.78565C6.49325 7.32549 6.23895 7.24073 5.69403 7.27706C5.05829 7.32549 4.53759 7.67061 4.2288 8.25186C4.09559 8.5001 4.08954 8.5667 4.07137 10.371L4.05321 12.2298L3.79891 12.363C3.44774 12.5386 2.85438 12.914 2.24286 13.3439C1.14091 14.1189 0.826062 14.5669 0.832117 15.3298C0.832117 16.0261 1.21962 16.6497 1.8493 16.9646C2.17626 17.1341 3.64755 17.6245 4.362 17.8001C7.22587 18.5267 9.72645 18.5024 13.0202 17.7093C14.0616 17.455 16.1565 17.0554 16.871 16.9767C17.1495 16.9403 17.2706 16.9706 17.9608 17.2431C19.2868 17.7638 20.8913 18.1816 22.4352 18.4177C23.1255 18.5206 25.6382 18.5206 26.5524 18.4116C27.9692 18.2542 29.1136 17.8909 29.6222 17.4429C30.1731 16.9585 30.3487 16.0442 30.0097 15.354C29.7251 14.7728 29.4829 14.6153 27.836 13.9554C25.9712 13.2046 25.0388 12.7626 24.2819 12.2661C23.6583 11.8605 22.8651 11.146 22.4534 10.6374L22.2233 10.3407V8.63936C22.2173 6.57471 22.1567 5.66045 21.9509 4.91573C21.0608 1.62803 17.7913 -0.466892 14.4249 0.0961952ZM16.9013 1.37979C17.8095 1.62198 18.5542 2.03975 19.2747 2.72393C20.3645 3.74717 20.9095 5.00049 20.9942 6.66553L21.0306 7.44659H17.4886C14.4733 7.44659 13.9102 7.43448 13.7286 7.35577C13.4561 7.24073 12.8265 7.24073 12.5056 7.35577C12.33 7.42237 11.9727 7.44659 11.1917 7.44659H10.114V6.72002C10.114 5.58174 10.344 4.72803 10.9132 3.76534C11.2159 3.25069 12.1725 2.32432 12.7477 1.98526C13.2503 1.68858 14.0979 1.37373 14.661 1.27686C15.1636 1.18604 16.3684 1.24053 16.9013 1.37979ZM6.87469 9.02081L7.69208 9.56573V10.4376V11.3034L6.89286 11.8423C6.19052 12.3085 6.05126 12.3751 5.82723 12.3812C5.60927 12.3812 5.53661 12.3509 5.41552 12.2116L5.2702 12.0421V10.4134V8.79073L5.4579 8.63331C5.78485 8.36085 5.95438 8.40323 6.87469 9.02081ZM13.5227 8.63331C13.6136 8.71807 13.6983 8.87549 13.7165 8.98448C13.7407 9.08741 13.7468 9.82003 13.7347 10.6071C13.7165 12.0239 13.7165 12.0421 13.5712 12.1935C13.3956 12.3812 13.0868 12.4478 12.8931 12.3509C12.8143 12.3085 12.4268 12.0724 12.0393 11.812L11.3249 11.3519V10.4376V9.51729L12.1181 8.99659C13.0202 8.40323 13.2382 8.34874 13.5227 8.63331ZM21.0124 9.26299V9.86846H17.985H14.9577V9.57784C14.9577 9.42042 14.9395 9.14795 14.9214 8.97237L14.879 8.65753H17.9487H21.0124V9.26299ZM10.114 9.86846V10.4739H9.50848H8.90302V9.86846V9.26299H9.50848H10.114V9.86846ZM21.4362 11.2732C22.3505 12.5325 23.7249 13.5134 25.9167 14.4821C26.1225 14.573 26.1104 14.573 25.3415 14.6153C24.4212 14.6638 23.3858 14.7909 20.528 15.2026C16.1202 15.8384 14.2796 16.1532 12.7477 16.5286C9.45399 17.3339 6.84442 17.3036 3.96239 16.4317C2.35184 15.9474 2.03094 15.7536 2.037 15.2995C2.04305 15.0816 2.08544 15.0149 2.30341 14.8212C2.60009 14.5548 3.59911 13.8767 4.2288 13.5013L4.67079 13.2409L5.04012 13.4165C5.34891 13.5618 5.48212 13.5921 5.86962 13.5921C6.37216 13.586 6.55985 13.5134 7.21981 13.0714C7.40751 12.9382 7.5952 12.8353 7.62548 12.8353C7.67391 12.8353 7.69208 13.3983 7.69208 14.5851C7.69208 16.3167 7.69208 16.3409 7.83134 16.4983C7.92216 16.6073 8.0493 16.6679 8.21884 16.6921C8.47313 16.7284 8.48524 16.7224 8.98173 16.238L9.48427 15.7476L9.93837 16.2017C10.3138 16.5771 10.4349 16.6618 10.6347 16.6921C10.9313 16.7284 11.1735 16.5589 11.2643 16.238C11.2946 16.1108 11.3249 15.3298 11.3249 14.4216C11.3249 13.5497 11.337 12.8353 11.3552 12.8353C11.3673 12.8353 11.5913 12.9745 11.8456 13.138C12.6327 13.6526 13.1776 13.7314 13.8618 13.4347C14.213 13.2833 14.6126 12.8837 14.7821 12.5083C14.8487 12.3509 14.9093 12.0239 14.9335 11.6667L14.9759 11.0794H18.1364H21.2909L21.4362 11.2732ZM10.114 13.138C10.114 13.9372 10.0958 14.5911 10.0776 14.5911C10.0595 14.5911 9.95653 14.5185 9.8536 14.4337C9.70223 14.3066 9.62352 14.2823 9.42977 14.3066C9.30262 14.3247 9.12704 14.4034 9.04833 14.4761L8.90302 14.6093V13.1501V11.6849H9.50848H10.114V13.138ZM27.0671 15.8626C27.7331 15.9232 28.8653 16.0866 28.9561 16.1411C29.047 16.1956 28.8593 16.5347 28.6837 16.6376C28.0177 17.0433 26.2194 17.3157 24.2819 17.3157C23.4161 17.3157 22.7198 17.2491 21.7692 17.0675C21.0972 16.9464 19.6622 16.5892 19.6925 16.5528C19.7349 16.5105 24.0397 15.9292 24.9479 15.8444C25.4202 15.796 26.4132 15.8081 27.0671 15.8626Z" fill="#58003F"/>
<path d="M15.2861 2.48222C14.9531 2.61543 14.8502 3.13613 15.0985 3.4207C15.3891 3.75976 15.9037 3.66289 16.0854 3.233C16.158 3.05742 16.158 2.99687 16.0854 2.82129C15.9401 2.47617 15.6313 2.34297 15.2861 2.48222Z" fill="#58003F"/>
<path d="M17.2477 3.12422C17.0357 3.2332 16.957 3.38457 16.957 3.66914C16.957 3.86289 16.9994 3.92949 17.2113 4.11113C17.9742 4.76504 18.2648 5.18887 18.4707 5.96387C18.6221 6.53906 18.7855 6.7207 19.1246 6.7207C19.6029 6.7207 19.8027 6.39375 19.6816 5.79434C19.4879 4.80137 18.7795 3.71758 17.9863 3.20898C17.6715 3.00918 17.4959 2.98496 17.2477 3.12422Z" fill="#58003F"/>
<path d="M4.18032 22.578C3.84731 22.6809 3.51431 22.8928 3.28423 23.1592C2.69692 23.8313 2.69692 24.8485 3.28423 25.5205C3.65962 25.9504 4.03501 26.1139 4.71313 26.1442L5.27017 26.1684V27.3006C5.27017 28.9112 5.41548 29.3592 6.18442 30.1342C6.81411 30.7699 7.60122 31.0364 8.66079 30.9758C11.3188 30.8244 13.6256 29.1049 14.5338 26.6043C14.667 26.235 14.667 26.2289 14.9395 26.1926C15.2907 26.1442 15.8901 26.1502 16.1928 26.2047C16.4168 26.2471 16.429 26.2592 16.5924 26.7194C17.1374 28.2088 18.3543 29.5469 19.8438 30.2977C20.9579 30.8547 22.411 31.1211 23.3797 30.9395C24.1668 30.7942 25.0145 30.1826 25.4202 29.4803C25.7411 28.9112 25.8016 28.5963 25.8379 27.3188L25.8743 26.1563H26.2799C26.8793 26.1563 27.2426 26.0231 27.6301 25.6719C28.054 25.2844 28.2356 24.8848 28.2356 24.3399C28.2356 23.7949 28.054 23.3953 27.6301 23.0078C27.0549 22.4811 28.1145 22.5235 15.5086 22.5295C9.36313 22.5295 4.26509 22.5537 4.18032 22.578ZM5.30649 23.8676C5.28833 23.9463 5.27017 24.2188 5.27017 24.4852V24.9574L4.81001 24.9332C4.39224 24.9151 4.33169 24.8969 4.20454 24.7455C3.95024 24.4489 4.04712 23.9282 4.38618 23.7949C4.45278 23.7647 4.70103 23.7405 4.9311 23.7405C5.33071 23.7344 5.34282 23.7405 5.30649 23.8676ZM13.4379 23.8313C13.6862 24.0069 13.7467 24.2612 13.6862 24.8606C13.444 27.1735 11.8698 29.0201 9.6356 29.6196C9.3147 29.7043 8.96958 29.7467 8.47915 29.7528C7.8313 29.7588 7.75864 29.7467 7.47407 29.5953C7.11685 29.4076 6.75962 29.0323 6.59614 28.675C6.49321 28.4449 6.4811 28.2512 6.4811 26.2774C6.4811 23.9584 6.48716 23.9221 6.80806 23.7949C6.87466 23.7647 8.36411 23.7405 10.1139 23.7405C12.9596 23.7344 13.3108 23.7465 13.4379 23.8313ZM16.2049 23.8676C16.1868 23.9463 16.1686 24.2248 16.1686 24.4912V24.9756H15.5389H14.9092L14.9153 24.4912C14.9213 24.2248 14.9032 23.9463 14.8729 23.8676C14.8305 23.7344 14.8305 23.7344 15.5329 23.7344C16.2413 23.7344 16.2413 23.7344 16.2049 23.8676ZM24.3606 23.8615C24.6331 24.0735 24.6573 24.2793 24.6331 26.3985C24.6149 28.3178 24.6088 28.3723 24.4696 28.6871C24.2698 29.1352 23.7672 29.5772 23.3252 29.7043C22.6895 29.892 21.4483 29.7104 20.5522 29.3047C18.6874 28.4571 17.3795 26.4953 17.3795 24.5215C17.3795 24.0977 17.4704 23.8858 17.7065 23.7949C17.7731 23.7647 19.2686 23.7405 21.0184 23.7405C24.1426 23.7344 24.2092 23.7344 24.3606 23.8615ZM26.7583 23.8313C26.837 23.8858 26.9338 24.025 26.9823 24.134C27.0549 24.3096 27.0549 24.3701 26.9823 24.5457C26.8551 24.8485 26.6735 24.9453 26.2436 24.9453H25.8743L25.8319 24.4246C25.8077 24.1401 25.7713 23.8676 25.7532 23.8192C25.7047 23.686 26.5645 23.6981 26.7583 23.8313Z" fill="#58003F"/>
</g>
<defs>
<clipPath id="clip0_870_32758">
<rect width="31" height="31" fill="white"/>
</clipPath>
</defs>
</svg>
