<svg width="35" height="35" viewBox="0 0 35 35" fill="none" xmlns="http://www.w3.org/2000/svg">
<g clip-path="url(#clip0_870_32800)">
<path d="M17.4983 0.272515C17.5414 0.287165 17.5846 0.301815 17.6291 0.316908C18.5698 0.639316 19.3108 1.16057 20.0276 1.84478C20.0695 1.88161 20.1114 1.91845 20.1547 1.9564C21.1633 2.87716 21.8234 4.4566 21.8854 5.79798C21.8872 5.89211 21.8886 5.98625 21.8895 6.08039C21.8901 6.13158 21.8906 6.18277 21.8912 6.23551C21.8922 6.34363 21.8929 6.45175 21.8934 6.55988C21.8942 6.66803 21.8956 6.77618 21.8976 6.88432C21.9161 7.86791 21.824 8.85561 21.3435 9.73602C21.3198 9.78103 21.2961 9.82604 21.2717 9.87242C21.0585 10.2654 20.8108 10.6087 20.5061 10.9366C20.4743 10.9708 20.4424 11.0051 20.4097 11.0404C20.0214 11.4539 19.6181 11.8415 19.1688 12.1884C19.1326 12.2168 19.0965 12.2451 19.0592 12.2743C18.8754 12.414 18.7003 12.5221 18.4905 12.6197C18.2334 12.7455 18.0836 12.8271 17.9084 13.0557C17.8074 13.5484 17.8584 14.0629 17.9084 14.5596C18.2927 14.6408 18.6707 14.7089 19.062 14.7476C19.9456 14.8614 20.9735 15.1125 21.7365 15.585C21.9026 15.8341 21.8843 15.9755 21.8733 16.2686C22.3921 16.266 22.9108 16.2619 23.4296 16.256C23.6705 16.2533 23.9114 16.2511 24.1523 16.2501C24.4296 16.2488 24.7069 16.2454 24.9841 16.2419C25.1133 16.2418 25.1133 16.2418 25.2451 16.2417C25.8366 16.2411 25.8366 16.2411 26.3166 15.9268C26.5619 15.5704 26.6346 15.2258 26.6568 14.8005C26.6606 14.746 26.6644 14.6916 26.6683 14.6355C26.6804 14.4593 26.6908 14.2831 26.7011 14.1067C26.7092 13.9848 26.7173 13.8629 26.7255 13.741C26.742 13.4948 26.7578 13.2486 26.7729 13.0022C26.7934 12.6712 26.8154 12.3404 26.8381 12.0095C26.8704 11.538 26.9015 11.0664 26.9319 10.5948C26.616 10.5722 26.3002 10.5497 25.9748 10.5264C25.978 10.6211 25.9812 10.7159 25.9844 10.8135C25.987 10.9385 25.9895 11.0636 25.9919 11.1887C25.9942 11.251 25.9965 11.3133 25.9989 11.3776C26.0031 11.6704 26.0021 11.846 25.8541 12.1043C25.5662 12.3515 25.2424 12.3156 24.8773 12.3176C24.8241 12.318 24.7708 12.3184 24.7159 12.3188C24.6034 12.3195 24.4909 12.3199 24.3784 12.3202C24.2071 12.3209 24.0358 12.323 23.8645 12.3251C23.7549 12.3256 23.6454 12.3259 23.5358 12.3262C23.4595 12.3275 23.4595 12.3275 23.3817 12.3288C23.0561 12.3274 22.8292 12.2795 22.5569 12.0987C22.4157 11.8814 22.4026 11.7042 22.4014 11.4482C22.4007 11.3727 22.4001 11.2972 22.3994 11.2194C22.3995 11.0975 22.3995 11.0975 22.3996 10.9732C22.3993 10.8894 22.399 10.8056 22.3987 10.7193C22.3983 10.5422 22.3983 10.365 22.3986 10.1878C22.3988 9.91674 22.3972 9.64569 22.3954 9.37459C22.3953 9.20249 22.3952 9.03039 22.3953 8.85829C22.3947 8.77718 22.394 8.69606 22.3934 8.61249C22.394 8.49889 22.394 8.49889 22.3947 8.383C22.3946 8.31658 22.3946 8.25015 22.3946 8.18172C22.425 7.96231 22.496 7.83381 22.6252 7.65533C22.9083 7.48672 23.2061 7.49871 23.5267 7.50045C23.58 7.50032 23.6334 7.50019 23.6883 7.50005C23.8007 7.49996 23.9131 7.50021 24.0254 7.50078C24.1969 7.50152 24.3683 7.50079 24.5398 7.49992C24.6493 7.50001 24.7588 7.50018 24.8683 7.50045C24.9192 7.50017 24.9702 7.4999 25.0228 7.49961C25.3007 7.5021 25.5257 7.51701 25.7697 7.65533C25.9111 7.79929 25.9684 7.88526 25.9981 8.08531C25.997 8.14116 25.996 8.197 25.9948 8.25454C25.9942 8.31534 25.9935 8.37614 25.9928 8.43879C25.9911 8.50171 25.9894 8.56462 25.9876 8.62945C25.9867 8.69342 25.9858 8.7574 25.9848 8.82331C25.9824 8.98088 25.9787 9.13842 25.9748 9.29595C26.3358 9.29595 26.6967 9.29595 27.0686 9.29595C27.0622 9.13734 27.0622 9.13734 27.0558 8.97552C27.0558 8.68233 27.0786 8.50176 27.2736 8.27056C27.6121 8.04495 28.0174 8.11109 28.4138 8.11226C28.5674 8.11248 28.721 8.11088 28.8746 8.10914C28.9725 8.10899 29.0704 8.10894 29.1682 8.10901C29.2571 8.10881 29.346 8.1086 29.4376 8.10839C29.6754 8.13487 29.7694 8.17604 29.9397 8.33892C29.9497 8.29689 29.9598 8.25486 29.9701 8.21155C29.9854 8.1563 30.0008 8.10105 30.0166 8.04412C30.0308 7.9894 30.0451 7.93468 30.0598 7.8783C30.1831 7.65387 30.3189 7.61357 30.5549 7.51861C30.7483 7.49932 30.9259 7.48978 31.1189 7.49137C31.1719 7.49118 31.225 7.49098 31.2797 7.49078C31.3914 7.49064 31.5031 7.49101 31.6147 7.49187C31.7849 7.49297 31.9549 7.49188 32.125 7.49057C32.234 7.49071 32.3429 7.49097 32.4519 7.49137C32.5023 7.49096 32.5527 7.49054 32.6047 7.49011C32.9283 7.49448 33.1526 7.54948 33.426 7.72369C33.5806 7.95559 33.5805 8.03842 33.5826 8.31058C33.5834 8.38884 33.5843 8.4671 33.5852 8.54774C33.5854 8.67463 33.5854 8.67463 33.5857 8.80408C33.5861 8.89099 33.5866 8.97789 33.5871 9.06743C33.5877 9.25144 33.5881 9.43542 33.588 9.61942C33.588 9.85474 33.5899 10.09 33.5923 10.3253C33.5941 10.5502 33.5941 10.7752 33.5942 11.0001C33.5952 11.0844 33.5962 11.1688 33.5972 11.2556C33.5968 11.3343 33.5964 11.413 33.5959 11.4941C33.5961 11.5632 33.5963 11.6322 33.5965 11.7034C33.5537 11.9445 33.4563 12.0598 33.2893 12.2354C33.0382 12.3504 32.7378 12.3161 32.4652 12.3176C32.412 12.318 32.3587 12.3184 32.3038 12.3188C32.1913 12.3195 32.0788 12.3199 31.9663 12.3202C31.795 12.3209 31.6237 12.323 31.4524 12.3251C31.3428 12.3256 31.2332 12.3259 31.1237 12.3262C31.0474 12.3275 31.0474 12.3275 30.9696 12.3288C30.6388 12.3273 30.4329 12.2532 30.1447 12.0987C30.1443 12.1734 30.1439 12.2481 30.1435 12.3251C30.1396 13.0311 30.1346 13.737 30.1286 14.443C30.1256 14.8059 30.1229 15.1688 30.1211 15.5317C30.1193 15.8824 30.1165 16.2329 30.1131 16.5835C30.1119 16.7169 30.1112 16.8503 30.1107 16.9837C30.1072 17.9947 30.0749 18.8541 29.329 19.6166C28.5954 20.2492 27.4749 20.3487 26.5545 20.5443C26.4209 20.573 26.2873 20.6017 26.1537 20.6305C25.8051 20.7054 25.4564 20.7799 25.1076 20.8543C24.7505 20.9306 24.3936 21.0073 24.0366 21.0839C23.3384 21.2338 22.64 21.3832 21.9416 21.5323C21.9284 21.5841 21.9152 21.6359 21.9016 21.6893C21.8838 21.7571 21.866 21.825 21.8477 21.8949C21.8303 21.9622 21.8128 22.0296 21.7949 22.0989C21.7211 22.3333 21.616 22.4797 21.446 22.6559C21.3963 22.7094 21.3466 22.7629 21.2954 22.818C21.1485 22.9444 21.0434 23.0092 20.8738 23.0917C20.6403 23.2192 20.5623 23.3578 20.4859 23.6174C20.4742 23.6639 20.4626 23.7103 20.4505 23.7582C20.431 23.8252 20.431 23.8252 20.4111 23.8935C20.2294 24.5411 20.1389 25.1794 20.1429 25.8517C20.1432 25.9202 20.1436 25.9886 20.1439 26.0591C20.1531 26.6469 20.2251 27.1829 20.3694 27.753C20.3837 27.8191 20.3837 27.8191 20.3983 27.8865C20.5464 28.5664 20.8203 29.0349 21.2568 29.5741C22.5233 31.1407 22.9854 33.0256 23.1037 34.9991C22.6751 34.9991 22.2465 34.9991 21.8049 34.9991C21.7894 34.8003 21.7739 34.6015 21.7579 34.3967C21.6072 32.7969 21.0531 31.4768 20.1034 30.1902C20.0276 30.0772 20.0276 30.0772 19.8908 29.8038C17.4771 29.8038 15.0633 29.8038 12.5764 29.8038C12.5764 30.6159 12.5764 31.428 12.5764 32.2647C12.4397 32.5381 12.4397 32.5381 12.2346 32.6749C12.1028 32.6927 12.1028 32.6927 11.9521 32.6936C11.8955 32.6943 11.8389 32.6949 11.7806 32.6956C11.7197 32.6955 11.6589 32.6955 11.5961 32.6954C11.5019 32.6959 11.5019 32.6959 11.4059 32.6963C11.2731 32.6967 11.1403 32.6967 11.0075 32.6964C10.8043 32.6962 10.6012 32.6978 10.3981 32.6996C10.2691 32.6997 10.1401 32.6998 10.011 32.6997C9.95029 32.7003 9.88954 32.701 9.82696 32.7016C9.40725 32.6985 9.40725 32.6985 9.1863 32.5793C9.09005 32.4698 9.09005 32.4698 9.09005 32.3331C9.04494 32.3331 8.99982 32.3331 8.95334 32.3331C8.75136 33.2187 8.58638 34.098 8.47482 34.9991C8.06877 34.9991 7.66271 34.9991 7.24435 34.9991C7.29087 33.5337 7.59055 32.3097 8.20138 30.9659C7.14113 30.9659 6.08088 30.9659 4.98849 30.9659C4.98849 31.3945 4.98849 31.8231 4.98849 32.2647C4.85177 32.5381 4.85177 32.5381 4.6467 32.6749C4.51534 32.6936 4.51534 32.6936 4.36528 32.6958C4.30892 32.6969 4.25256 32.698 4.19448 32.6991C4.13381 32.6995 4.07314 32.6998 4.01063 32.7002C3.94801 32.7008 3.88538 32.7015 3.82086 32.7021C3.68835 32.7031 3.55584 32.7037 3.42334 32.7039C3.2209 32.7048 3.01862 32.7081 2.81621 32.7116C2.68742 32.7122 2.55862 32.7127 2.42982 32.713C2.36943 32.7144 2.30903 32.7157 2.24681 32.7171C1.97147 32.7151 1.80967 32.694 1.5665 32.5571C1.35546 32.2008 1.38642 31.851 1.39081 31.4444C1.39065 31.3577 1.39048 31.271 1.39031 31.1816C1.39038 30.9984 1.39112 30.8153 1.393 30.6321C1.39533 30.3978 1.39492 30.1637 1.39364 29.9294C1.39274 29.7052 1.39399 29.4811 1.39509 29.2569C1.39475 29.173 1.39441 29.0891 1.39406 29.0027C1.39568 28.8853 1.39568 28.8853 1.39734 28.7656C1.39776 28.6969 1.39819 28.6283 1.39862 28.5575C1.44353 28.3159 1.53667 28.2006 1.70724 28.0264C1.9686 27.9393 2.21612 27.9456 2.48857 27.9442C2.54513 27.9438 2.60168 27.9434 2.65995 27.943C2.77959 27.9424 2.89922 27.9419 3.01885 27.9416C3.20145 27.941 3.38399 27.9389 3.56656 27.9367C3.6829 27.9363 3.79923 27.9359 3.91557 27.9356C3.96998 27.9348 4.0244 27.9339 4.08046 27.9331C4.39398 27.9343 4.59761 27.9596 4.85177 28.1631C4.99779 28.3822 5.00504 28.4363 5.00184 28.6873C5.0014 28.7483 5.00096 28.8094 5.00051 28.8722C4.99936 28.9357 4.99822 28.9992 4.99704 29.0646C4.99642 29.1289 4.9958 29.1932 4.99517 29.2594C4.99356 29.4181 4.99111 29.5768 4.98849 29.7354C5.32687 29.7354 5.66525 29.7354 6.01388 29.7354C5.973 29.6142 5.93211 29.4929 5.88998 29.368C4.89022 25.9672 5.48429 21.8787 7.11311 18.7814C7.16772 18.677 7.22061 18.5717 7.27319 18.4663C7.69242 17.65 8.26535 16.9062 8.84839 16.201C8.96672 16.0556 8.96672 16.0556 9.06442 15.8328C9.29686 15.3891 9.82738 15.2749 10.2735 15.1321C10.335 15.1117 10.3965 15.0912 10.4598 15.0702C11.0011 14.8933 11.5377 14.7692 12.1021 14.6921C12.1791 14.6814 12.256 14.6707 12.3353 14.6598C12.5978 14.6252 12.8605 14.5925 13.1233 14.5596C13.1007 14.0633 13.0781 13.567 13.0549 13.0557C12.8519 12.988 12.8519 12.988 12.6447 12.919C12.464 13.0157 12.464 13.0157 12.3029 13.1796C10.8583 14.4505 8.95818 15.1619 7.03927 15.2005C6.98278 15.2023 6.92629 15.2041 6.86809 15.2059C6.46638 15.207 6.46638 15.207 6.25314 15.0451C6.08702 14.8123 6.07349 14.6808 6.07264 14.3966C6.07225 14.3184 6.07186 14.2402 6.07146 14.1597C6.07134 14.0303 6.07134 14.0303 6.07123 13.8984C6.07091 13.807 6.07057 13.7156 6.0702 13.6242C6.0693 13.3753 6.06886 13.1264 6.06856 12.8774C6.06836 12.7216 6.06808 12.5658 6.06777 12.41C6.06684 11.9217 6.06618 11.4334 6.06591 10.9451C6.06561 10.3831 6.06441 9.82113 6.06243 9.25912C6.06094 8.82393 6.06026 8.38874 6.06017 7.95354C6.0601 7.69408 6.0597 7.43464 6.05847 7.17518C6.05733 6.93032 6.0572 6.68547 6.0578 6.4406C6.05787 6.30951 6.05694 6.17842 6.05597 6.04733C6.06185 4.80294 6.40631 3.77505 7.17599 2.80181C7.22675 2.73132 7.27751 2.66082 7.3298 2.58819C7.78556 2.11172 8.29837 1.77112 8.89779 1.50726C8.94157 1.48796 8.98535 1.46867 9.03046 1.44879C9.56324 1.227 10.0387 1.14758 10.6151 1.17704C11.3112 1.2109 11.7335 1.18392 12.3011 0.762513C13.6954 -0.235989 15.9331 -0.285604 17.4983 0.272515ZM11.9611 2.52837C11.9093 2.57384 11.8575 2.61931 11.8041 2.66616C11.1167 3.30616 10.6066 4.14064 10.3889 5.05767C10.4114 5.12535 10.434 5.19302 10.4572 5.26275C10.5787 5.24068 10.5787 5.24068 10.7027 5.21817C11.4669 5.07949 12.2313 4.94165 12.9958 4.80465C13.3889 4.73419 13.7818 4.66343 14.1747 4.59199C14.554 4.52303 14.9334 4.45485 15.3129 4.38722C15.4575 4.36131 15.6021 4.33511 15.7466 4.30863C15.9493 4.27152 16.1523 4.23543 16.3552 4.19956C16.4146 4.18845 16.474 4.17733 16.5352 4.16588C17.0166 4.0826 17.4434 4.07922 17.8901 4.30854C17.9471 4.33727 18.0041 4.36601 18.0628 4.39562C18.1224 4.42666 18.1819 4.45771 18.2433 4.4897C18.3059 4.52147 18.3685 4.55323 18.4331 4.58596C18.6317 4.68688 18.8298 4.7889 19.0278 4.89105C19.2274 4.99323 19.4271 5.09519 19.6269 5.19686C19.751 5.26004 19.8748 5.32355 19.9985 5.38743C20.0542 5.41595 20.1099 5.44447 20.1673 5.47385C20.2409 5.5118 20.2409 5.5118 20.316 5.55051C20.4363 5.61379 20.4363 5.61379 20.5744 5.60455C20.4952 4.2837 19.7046 3.25233 18.7757 2.37884C16.8282 0.710511 13.8399 0.828588 11.9611 2.52837ZM10.2522 2.39166C9.14509 2.68664 8.31657 3.1721 7.72287 4.169C7.35445 4.89553 7.29195 5.65262 7.29719 6.45548C7.29717 6.53694 7.29715 6.61839 7.29713 6.70231C7.29721 6.92316 7.29789 7.144 7.29885 7.36485C7.29971 7.59658 7.29978 7.82831 7.29995 8.06004C7.30037 8.49774 7.30149 8.93543 7.30286 9.37312C7.3044 9.8719 7.30515 10.3707 7.30583 10.8694C7.30726 11.8944 7.30966 12.9194 7.31271 13.9444C7.47742 13.9232 7.64209 13.9018 7.80675 13.8803C7.85315 13.8744 7.89956 13.8684 7.94737 13.8623C9.18275 13.7002 10.3779 13.1476 11.3459 12.3721C11.4369 12.3035 11.5279 12.235 11.6194 12.167C11.5125 11.8908 11.3158 11.7285 11.0981 11.539C9.93229 10.4903 9.15827 9.17881 9.07028 7.58218C9.06196 7.34659 9.06117 7.11128 9.06332 6.87557C9.06442 6.7325 9.06332 6.58956 9.06202 6.44649C9.05981 5.05306 9.44288 3.6374 10.3205 2.52837C10.2867 2.4607 10.2867 2.4607 10.2522 2.39166ZM16.1657 5.43779C16.0696 5.45479 16.0696 5.45479 15.9715 5.47213C15.7607 5.50953 15.5499 5.54742 15.3391 5.58532C15.1925 5.61141 15.046 5.63746 14.8994 5.66348C14.5144 5.73195 14.1294 5.80084 13.7444 5.86982C13.3513 5.94018 12.9581 6.01013 12.5649 6.08012C11.7939 6.21743 11.023 6.35518 10.2522 6.49322C10.249 6.69822 10.2467 6.90317 10.245 7.10819C10.244 7.16552 10.243 7.22285 10.242 7.28191C10.2343 8.45916 10.715 9.38988 11.4826 10.253C11.5224 10.2985 11.5621 10.3439 11.6031 10.3908C12.5732 11.4284 13.9115 12.372 15.3639 12.4466C17.0117 12.4007 18.2138 11.4198 19.344 10.3213C19.4004 10.2666 19.4569 10.2119 19.5151 10.1555C20.2248 9.42184 20.6594 8.45224 20.6473 7.42515C20.6467 7.35264 20.646 7.28013 20.6453 7.20542C20.6441 7.12358 20.6441 7.12358 20.6428 7.04009C20.1641 6.79555 19.6848 6.5523 19.205 6.30994C19.0418 6.22743 18.8789 6.14446 18.7161 6.06127C18.482 5.94172 18.2473 5.82324 18.0126 5.70495C17.9399 5.66757 17.8673 5.63019 17.7924 5.59167C17.6898 5.54035 17.6898 5.54035 17.5851 5.48799C17.5253 5.45763 17.4655 5.42727 17.4039 5.39599C16.9971 5.24859 16.5791 5.36278 16.1657 5.43779ZM23.6506 8.74908C23.6506 9.51607 23.6506 10.2831 23.6506 11.0733C24.0115 11.0733 24.3725 11.0733 24.7444 11.0733C24.7444 10.3063 24.7444 9.53931 24.7444 8.74908C24.3834 8.74908 24.0225 8.74908 23.6506 8.74908ZM31.2385 8.74908C31.2385 9.51607 31.2385 10.2831 31.2385 11.0733C31.5994 11.0733 31.9604 11.0733 32.3322 11.0733C32.3322 10.3063 32.3322 9.53931 32.3322 8.74908C31.9713 8.74908 31.6104 8.74908 31.2385 8.74908ZM28.299 9.36431C28.2239 9.61516 28.2102 9.8614 28.1937 10.1221C28.189 10.1945 28.189 10.1945 28.1842 10.2684C28.1775 10.3732 28.1709 10.4779 28.1643 10.5827C28.1539 10.7496 28.1432 10.9165 28.1323 11.0833C28.1054 11.4985 28.079 11.9137 28.0527 12.3289C28.0306 12.6788 28.0082 13.0287 27.9854 13.3787C27.9749 13.5411 27.9648 13.7036 27.9547 13.8661C27.9229 14.3652 27.8838 14.8629 27.8264 15.3597C27.8165 15.445 27.8067 15.5303 27.7966 15.6182C27.691 16.1894 27.4195 16.7016 26.9508 17.0535C26.3708 17.4404 25.7998 17.4717 25.1177 17.4724C25.0236 17.4734 24.9296 17.4745 24.8355 17.4758C24.5903 17.4788 24.3451 17.4801 24.0999 17.4812C23.8487 17.4825 23.5976 17.4854 23.3465 17.4881C22.8554 17.4934 22.3644 17.4962 21.8733 17.4991C21.8733 18.4014 21.8733 19.3038 21.8733 20.2335C22.5641 20.1184 22.5641 20.1184 23.2497 19.9841C23.2991 19.9737 23.3485 19.9633 23.3993 19.9527C23.559 19.9191 23.7187 19.8852 23.8784 19.8513C23.991 19.8275 24.1036 19.8037 24.2163 19.7798C24.4508 19.7302 24.6852 19.6803 24.9196 19.6304C25.2191 19.5666 25.5187 19.5035 25.8183 19.4406C26.0503 19.3917 26.2822 19.3424 26.5141 19.2929C26.6246 19.2695 26.735 19.2462 26.8455 19.223C27 19.1907 27.1543 19.1577 27.3086 19.1245C27.3961 19.1059 27.4837 19.0874 27.5739 19.0682C27.9754 18.962 28.3421 18.8232 28.6408 18.5245C28.8868 18.0897 28.8738 17.6859 28.8692 17.1947C28.8692 17.1099 28.8693 17.0252 28.8693 16.9379C28.8692 16.7067 28.8681 16.4755 28.8667 16.2444C28.8654 16.0023 28.8653 15.7603 28.8651 15.5182C28.8644 15.0604 28.8627 14.6026 28.8607 14.1448C28.8584 13.6234 28.8573 13.102 28.8562 12.5806C28.8541 11.5085 28.8505 10.4364 28.8459 9.36431C28.6654 9.36431 28.485 9.36431 28.299 9.36431ZM14.3537 13.5342C14.3524 13.5818 14.351 13.6293 14.3496 13.6783C14.3431 13.8952 14.3356 14.1121 14.3281 14.3289C14.3249 14.4411 14.3249 14.4411 14.3217 14.5556C14.2946 15.3017 14.2946 15.3017 14.1486 15.585C13.919 15.7704 13.6088 15.7649 13.3241 15.7944C12.9451 15.8334 12.9451 15.8334 12.5764 15.9268C12.5764 16.2201 12.5764 16.5133 12.5764 16.8155C13.0164 16.9177 13.4565 17.0196 13.8968 17.1204C14.1527 17.179 14.4083 17.2384 14.6632 17.3009C14.743 17.3198 14.8227 17.3387 14.9049 17.3581C14.9705 17.3742 15.0362 17.3903 15.1038 17.407C15.7032 17.4758 16.3135 17.2866 16.8957 17.1565C17.0464 17.1229 17.1971 17.0897 17.3479 17.0566C17.8377 16.9529 17.8377 16.9529 18.3186 16.8155C18.3186 16.5222 18.3186 16.229 18.3186 15.9268C17.8027 15.7794 17.2774 15.7184 16.7463 15.6534C16.6711 15.4276 16.6638 15.2473 16.6563 15.0096C16.6535 14.9239 16.6506 14.8382 16.6476 14.7499C16.645 14.6603 16.6423 14.5707 16.6395 14.4784C16.6365 14.3872 16.6336 14.2959 16.6305 14.2046C16.6233 13.9812 16.6163 13.7577 16.6096 13.5342C16.477 13.5428 16.477 13.5428 16.3418 13.5516C15.6691 13.5921 15.0246 13.6078 14.3537 13.5342ZM10.7221 16.3028C10.6771 16.3191 10.6321 16.3354 10.5857 16.3522C10.4744 16.3925 10.3633 16.4331 10.2522 16.4737C10.2458 17.1363 10.241 17.7988 10.238 18.4614C10.2366 18.7691 10.2346 19.0767 10.2315 19.3844C10.2286 19.6814 10.2269 19.9783 10.2262 20.2753C10.2257 20.3885 10.2247 20.5018 10.2233 20.615C10.2213 20.7738 10.221 20.9324 10.2211 21.0912C10.2201 21.1379 10.2192 21.1846 10.2181 21.2327C10.2209 21.5553 10.2984 21.7161 10.5256 21.9424C11.0066 22.1956 11.5566 22.158 12.0851 22.1585C12.1661 22.1589 12.2471 22.1592 12.3305 22.1596C12.5518 22.1604 12.7732 22.1609 12.9945 22.1612C13.1331 22.1614 13.2717 22.1617 13.4102 22.162C13.8447 22.1629 14.2792 22.1636 14.7137 22.1638C15.2136 22.1642 15.7135 22.1653 16.2134 22.1673C16.601 22.1688 16.9885 22.1695 17.376 22.1696C17.607 22.1697 17.8379 22.1701 18.0689 22.1713C18.3269 22.1725 18.5848 22.1723 18.8428 22.1719C18.9183 22.1725 18.9939 22.1731 19.0717 22.1738C19.6015 22.171 20.0961 22.1237 20.5469 21.8246C20.6813 21.6065 20.679 21.4094 20.6738 21.161C20.6739 21.1103 20.6739 21.0596 20.674 21.0074C20.6738 20.8402 20.6716 20.673 20.6695 20.5058C20.669 20.3897 20.6686 20.2736 20.6683 20.1576C20.6673 19.8523 20.6646 19.5471 20.6616 19.2419C20.6588 18.9303 20.6575 18.6187 20.6561 18.3071C20.6532 17.696 20.6485 17.0848 20.6428 16.4737C20.5341 16.4289 20.4253 16.3845 20.3165 16.3402C20.2559 16.3154 20.1953 16.2906 20.1329 16.2651C19.9397 16.193 19.7541 16.1535 19.549 16.1319C19.5481 16.195 19.5481 16.195 19.5471 16.2593C19.5434 16.4505 19.5377 16.6415 19.5319 16.8326C19.531 16.8988 19.53 16.9649 19.529 17.0331C19.5268 17.097 19.5246 17.1609 19.5223 17.2267C19.5209 17.2854 19.5195 17.3441 19.518 17.4046C19.4664 17.6297 19.3926 17.7034 19.2072 17.8409C19.0269 17.8991 18.8604 17.943 18.6759 17.98C18.5979 17.9969 18.5979 17.9969 18.5184 18.0141C18.3523 18.0499 18.1859 18.0843 18.0195 18.1186C17.9103 18.1419 17.801 18.1652 17.6919 18.1887C17.4777 18.2346 17.2634 18.2796 17.0489 18.324C16.8578 18.3637 16.6674 18.4055 16.4773 18.4502C16.396 18.469 16.3147 18.4878 16.2309 18.5071C16.1615 18.5237 16.0921 18.5403 16.0206 18.5574C15.4246 18.6486 14.8851 18.5674 14.3009 18.438C14.2266 18.4219 14.1524 18.4059 14.0759 18.3893C13.9201 18.3554 13.7644 18.3212 13.6088 18.2866C13.3706 18.2338 13.132 18.183 12.8933 18.1322C12.7416 18.0989 12.5898 18.0656 12.4381 18.0321C12.3669 18.017 12.2956 18.002 12.2223 17.9865C12.1561 17.9715 12.0899 17.9564 12.0217 17.9409C11.9636 17.9282 11.9056 17.9154 11.8458 17.9023C11.65 17.8262 11.5486 17.7273 11.4143 17.5674C11.377 17.4046 11.377 17.4046 11.3726 17.2267C11.3704 17.1628 11.3682 17.0989 11.3659 17.0331C11.365 16.9669 11.364 16.9008 11.363 16.8326C11.361 16.7653 11.359 16.6981 11.3569 16.6288C11.352 16.4632 11.3484 16.2976 11.3459 16.1319C11.125 16.1319 10.9275 16.2276 10.7221 16.3028ZM8.95334 18.046C8.12618 19.3057 7.5198 20.6595 7.12472 22.1133C7.1056 22.1824 7.1056 22.1824 7.08609 22.2528C6.82309 23.2754 6.73319 24.2948 6.74286 25.3478C6.74448 25.5357 6.74426 25.7235 6.74381 25.9114C6.74578 27.1994 6.7954 28.5641 7.38107 29.7354C7.69689 29.7354 8.01271 29.7354 8.3381 29.7354C8.32823 29.6231 8.31836 29.5109 8.30819 29.3952C8.29536 29.2437 8.28254 29.0922 8.26974 28.9407C8.26322 28.8672 8.2567 28.7937 8.24998 28.718C8.17419 27.8085 8.19778 26.9072 8.25265 25.997C8.25556 25.9485 8.25847 25.9 8.26147 25.8501C8.35369 24.3604 8.54806 22.8848 9.0217 21.4639C9.02767 21.3517 9.02974 21.2393 9.02946 21.1269C9.02945 21.0585 9.02945 20.9901 9.02944 20.9196C9.02909 20.8459 9.02873 20.7722 9.02837 20.6962C9.02827 20.6206 9.02818 20.5451 9.02808 20.4672C9.0277 20.2255 9.02684 19.9838 9.02597 19.7421C9.02563 19.5784 9.02531 19.4147 9.02503 19.2509C9.02428 18.8493 9.02313 18.4476 9.0217 18.046C8.99914 18.046 8.97658 18.046 8.95334 18.046ZM9.84201 22.9678C9.72631 23.3941 9.65564 23.8162 9.59848 24.2538C9.58989 24.3168 9.5813 24.3798 9.57244 24.4446C9.54689 24.6358 9.52308 24.8271 9.50021 25.0186C9.49322 25.076 9.48623 25.1335 9.47903 25.1926C9.41658 25.776 9.42422 26.3597 9.42758 26.9455C9.42792 27.0507 9.42824 27.156 9.42851 27.2613C9.4292 27.5163 9.43054 27.7714 9.43185 28.0264C9.74767 28.0039 10.0635 27.9813 10.3889 27.9581C10.4334 27.7873 10.4775 27.6164 10.5213 27.4454C10.5338 27.3978 10.5463 27.3502 10.5591 27.3012C10.8496 26.1605 10.7819 24.9964 10.5256 23.8565C10.51 23.7849 10.4944 23.7132 10.4783 23.6394C10.3892 23.2874 10.3892 23.2874 10.1454 23.0276C9.98679 22.9601 9.98679 22.9601 9.84201 22.9678ZM11.6877 23.378C11.7273 23.6948 11.7681 23.9875 11.8287 24.2966C11.9892 25.341 11.9564 26.4324 11.7326 27.4638C11.6786 27.6917 11.6786 27.6917 11.6877 27.9581C11.7508 27.9669 11.7508 27.9669 11.8151 27.976C12.2713 28.0553 12.2713 28.0553 12.4397 28.2657C12.4735 28.3503 12.4735 28.3503 12.508 28.4366C12.5306 28.4817 12.5531 28.5268 12.5764 28.5733C14.7871 28.5733 16.9979 28.5733 19.2756 28.5733C19.1628 28.0093 19.05 27.4454 18.9338 26.8643C18.9084 26.5328 18.8898 26.2347 18.8996 25.9073C18.9012 25.7928 18.9012 25.7928 18.9028 25.676C18.9179 25.0519 19.006 24.4653 19.1389 23.8565C19.1614 23.6986 19.184 23.5407 19.2072 23.378C16.7258 23.378 14.2444 23.378 11.6877 23.378ZM2.66427 29.1885C2.66427 29.933 2.66427 30.6774 2.66427 31.4444C3.02521 31.4444 3.38615 31.4444 3.75802 31.4444C3.75802 30.7 3.75802 29.9555 3.75802 29.1885C3.39709 29.1885 3.03615 29.1885 2.66427 29.1885ZM10.2522 29.1885C10.2522 29.933 10.2522 30.6774 10.2522 31.4444C10.6131 31.4444 10.974 31.4444 11.3459 31.4444C11.3459 30.7 11.3459 29.9555 11.3459 29.1885C10.985 29.1885 10.624 29.1885 10.2522 29.1885Z" fill="#58003F"/>
</g>
<defs>
<clipPath id="clip0_870_32800">
<rect width="35" height="35" fill="white"/>
</clipPath>
</defs>
</svg>
