<svg width="19" height="21" viewBox="0 0 19 21" fill="none" xmlns="http://www.w3.org/2000/svg">
<path d="M9.4987 8.86654C8.65885 8.86654 7.85339 8.53291 7.25953 7.93904C6.66566 7.34518 6.33203 6.53972 6.33203 5.69987C6.33203 4.86002 6.66566 4.05456 7.25953 3.4607C7.85339 2.86683 8.65885 2.5332 9.4987 2.5332C10.3386 2.5332 11.144 2.86683 11.7379 3.4607C12.3317 4.05456 12.6654 4.86002 12.6654 5.69987C12.6654 6.53972 12.3317 7.34518 11.7379 7.93904C11.144 8.53291 10.3386 8.86654 9.4987 8.86654ZM9.4987 3.79987C8.44736 3.79987 7.5987 4.64854 7.5987 5.69987C7.5987 6.7512 8.44736 7.59987 9.4987 7.59987C10.55 7.59987 11.3987 6.7512 11.3987 5.69987C11.3987 4.64854 10.55 3.79987 9.4987 3.79987Z" fill="#2A2A2A"/>
<path d="M17.1 13.933C16.7453 13.933 16.4667 13.6543 16.4667 13.2996C16.4667 12.945 16.7453 12.6663 17.1 12.6663C17.4547 12.6663 17.7333 12.3876 17.7333 12.033C17.7333 11.1931 17.3997 10.3877 16.8058 9.79379C16.212 9.19992 15.4065 8.86629 14.5667 8.86629H13.3C12.9453 8.86629 12.6667 8.58763 12.6667 8.23296C12.6667 7.87829 12.9453 7.59963 13.3 7.59963C14.3513 7.59963 15.2 6.75096 15.2 5.69963C15.2 4.64829 14.3513 3.79963 13.3 3.79963C12.9453 3.79963 12.6667 3.52096 12.6667 3.16629C12.6667 2.81163 12.9453 2.53296 13.3 2.53296C14.1399 2.53296 14.9453 2.86659 15.5392 3.46045C16.133 4.05432 16.4667 4.85977 16.4667 5.69963C16.4667 6.48496 16.188 7.19429 15.7067 7.75163C17.594 8.25829 19 9.98096 19 12.033C19 13.0843 18.1513 13.933 17.1 13.933ZM1.9 13.933C0.848667 13.933 0 13.0843 0 12.033C0 9.98096 1.39333 8.25829 3.29333 7.75163C2.82467 7.19429 2.53333 6.48496 2.53333 5.69963C2.53333 4.85977 2.86696 4.05432 3.46083 3.46045C4.05469 2.86659 4.86015 2.53296 5.7 2.53296C6.05467 2.53296 6.33333 2.81163 6.33333 3.16629C6.33333 3.52096 6.05467 3.79963 5.7 3.79963C4.64867 3.79963 3.8 4.64829 3.8 5.69963C3.8 6.75096 4.64867 7.59963 5.7 7.59963C6.05467 7.59963 6.33333 7.87829 6.33333 8.23296C6.33333 8.58763 6.05467 8.86629 5.7 8.86629H4.43333C3.59348 8.86629 2.78803 9.19992 2.19416 9.79379C1.6003 10.3877 1.26667 11.1931 1.26667 12.033C1.26667 12.3876 1.54533 12.6663 1.9 12.6663C2.25467 12.6663 2.53333 12.945 2.53333 13.2996C2.53333 13.6543 2.25467 13.933 1.9 13.933ZM13.3 17.733H5.7C4.64867 17.733 3.8 16.8843 3.8 15.833V14.5663C3.8 12.1216 5.78867 10.133 8.23333 10.133H10.7667C13.2113 10.133 15.2 12.1216 15.2 14.5663V15.833C15.2 16.8843 14.3513 17.733 13.3 17.733ZM8.23333 11.3996C7.39348 11.3996 6.58803 11.7333 5.99416 12.3271C5.4003 12.921 5.06667 13.7264 5.06667 14.5663V15.833C5.06667 16.1876 5.34533 16.4663 5.7 16.4663H13.3C13.6547 16.4663 13.9333 16.1876 13.9333 15.833V14.5663C13.9333 13.7264 13.5997 12.921 13.0058 12.3271C12.412 11.7333 11.6065 11.3996 10.7667 11.3996H8.23333Z" fill="#2A2A2A"/>
</svg>
