<svg width="24" height="24" viewBox="0 0 24 24" fill="none" xmlns="http://www.w3.org/2000/svg">
<path d="M9.75 1.125V1.5H9.375H9V1.875V2.25H9.375H9.75V2.625V3H10.125H10.5V2.625V2.25H10.875H11.25V1.875V1.5H10.875H10.5V1.125V0.75H10.125H9.75V1.125ZM10.5 1.875V2.25H10.125H9.75V1.875V1.5H10.125H10.5V1.875Z" fill="url(#paint0_linear_870_123376)"/>
<path d="M12.877 1.55625C12.8348 1.58906 12.652 1.96406 12.4738 2.39062L12.1504 3.16406L11.5598 3.49219C11.2316 3.675 10.9457 3.85781 10.9176 3.89062C10.866 3.97969 10.866 4.27031 10.9176 4.35938C10.9457 4.39219 11.2316 4.575 11.5598 4.75781L12.1504 5.08594L12.4738 5.85937C12.652 6.28594 12.8348 6.66094 12.877 6.68906C12.9191 6.72187 13.0316 6.75 13.1254 6.75C13.2191 6.75 13.3316 6.72187 13.3738 6.68906C13.416 6.66094 13.5988 6.28594 13.777 5.85937L14.1004 5.08594L14.691 4.75781C15.0191 4.575 15.3051 4.39687 15.3285 4.35938C15.3566 4.32187 15.3754 4.21406 15.3754 4.125C15.3754 4.03594 15.3566 3.92812 15.3285 3.89062C15.3051 3.85312 15.0191 3.675 14.691 3.49219L14.1004 3.16406L13.777 2.39062C13.5988 1.96406 13.416 1.58906 13.3738 1.55625C13.3316 1.52812 13.2191 1.5 13.1254 1.5C13.0316 1.5 12.9191 1.52812 12.877 1.55625ZM13.2895 3.31406C13.4535 3.7125 13.5004 3.76406 13.8379 3.95156C13.9879 4.03125 14.1098 4.11094 14.1098 4.125C14.1098 4.13906 13.9879 4.21875 13.8379 4.29844C13.5004 4.48594 13.4535 4.5375 13.2895 4.93125C13.2191 5.10937 13.1441 5.25 13.1254 5.25C13.102 5.25 13.0316 5.10937 12.9613 4.93125C12.8066 4.54688 12.7598 4.49062 12.4129 4.29844C12.2629 4.21875 12.141 4.13906 12.141 4.125C12.141 4.11094 12.2629 4.03125 12.4129 3.95156C12.7598 3.75937 12.8066 3.70312 12.9613 3.31406C13.0316 3.14062 13.102 3 13.1254 3C13.1441 3 13.2191 3.14062 13.2895 3.31406Z" fill="url(#paint1_linear_870_123376)"/>
<path d="M18 1.875V2.25H18.375H18.75V1.875V1.5H18.375H18V1.875Z" fill="url(#paint2_linear_870_123376)"/>
<path d="M5.625 2.25V2.625H6H6.375V2.25V1.875H6H5.625V2.25Z" fill="url(#paint3_linear_870_123376)"/>
<path d="M6.85313 4.50937C6.53906 4.55625 6.28125 4.6875 6.04688 4.92188C5.76094 5.20781 5.65781 5.44687 5.63438 5.89219C5.61094 6.31875 5.68125 6.6 5.88281 6.89062L6 7.05937L5.99063 9.58594L5.97656 12.1125L5.21719 11.3766L4.4625 10.6359L4.48594 10.2656C4.51875 9.81562 4.43906 9.56719 4.19531 9.32812L4.03594 9.17344L4.18125 8.96719C4.42969 8.60156 4.51406 8.2875 4.49063 7.78125C4.46719 7.21875 4.33594 6.90937 3.96563 6.53437C3.66094 6.23438 3.32344 6.06562 2.91563 6.00937C2.28281 5.92031 1.71563 6.10781 1.28438 6.53437C0.932813 6.89062 0.782813 7.22344 0.759375 7.72969C0.73125 8.23594 0.80625 8.55 1.03125 8.89687L1.20938 9.17812L1.06875 9.30937C0.989063 9.38437 0.885938 9.52969 0.839063 9.63281C0.721875 9.88125 0.721875 10.3641 0.839063 10.6172C0.928125 10.8187 1.2375 11.1281 1.40156 11.1797L1.5 11.2078V16.125V21.0422L1.40156 21.0703C1.2375 21.1219 0.928125 21.4312 0.839063 21.6328C0.76875 21.7828 0.75 21.9422 0.75 22.4391C0.75 23.0016 0.759375 23.0719 0.84375 23.1562C0.932813 23.2453 0.998438 23.25 2.625 23.25C4.25156 23.25 4.31719 23.2453 4.40625 23.1562C4.49063 23.0719 4.5 23.0016 4.5 22.4391C4.5 21.9422 4.48125 21.7828 4.41094 21.6328C4.32188 21.4312 4.0125 21.1219 3.84844 21.0703L3.75 21.0422V17.0109V12.975L4.20938 13.3969C5.07656 14.1984 5.91563 14.7984 6.85781 15.2812C7.22813 15.4734 7.35 15.5578 7.33125 15.6094C6.99375 16.4953 4.875 22.7719 4.875 22.8937C4.875 23.0016 4.90781 23.0953 4.96875 23.1562C5.0625 23.25 5.12344 23.25 12 23.25C18.8766 23.25 18.9375 23.25 19.0312 23.1562C19.0922 23.0953 19.125 23.0016 19.125 22.8937C19.125 22.7719 17.0063 16.4953 16.6688 15.6094C16.65 15.5578 16.7719 15.4734 17.1422 15.2812C18.0844 14.7984 18.9234 14.1984 19.7953 13.3969L20.25 12.975V17.0109V21.0422L20.1516 21.0703C19.9875 21.1219 19.6781 21.4312 19.5891 21.6328C19.5188 21.7828 19.5 21.9422 19.5 22.4391C19.5 23.0016 19.5094 23.0719 19.5938 23.1562C19.6828 23.2453 19.7484 23.25 21.375 23.25C23.0016 23.25 23.0672 23.2453 23.1562 23.1562C23.2406 23.0719 23.25 23.0016 23.25 22.4391C23.25 21.9422 23.2313 21.7828 23.1609 21.6328C23.0719 21.4312 22.7625 21.1219 22.5984 21.0703L22.5 21.0422V16.125V11.2078L22.5984 11.1797C22.7625 11.1281 23.0719 10.8187 23.1609 10.6172C23.2781 10.3641 23.2781 9.88125 23.1609 9.63281C23.1141 9.52969 23.0109 9.38437 22.9313 9.30937L22.7859 9.17344L22.9313 8.96719C23.1797 8.60156 23.2641 8.2875 23.2406 7.78125C23.2266 7.425 23.1984 7.28437 23.1 7.06406C22.9406 6.72187 22.5563 6.3375 22.1953 6.15937C21.9328 6.03281 21.8766 6.02344 21.375 6.02344C20.8734 6.02344 20.8172 6.03281 20.5547 6.15937C20.1891 6.3375 19.8094 6.72187 19.6547 7.06406C19.5609 7.26562 19.5234 7.43437 19.5094 7.72969C19.4813 8.23594 19.5563 8.55 19.7812 8.89687L19.9594 9.17812L19.8 9.33281C19.5609 9.56719 19.4813 9.82031 19.5141 10.2656L19.5375 10.6359L18.7828 11.3766L18.0234 12.1125L18.0094 9.58594L18 7.05937L18.1172 6.89062C18.3188 6.6 18.3891 6.31875 18.3656 5.89219C18.3422 5.44687 18.2391 5.20781 17.9531 4.92188C17.6109 4.57969 17.1609 4.43906 16.6313 4.50937C16.1578 4.57031 15.7359 4.87031 15.5109 5.30625C15.2953 5.72344 15.3516 6.525 15.6141 6.8625L15.7031 6.97969L15.4453 7.19062C13.425 8.83594 10.575 8.83594 8.55469 7.19062L8.29688 6.97969L8.38594 6.8625C8.64844 6.525 8.70469 5.72344 8.48906 5.30625C8.35781 5.05312 8.07656 4.76719 7.83281 4.64062C7.58906 4.51875 7.17188 4.4625 6.85313 4.50937ZM7.49063 5.39062C8.1 5.76094 7.8375 6.70312 7.125 6.70312C6.72656 6.70312 6.42188 6.39844 6.42188 6C6.42188 5.74687 6.54844 5.52187 6.75938 5.39062C6.85313 5.33437 6.99844 5.29688 7.125 5.29688C7.25156 5.29688 7.39688 5.33437 7.49063 5.39062ZM17.2406 5.39062C17.85 5.76094 17.5875 6.70312 16.875 6.70312C16.4766 6.70312 16.1719 6.39844 16.1719 6C16.1719 5.60156 16.4766 5.29688 16.875 5.29688C17.0016 5.29688 17.1469 5.33437 17.2406 5.39062ZM3.0375 6.87187C3.75469 7.16719 3.93281 8.12344 3.37031 8.65781C2.68594 9.30469 1.55156 8.82656 1.54688 7.88437C1.54688 7.275 2.01094 6.80156 2.61563 6.79688C2.75156 6.79688 2.93906 6.82969 3.0375 6.87187ZM21.7875 6.87187C22.1859 7.03594 22.4531 7.43437 22.4531 7.875C22.4531 8.47969 21.9797 8.95312 21.375 8.95312C20.4281 8.95312 19.9406 7.81875 20.5922 7.12969C20.8922 6.81562 21.3938 6.70781 21.7875 6.87187ZM7.5 9.5625V11.625H7.125H6.75V9.5625V7.5H7.125H7.5V9.5625ZM17.25 9.5625V11.625H16.875H16.5V9.5625V7.5H16.875H17.25V9.5625ZM8.53594 8.18437C8.86875 8.40937 9.50625 8.72344 9.92813 8.87812C10.5938 9.11719 11.1516 9.20625 12 9.20625C12.8484 9.20625 13.4063 9.11719 14.0719 8.87812C14.4938 8.72344 15.1313 8.40937 15.4641 8.18437C15.6 8.09062 15.7219 8.01562 15.7313 8.01562C15.7406 8.01562 15.75 8.94844 15.75 10.0922C15.75 11.8125 15.7594 12.1875 15.8156 12.2625C15.8766 12.3422 15.9609 12.3516 16.7531 12.375L17.6203 12.3984L17.2453 12.6469C16.7812 12.9562 15.9563 13.3922 15.9188 13.3547C15.9 13.3359 15.7641 12.9703 15.6094 12.5344C15.4594 12.0984 15.3 11.7188 15.2531 11.6859C15.1313 11.5969 8.86875 11.5969 8.74688 11.6859C8.7 11.7188 8.54063 12.0984 8.39063 12.5344C8.23594 12.9703 8.1 13.3359 8.08594 13.3547C8.04375 13.3969 7.31719 13.0125 6.80625 12.675L6.35156 12.375H7.20938C8.00156 12.375 8.06719 12.3703 8.15625 12.2812C8.24531 12.1922 8.25 12.1266 8.25 10.1016C8.25 8.95312 8.25938 8.01562 8.26875 8.01562C8.27813 8.01562 8.4 8.09062 8.53594 8.18437ZM3.49219 9.81562C3.66563 9.89062 3.73594 10.0406 3.68438 10.2469C3.63281 10.4484 3.42188 10.5 2.625 10.5C1.82812 10.5 1.61719 10.4484 1.56563 10.2469C1.51875 10.0453 1.58438 9.89062 1.74844 9.82031C1.96406 9.72656 3.26719 9.72656 3.49219 9.81562ZM22.2422 9.81562C22.4156 9.89062 22.4859 10.0406 22.4344 10.2469C22.3828 10.4484 22.1719 10.5 21.375 10.5C20.5781 10.5 20.3672 10.4484 20.3156 10.2469C20.2688 10.0453 20.3344 9.89062 20.4984 9.82031C20.7141 9.72656 22.0172 9.72656 22.2422 9.81562ZM4.47188 11.7984C5.52656 12.825 6.24375 13.3547 7.30313 13.8937C8.25938 14.3766 9.16875 14.6766 10.3125 14.8922C10.9547 15.0094 13.0453 15.0094 13.6875 14.8922C14.8125 14.6812 15.7219 14.3812 16.6641 13.9078C17.7094 13.3875 18.4734 12.825 19.5234 11.8078C19.8656 11.475 20.1656 11.2031 20.1984 11.2031C20.2313 11.2031 20.25 11.3109 20.25 11.4984V11.7984L19.5094 12.525C18.4453 13.575 17.6438 14.1469 16.4391 14.7188C15.0281 15.3891 13.6125 15.7078 12 15.7078C10.3875 15.7078 8.97188 15.3891 7.56094 14.7188C6.35625 14.1469 5.55469 13.575 4.49063 12.525L3.75 11.7984V11.4984C3.75 11.3109 3.76875 11.2031 3.80156 11.2031C3.83438 11.2031 4.13438 11.4703 4.47188 11.7984ZM3 16.125V21H2.625H2.25V16.125V11.25H2.625H3V16.125ZM21.75 16.125V21H21.375H21V16.125V11.25H21.375H21.75V16.125ZM14.9109 12.9703C15.0188 13.3031 15.1172 13.5984 15.1266 13.6266C15.1547 13.7016 15.0141 13.7578 14.3438 13.9266C13.5516 14.1234 12.8813 14.2078 11.9953 14.2078C11.1234 14.2078 10.4766 14.1281 9.65625 13.9219C8.99063 13.7578 8.84531 13.7016 8.87344 13.6266C8.88281 13.5984 8.98125 13.3031 9.08906 12.9703L9.29063 12.375H12H14.7094L14.9109 12.9703ZM8.34844 15.9187C8.74219 16.0547 9.58594 16.2703 10.125 16.3687C10.8047 16.4906 12.5016 16.5375 13.2234 16.4578C13.9125 16.3781 14.7469 16.2047 15.3516 16.0125C15.6328 15.9234 15.8813 15.8625 15.8953 15.8812C15.9141 15.9 16.425 17.3672 17.0391 19.1484C17.6531 20.925 18.1641 22.4109 18.1734 22.4391C18.1922 22.4859 16.9406 22.5 12 22.5C7.05938 22.5 5.80781 22.4859 5.82656 22.4391C5.83594 22.4109 6.3375 20.9578 6.9375 19.2188C8.14688 15.7125 8.1 15.8437 8.12344 15.8437C8.1375 15.8437 8.23594 15.8766 8.34844 15.9187ZM3.46875 21.8016C3.64219 21.8625 3.75 22.0687 3.75 22.3359V22.5H2.625H1.5V22.3406C1.5 22.0781 1.59375 21.8859 1.75313 21.8156C1.93594 21.7359 3.24375 21.7266 3.46875 21.8016ZM22.2188 21.8016C22.3922 21.8625 22.5 22.0687 22.5 22.3359V22.5H21.375H20.25V22.3406C20.25 22.0781 20.3438 21.8859 20.5031 21.8156C20.6859 21.7359 21.9938 21.7266 22.2188 21.8016Z" fill="url(#paint4_linear_870_123376)"/>
<path d="M9.75 6V6.375H10.125H10.5V6V5.625H10.125H9.75V6Z" fill="url(#paint5_linear_870_123376)"/>
<defs>
<linearGradient id="paint0_linear_870_123376" x1="9" y1="1.875" x2="11.25" y2="1.875" gradientUnits="userSpaceOnUse">
<stop offset="0.3125" stop-color="#DC9750"/>
<stop offset="1" stop-color="#58003F"/>
</linearGradient>
<linearGradient id="paint1_linear_870_123376" x1="10.8789" y1="4.125" x2="15.3754" y2="4.125" gradientUnits="userSpaceOnUse">
<stop offset="0.3125" stop-color="#DC9750"/>
<stop offset="1" stop-color="#58003F"/>
</linearGradient>
<linearGradient id="paint2_linear_870_123376" x1="18" y1="1.875" x2="18.75" y2="1.875" gradientUnits="userSpaceOnUse">
<stop offset="0.3125" stop-color="#DC9750"/>
<stop offset="1" stop-color="#58003F"/>
</linearGradient>
<linearGradient id="paint3_linear_870_123376" x1="5.625" y1="2.25" x2="6.375" y2="2.25" gradientUnits="userSpaceOnUse">
<stop offset="0.3125" stop-color="#DC9750"/>
<stop offset="1" stop-color="#58003F"/>
</linearGradient>
<linearGradient id="paint4_linear_870_123376" x1="0.75" y1="13.8709" x2="23.25" y2="13.8709" gradientUnits="userSpaceOnUse">
<stop offset="0.3125" stop-color="#DC9750"/>
<stop offset="1" stop-color="#58003F"/>
</linearGradient>
<linearGradient id="paint5_linear_870_123376" x1="9.75" y1="6" x2="10.5" y2="6" gradientUnits="userSpaceOnUse">
<stop offset="0.3125" stop-color="#DC9750"/>
<stop offset="1" stop-color="#58003F"/>
</linearGradient>
</defs>
</svg>
