<svg width="22" height="22" viewBox="0 0 22 22" fill="none" xmlns="http://www.w3.org/2000/svg">
<path d="M8.81294 2.92017C7.35406 2.92017 5.1174 3.76213 5.89519 8.97613C5.90741 9.05496 5.92192 9.14006 5.93873 9.23142C6.08081 10.0156 6.2999 11.2298 4.90565 12.2308C5.85394 13.009 7.20465 13.7868 8.84594 14.1237C8.78099 14.4959 8.69963 14.865 8.6021 15.2301C8.46873 15.7196 8.18915 16.0665 7.68956 16.2146C7.24956 16.3448 6.78848 16.4502 6.3164 16.5583C6.19479 16.5858 6.07256 16.6139 5.94973 16.6427C5.36077 16.7797 4.76036 16.9314 4.22823 17.1459C3.69473 17.3613 3.19881 17.6515 2.8404 18.0841C2.47556 18.5255 2.28031 19.0819 2.29361 19.7777C2.29819 19.994 2.48336 20.1673 2.71069 20.1673H19.2923C19.5196 20.1673 19.7048 19.994 19.7094 19.7777C19.7226 19.0819 19.5279 18.5255 19.1626 18.0841C18.8046 17.6515 18.3082 17.3609 17.7752 17.1459C17.2426 16.931 16.6422 16.7793 16.0528 16.6422L15.687 16.5583C15.2145 16.4502 14.7534 16.3448 14.3134 16.2146C13.8138 16.0665 13.5342 15.7196 13.4009 15.2301C13.2843 14.7955 13.1916 14.3548 13.1231 13.9101C14.378 13.5324 15.7118 12.8536 17.0973 11.7697L17.0909 11.7633C16.4405 11.1408 15.2214 9.97392 15.1347 7.20375C15.1347 3.3895 12.7028 0.0372512 8.81294 2.92017Z" stroke="#58003F" stroke-width="1.4" stroke-linejoin="round"/>
</svg>
