<svg width="24" height="24" viewBox="0 0 24 24" fill="none" xmlns="http://www.w3.org/2000/svg">
<path d="M11.9993 3.60039C11.3628 3.60039 10.7523 3.85325 10.3022 4.30333C9.85215 4.75342 9.59929 5.36387 9.59929 6.00039C9.59929 6.63691 9.85215 7.24736 10.3022 7.69745C10.7523 8.14753 11.3628 8.40039 11.9993 8.40039C12.6358 8.40039 13.2463 8.14753 13.6963 7.69745C14.1464 7.24736 14.3993 6.63691 14.3993 6.00039C14.3993 5.36387 14.1464 4.75342 13.6963 4.30333C13.2463 3.85325 12.6358 3.60039 11.9993 3.60039ZM8.39929 6.00039C8.39929 5.04561 8.77857 4.12994 9.45371 3.45481C10.1288 2.77968 11.0445 2.40039 11.9993 2.40039C12.9541 2.40039 13.8697 2.77968 14.5449 3.45481C15.22 4.12994 15.5993 5.04561 15.5993 6.00039C15.5993 6.95517 15.22 7.87084 14.5449 8.54598C13.8697 9.22111 12.9541 9.60039 11.9993 9.60039C11.0445 9.60039 10.1288 9.22111 9.45371 8.54598C8.77857 7.87084 8.39929 6.95517 8.39929 6.00039ZM6.06289 11.9956C6.02209 12.1908 6.00169 12.3924 6.00169 12.6004V13.2544L2.84449 14.1004C2.69078 14.1415 2.55968 14.2419 2.48002 14.3796C2.40036 14.5174 2.37866 14.6811 2.41969 14.8348L3.19609 17.7328C3.42388 18.5815 3.95424 19.3176 4.6872 19.8023C5.42017 20.2871 6.30513 20.487 7.17529 20.3644C7.45129 20.7364 7.76929 21.0772 8.12209 21.376L7.91689 21.436C7.30798 21.5993 6.67285 21.6411 6.04778 21.559C5.42272 21.4768 4.81996 21.2723 4.27393 20.9572C3.72791 20.642 3.24931 20.2224 2.86547 19.7223C2.48164 19.2222 2.20008 18.6513 2.03689 18.0424L1.26049 15.1444C1.19934 14.916 1.18376 14.6779 1.21465 14.4435C1.24554 14.2092 1.32229 13.9832 1.44052 13.7785C1.55875 13.5738 1.71614 13.3944 1.90371 13.2505C2.09128 13.1066 2.30534 13.0011 2.53369 12.94L6.06289 11.9956ZM18.0017 13.2544V12.6004C18.0009 12.3924 17.9809 12.1908 17.9417 11.9956L21.4697 12.9412C21.9306 13.0649 22.3236 13.3666 22.5621 13.78C22.8006 14.1934 22.8652 14.6846 22.7417 15.1456L21.9653 18.0436C21.7974 18.6698 21.5044 19.2555 21.104 19.7654C20.7036 20.2752 20.2041 20.6987 19.6355 21.0102C19.067 21.3218 18.4412 21.5149 17.796 21.5779C17.1507 21.641 16.4994 21.5727 15.8813 21.3772C16.2357 21.0764 16.5513 20.7392 16.8281 20.3656C17.6982 20.4878 18.583 20.2876 19.3158 19.8026C20.0485 19.3177 20.5786 18.5815 20.8061 17.7328L21.5837 14.8348C21.6247 14.6811 21.603 14.5174 21.5234 14.3796C21.4437 14.2419 21.3126 14.1415 21.1589 14.1004L18.0017 13.2544ZM17.9993 7.80039C17.9993 7.323 18.1889 6.86516 18.5265 6.5276C18.8641 6.19003 19.3219 6.00039 19.7993 6.00039C20.2767 6.00039 20.7345 6.19003 21.0721 6.5276C21.4096 6.86516 21.5993 7.323 21.5993 7.80039C21.5993 8.27778 21.4096 8.73562 21.0721 9.07318C20.7345 9.41075 20.2767 9.60039 19.7993 9.60039C19.3219 9.60039 18.8641 9.41075 18.5265 9.07318C18.1889 8.73562 17.9993 8.27778 17.9993 7.80039ZM19.7993 4.80039C19.0036 4.80039 18.2406 5.11646 17.678 5.67907C17.1154 6.24168 16.7993 7.00474 16.7993 7.80039C16.7993 8.59604 17.1154 9.3591 17.678 9.92171C18.2406 10.4843 19.0036 10.8004 19.7993 10.8004C20.5949 10.8004 21.358 10.4843 21.9206 9.92171C22.4832 9.3591 22.7993 8.59604 22.7993 7.80039C22.7993 7.00474 22.4832 6.24168 21.9206 5.67907C21.358 5.11646 20.5949 4.80039 19.7993 4.80039ZM4.19929 6.00039C3.7219 6.00039 3.26406 6.19003 2.9265 6.5276C2.58893 6.86516 2.39929 7.323 2.39929 7.80039C2.39929 8.27778 2.58893 8.73562 2.9265 9.07318C3.26406 9.41075 3.7219 9.60039 4.19929 9.60039C4.67668 9.60039 5.13452 9.41075 5.47208 9.07318C5.80965 8.73562 5.99929 8.27778 5.99929 7.80039C5.99929 7.323 5.80965 6.86516 5.47208 6.5276C5.13452 6.19003 4.67668 6.00039 4.19929 6.00039ZM1.19929 7.80039C1.19929 7.00474 1.51536 6.24168 2.07797 5.67907C2.64058 5.11646 3.40364 4.80039 4.19929 4.80039C4.99494 4.80039 5.758 5.11646 6.32061 5.67907C6.88322 6.24168 7.19929 7.00474 7.19929 7.80039C7.19929 8.59604 6.88322 9.3591 6.32061 9.92171C5.758 10.4843 4.99494 10.8004 4.19929 10.8004C3.40364 10.8004 2.64058 10.4843 2.07797 9.92171C1.51536 9.3591 1.19929 8.59604 1.19929 7.80039ZM8.99929 10.8004C8.5219 10.8004 8.06406 10.99 7.7265 11.3276C7.38893 11.6652 7.19929 12.123 7.19929 12.6004V16.8004C7.19929 18.0734 7.705 19.2943 8.60518 20.1945C9.50535 21.0947 10.7263 21.6004 11.9993 21.6004C13.2723 21.6004 14.4932 21.0947 15.3934 20.1945C16.2936 19.2943 16.7993 18.0734 16.7993 16.8004V12.6004C16.7993 12.123 16.6096 11.6652 16.2721 11.3276C15.9345 10.99 15.4767 10.8004 14.9993 10.8004H8.99929ZM8.39929 12.6004C8.39929 12.4413 8.4625 12.2886 8.57503 12.1761C8.68755 12.0636 8.84016 12.0004 8.99929 12.0004H14.9993C15.1584 12.0004 15.311 12.0636 15.4236 12.1761C15.5361 12.2886 15.5993 12.4413 15.5993 12.6004V16.8004C15.5993 17.7552 15.22 18.6708 14.5449 19.346C13.8697 20.0211 12.9541 20.4004 11.9993 20.4004C11.0445 20.4004 10.1288 20.0211 9.45371 19.346C8.77857 18.6708 8.39929 17.7552 8.39929 16.8004V12.6004Z" fill="#DC9750"/>
</svg>
