<svg width="22" height="22" viewBox="0 0 22 22" fill="none" xmlns="http://www.w3.org/2000/svg">
<path d="M8.02911 0.0626397C7.29578 0.241501 6.78602 0.702071 6.5222 1.41305C6.44171 1.63215 6.4283 1.77524 6.42383 2.28053C6.42383 2.8037 6.44171 2.94231 6.54456 3.33134C6.69659 3.88581 7.06326 4.65492 7.4344 5.19597C7.80554 5.7415 8.53887 6.49719 9.12464 6.93988C9.69253 7.36467 10.7478 7.91467 11.0027 7.91467C11.2576 7.91467 12.3129 7.36467 12.8807 6.93988C13.4665 6.49719 14.1998 5.7415 14.571 5.19597C15.5592 3.75166 15.8633 2.16427 15.3535 1.11792C15.2864 0.983778 15.121 0.760201 14.9868 0.621583C14.5531 0.187843 14.021 3.8147e-05 13.2385 3.8147e-05C12.4381 3.8147e-05 11.8255 0.232558 11.271 0.746786L11.0027 0.992721L10.7344 0.746786C10.171 0.223615 9.56285 -0.00443363 8.74456 0.00450945C8.47627 0.00450945 8.15432 0.0313387 8.02911 0.0626397ZM9.56285 0.706542C10.0368 0.889875 10.408 1.17605 10.6897 1.58744C10.8149 1.7663 10.8462 1.78866 11.0027 1.78866C11.1592 1.78866 11.1905 1.7663 11.3068 1.59638C11.6198 1.14923 12.0848 0.809388 12.6124 0.652884C12.8986 0.563453 13.5515 0.55451 13.8287 0.630526C14.8706 0.907762 15.2596 1.88703 14.8706 3.24638C14.419 4.82036 13.073 6.33622 11.4185 7.1411L10.9982 7.34679L10.4974 7.09191C8.74009 6.20654 7.39415 4.56549 7.04984 2.89313C6.83521 1.85573 7.13928 1.07768 7.88602 0.733371C8.33318 0.532152 9.06651 0.518737 9.56285 0.706542Z" fill="black"/>
<path d="M10.5841 9.20284C9.95813 9.98089 9.46626 10.8797 9.15325 11.841L8.96098 12.4268L8.71504 12.1809C8.17846 11.6264 7.35569 11.063 6.5061 10.6606C5.67886 10.2715 5.42846 10.2224 5.32114 10.4191C5.21829 10.6114 5.13333 11.3984 5.13333 12.1406C5.13333 12.8382 5.20041 13.4419 5.34797 14.135L5.3748 14.2512L4.93211 14.1618C4.56098 14.0813 4.32398 14.0679 3.42073 14.0679C2.29837 14.0634 1.79309 14.1171 1.64553 14.2512C1.53374 14.3541 1.54715 14.5329 1.69919 14.9264C2.0122 15.7358 2.55325 16.6256 3.15244 17.3187C3.34024 17.5378 3.4878 17.7211 3.47886 17.7256C3.46992 17.7301 3.23293 17.8106 2.94675 17.9C2.05691 18.1817 0.988211 18.7675 0.281707 19.3577C0.0357724 19.5589 0 19.6081 0 19.7423C0 19.9211 0.11626 20.0419 0.684146 20.4488C2.27154 21.589 4.0378 22.0943 6.0813 21.9959C7.70894 21.9154 9.30528 21.3163 10.678 20.2699L11.0045 20.0195L11.2593 20.2207C12.6276 21.2894 14.2732 21.9154 15.9187 21.9959C17.9622 22.0943 19.7285 21.589 21.3159 20.4488C21.8837 20.0419 22 19.9211 22 19.7423C22 19.6081 21.9642 19.5589 21.7228 19.3577C21.0163 18.7675 19.9654 18.1951 19.0622 17.9C18.7715 17.8106 18.5301 17.7301 18.5211 17.7256C18.5122 17.7211 18.6598 17.5378 18.8476 17.3187C19.0354 17.1041 19.3171 16.7329 19.4736 16.5004C19.9341 15.8118 20.435 14.7431 20.435 14.448C20.435 14.1394 20.0593 14.0634 18.5793 14.0679C17.676 14.0679 17.4346 14.0813 17.0724 14.1573C16.8309 14.211 16.6341 14.2378 16.6341 14.2244C16.6341 14.211 16.6744 13.9919 16.7236 13.737C16.9024 12.8203 16.9203 11.5683 16.7638 10.7545C16.6789 10.2894 16.5984 10.2313 16.2183 10.3565C15.2927 10.6561 13.9691 11.4789 13.285 12.1809L13.039 12.4268L12.8512 11.8545C12.5337 10.8931 12.1089 10.1016 11.4606 9.26544C11.1923 8.92113 11.1654 8.89877 11.0045 8.89877C10.8435 8.89877 10.8122 8.92113 10.5841 9.20284ZM11.3756 10.1642C12.9138 12.4715 13.1106 15.387 11.8943 17.8642C11.7065 18.2488 11.2951 18.9106 11.0671 19.2012C10.9866 19.3085 11.0045 19.3264 10.5931 18.7138C8.88049 16.1516 8.88943 12.7667 10.6244 10.1642C10.8077 9.88698 10.9776 9.65894 11 9.65894C11.0224 9.65894 11.1923 9.88698 11.3756 10.1642ZM6.35854 11.2419C7.2126 11.6667 8.19634 12.4 8.6435 12.941L8.81341 13.1467L8.75528 13.813C8.7061 14.4524 8.73293 15.1142 8.84024 15.8923L8.8626 16.0622L8.6122 15.8565C8.01301 15.3691 7.21707 14.9041 6.49268 14.6179C6.00081 14.4256 6.0187 14.4569 5.8622 13.6967C5.72805 13.0484 5.67439 12.2345 5.72358 11.6264C5.74593 11.3447 5.76829 11.0854 5.76829 11.0541C5.76829 10.9602 5.8622 10.9915 6.35854 11.2419ZM16.2362 11.0764C16.2362 11.1211 16.2541 11.376 16.2764 11.6488C16.3211 12.2345 16.2675 13.0707 16.1378 13.6967C15.9813 14.4569 15.9992 14.4256 15.5073 14.6179C14.7829 14.9041 13.987 15.3691 13.3878 15.8565L13.1374 16.0622L13.1598 15.8923C13.2626 15.1455 13.2939 14.4077 13.2402 13.7906L13.1866 13.1467L13.3341 12.9634C13.7455 12.4447 14.7919 11.6667 15.6415 11.2419C16.1646 10.978 16.2317 10.9602 16.2362 11.0764ZM4.56098 14.6939C6.17967 14.9398 7.73577 15.7358 8.85813 16.8894C9.11748 17.1532 9.2248 17.3008 9.30081 17.5065C9.51992 18.0744 9.91341 18.8032 10.2533 19.2638C10.3472 19.398 10.4142 19.5142 10.4008 19.5321C10.3427 19.5902 9.43496 19.6171 8.89837 19.5768C7.53455 19.4784 6.29146 19.0492 5.09756 18.2532C4.46707 17.8374 3.56829 16.9565 3.11667 16.3215C2.82602 15.9102 2.2 14.7341 2.24472 14.685C2.28943 14.6447 3.28659 14.591 3.71138 14.6134C3.9439 14.6224 4.32846 14.6581 4.56098 14.6939ZM19.165 14.6224C19.478 14.6492 19.7463 14.6805 19.7553 14.6894C19.8 14.7341 19.1606 15.928 18.8833 16.3215C18.4317 16.9565 17.5329 17.8374 16.9024 18.2532C15.7085 19.0492 14.4654 19.4784 13.1016 19.5768C12.5561 19.6171 11.6573 19.5902 11.5992 19.5276C11.5858 19.5142 11.6305 19.4248 11.7065 19.3309C12.0016 18.9553 12.4756 18.0789 12.6992 17.5065C12.7797 17.3008 12.8825 17.1532 13.1642 16.8671C14.4386 15.5569 16.3033 14.7207 18.1992 14.6089C18.3333 14.6 18.4764 14.591 18.5167 14.5866C18.5569 14.5821 18.8476 14.6 19.165 14.6224ZM4.34187 18.4455C5.0752 19.0134 5.94268 19.4695 6.84593 19.7691C7.62846 20.024 8.22317 20.1268 9.06829 20.1537L9.79715 20.1805L9.5378 20.337C7.67764 21.4638 5.27642 21.7366 3.1748 21.0569C2.41911 20.811 1.10447 20.1134 0.831707 19.8138C0.755691 19.7289 0.764634 19.7199 0.997154 19.55C1.73943 19 2.66504 18.5573 3.57724 18.3158C3.80976 18.2532 4.0065 18.2041 4.01098 18.1996C4.01992 18.1996 4.16748 18.3114 4.34187 18.4455ZM18.5793 18.365C19.3707 18.5797 20.3232 19.0447 20.985 19.5321C21.1236 19.6394 21.2398 19.7378 21.2398 19.7557C21.2398 19.8272 20.2561 20.4398 19.7642 20.6768C18.5435 21.2581 17.287 21.4996 15.9321 21.4146C14.7472 21.3386 13.4504 20.9362 12.4622 20.337L12.2028 20.1805L12.9541 20.1537C14.139 20.1134 15.1183 19.8675 16.2093 19.3398C16.6967 19.1073 17.4927 18.602 17.7967 18.3427C17.9711 18.1906 17.9488 18.1906 18.5793 18.365Z" fill="black"/>
</svg>
