<svg width="24" height="24" viewBox="0 0 28 28" fill="none" xmlns="http://www.w3.org/2000/svg">
<path d="M14.0013 3.79297C14.2334 3.79297 14.4559 3.88516 14.62 4.04925C14.7841 4.21334 14.8763 4.4359 14.8763 4.66797C14.8763 4.90003 14.7841 5.12259 14.62 5.28669C14.4559 5.45078 14.2334 5.54297 14.0013 5.54297C11.758 5.54297 9.6066 6.43411 8.02036 8.02036C6.43411 9.6066 5.54297 11.758 5.54297 14.0013C5.54297 16.2446 6.43411 18.396 8.02036 19.9822C9.6066 21.5685 11.758 22.4596 14.0013 22.4596C14.2334 22.4596 14.4559 22.5518 14.62 22.7159C14.7841 22.88 14.8763 23.1026 14.8763 23.3346C14.8763 23.5667 14.7841 23.7893 14.62 23.9534C14.4559 24.1174 14.2334 24.2096 14.0013 24.2096C11.2939 24.2096 8.69735 23.1341 6.78292 21.2197C4.86849 19.3052 3.79297 16.7087 3.79297 14.0013C3.79297 11.2939 4.86849 8.69735 6.78292 6.78292C8.69735 4.86849 11.2939 3.79297 14.0013 3.79297Z" fill="#C80000"/>
<path d="M19.2163 11.1199C19.0617 10.9541 18.9776 10.7347 18.9816 10.508C18.9856 10.2813 19.0774 10.065 19.2377 9.90472C19.3981 9.7444 19.6143 9.65257 19.841 9.64857C20.0677 9.64457 20.2871 9.72872 20.453 9.88328L23.953 13.3833C24.1168 13.5473 24.2089 13.7697 24.2089 14.0016C24.2089 14.2335 24.1168 14.4559 23.953 14.6199L20.453 18.1199C20.3729 18.2059 20.2763 18.2749 20.1689 18.3227C20.0616 18.3705 19.9457 18.3962 19.8282 18.3983C19.7108 18.4004 19.5941 18.3788 19.4851 18.3348C19.3762 18.2907 19.2772 18.2252 19.1941 18.1422C19.111 18.0591 19.0455 17.9601 19.0015 17.8511C18.9575 17.7422 18.9359 17.6255 18.9379 17.508C18.94 17.3905 18.9657 17.2746 19.0136 17.1673C19.0614 17.06 19.1303 16.9634 19.2163 16.8833L21.223 14.8766H11.668C11.4359 14.8766 11.2133 14.7844 11.0493 14.6203C10.8852 14.4562 10.793 14.2337 10.793 14.0016C10.793 13.7695 10.8852 13.547 11.0493 13.3829C11.2133 13.2188 11.4359 13.1266 11.668 13.1266H21.223L19.2163 11.1199Z" fill="#C80000"/>
</svg>
