<svg width="24" height="24" viewBox="0 0 24 24" fill="none" xmlns="http://www.w3.org/2000/svg">
<g clip-path="url(#clip0_870_101107)">
<path d="M9.35625 0.0515633C8.81719 0.178126 8.20312 0.684376 7.91719 1.24219C7.69219 1.67344 7.62187 1.99219 7.65469 2.41406L7.67812 2.75625L7.01719 2.775C6.45937 2.78906 6.31406 2.80781 6.13125 2.89219C5.82187 3.03281 5.50781 3.34219 5.35781 3.65156C5.23125 3.90469 5.22656 3.94219 5.22656 4.61719C5.22656 5.2875 5.23125 5.33438 5.35312 5.57813C5.52187 5.925 5.82656 6.21094 6.16875 6.35156L6.44531 6.46406L6.46875 10.1109L6.49219 13.7578L6.62344 14.0063C6.79687 14.3344 7.07812 14.6063 7.40156 14.7609L7.66406 14.8828H12.3984H17.1328L17.4047 14.7469C17.8734 14.5078 18.1781 14.0953 18.2766 13.5703C18.3094 13.3875 18.3281 12.1453 18.3281 9.87188V6.44531L18.5203 6.38438C18.975 6.24375 19.3875 5.80313 19.5 5.33438C19.5328 5.20313 19.5516 4.86563 19.5375 4.49063C19.5234 3.94688 19.5094 3.83906 19.4109 3.6375C19.2656 3.34219 19.0078 3.08438 18.6937 2.92031C18.4641 2.80313 18.3937 2.79375 17.7656 2.775L17.0859 2.75625V2.23125C17.0859 1.72969 17.0812 1.69688 16.9172 1.35938C16.3828 0.234376 15.1828 -0.285936 14.2266 0.182814C13.8 0.393751 13.5984 0.614063 12.9516 1.56094L12.3844 2.39531L11.8312 1.58438C11.5266 1.13906 11.2078 0.698439 11.1187 0.6C10.6875 0.121876 9.98906 -0.093749 9.35625 0.0515633ZM10.2562 1.0875C10.3734 1.16719 10.5984 1.44844 10.9266 1.92656C11.1984 2.325 11.4375 2.67656 11.4562 2.70469C11.4844 2.75156 11.1984 2.76563 10.1016 2.76563H8.71406L8.64375 2.60156C8.41406 2.05313 8.83594 1.24688 9.48281 0.998438C9.70781 0.909376 10.0453 0.951563 10.2562 1.0875ZM15.4875 1.09688C16.0125 1.40625 16.3031 2.1 16.1203 2.62031L16.0687 2.76563H14.6672H13.2656L13.7203 2.09531C14.2266 1.35 14.3859 1.15781 14.625 1.02656C14.8453 0.904688 15.2109 0.932814 15.4875 1.09688ZM18.45 3.9L18.6094 4.07813V4.61719V5.15625L18.45 5.33438L18.2906 5.50781L15.2391 5.53125L12.1875 5.55469L12.0609 5.68125C11.8687 5.87344 11.8781 6.15 12.0844 6.33281L12.2344 6.46875H14.8125H17.3906L17.3812 9.97031C17.3672 13.3781 17.3625 13.4813 17.2734 13.6359C17.2219 13.7203 17.1047 13.8328 17.0156 13.8797C16.8609 13.9641 16.6547 13.9688 12.3844 13.9688C7.5375 13.9688 7.8 13.9828 7.54687 13.7109L7.42969 13.5844L7.41562 10.0266L7.40625 6.46875H7.8C8.25469 6.46875 8.39062 6.42188 8.50312 6.225C8.61562 6.0375 8.56875 5.80781 8.38594 5.65313C8.24531 5.53125 8.23594 5.53125 7.41562 5.53125C6.66562 5.53125 6.57187 5.52188 6.43125 5.4375C6.21562 5.30625 6.14062 5.09531 6.14062 4.61719C6.14062 4.13906 6.21562 3.92813 6.43125 3.79688C6.58594 3.70313 6.63281 3.70313 12.4359 3.7125L18.2906 3.72656L18.45 3.9Z" fill="url(#paint0_linear_870_101107)"/>
<path d="M10.0087 5.58422C9.59618 5.8186 9.69462 6.39516 10.154 6.4561C10.3227 6.47954 10.3696 6.46079 10.5056 6.33891C10.7118 6.1561 10.7259 5.87954 10.5431 5.69672C10.4071 5.56079 10.1446 5.50454 10.0087 5.58422Z" fill="url(#paint1_linear_870_101107)"/>
<path d="M10.7487 7.67791C10.2425 7.86072 9.90497 8.19353 9.69872 8.71853C9.48778 9.25291 9.58622 10.0357 9.92372 10.4951C10.1159 10.7576 12.094 12.656 12.23 12.7076C12.4784 12.806 12.5956 12.7217 13.7206 11.6342C14.7097 10.6779 14.8315 10.5467 14.9815 10.242C15.3003 9.5951 15.2393 8.82166 14.8222 8.27322C14.48 7.82322 14.044 7.59353 13.519 7.59353C13.2284 7.59353 12.769 7.72947 12.5628 7.87478L12.4175 7.97791L12.0753 7.80447C11.644 7.58416 11.1425 7.53728 10.7487 7.67791ZM11.6018 8.62478C11.705 8.67635 11.869 8.77947 11.9628 8.86385C12.2065 9.0701 12.4831 9.09822 12.7034 8.93416C13.1815 8.58728 13.2284 8.55916 13.4675 8.54041C13.7722 8.51697 13.9784 8.64353 14.1472 8.95291C14.2409 9.13103 14.255 9.21072 14.2362 9.45447C14.2222 9.62791 14.18 9.80603 14.1284 9.88572C14.0768 9.96072 13.669 10.3826 13.2097 10.8232L12.3847 11.6248L11.4893 10.7435C10.7065 9.97478 10.5893 9.84353 10.5425 9.65603C10.4768 9.39353 10.519 9.12635 10.6643 8.87791C10.8612 8.5451 11.2315 8.44666 11.6018 8.62478Z" fill="url(#paint2_linear_870_101107)"/>
<path d="M2.06227 6.61268C1.77634 6.72518 1.66852 6.99705 1.80446 7.26424C1.87009 7.3908 2.03884 7.48924 3.07946 7.99549C4.25602 8.56737 4.44821 8.63299 4.64509 8.52987C4.7529 8.46893 4.87477 8.24393 4.87477 8.09393C4.87477 7.85955 4.70134 7.73768 3.53884 7.17518C2.9154 6.87049 2.3529 6.60799 2.29196 6.59393C2.23102 6.57987 2.1279 6.58924 2.06227 6.61268Z" fill="url(#paint3_linear_870_101107)"/>
<path d="M22.0305 6.7875C21.7586 6.91406 21.1961 7.19062 20.7743 7.40156C20.1133 7.73437 20.0008 7.80469 19.9446 7.93594C19.9118 8.02031 19.893 8.14219 19.9071 8.21719C19.9399 8.39062 20.1743 8.57812 20.3618 8.57812C20.5633 8.57812 22.8321 7.45781 22.9399 7.30781C23.0571 7.13906 23.0336 6.91406 22.8883 6.75469C22.6821 6.52969 22.5789 6.53437 22.0305 6.7875Z" fill="url(#paint4_linear_870_101107)"/>
<path d="M1.54268 9.84086C1.31768 10.0705 1.37862 10.4315 1.66924 10.5721C1.80518 10.6377 2.02549 10.6424 3.21612 10.633L4.60362 10.619L4.73955 10.4643C4.93643 10.244 4.9083 9.98148 4.66924 9.7893C4.58018 9.7143 4.42549 9.70492 3.12705 9.70492H1.67862L1.54268 9.84086Z" fill="url(#paint5_linear_870_101107)"/>
<path d="M20.0711 9.82031C19.9023 9.96094 19.8602 10.1437 19.9445 10.3453C20.0617 10.6266 20.1461 10.6406 21.632 10.6406C23.057 10.6406 23.1789 10.6219 23.2961 10.4109C23.3898 10.2281 23.3523 9.98438 23.207 9.83906L23.0711 9.70312H21.6414H20.2117L20.0711 9.82031Z" fill="url(#paint6_linear_870_101107)"/>
<path d="M4.2178 11.7844C3.70686 11.9813 1.92092 12.9 1.83186 13.0125C1.71467 13.1625 1.7053 13.3125 1.80374 13.5C1.88811 13.6641 2.0053 13.7344 2.19749 13.7344C2.35217 13.7344 4.67249 12.6281 4.77092 12.5016C4.80842 12.4594 4.84592 12.3422 4.85999 12.2438C4.87874 12.0891 4.86467 12.0375 4.75217 11.9156C4.58811 11.7375 4.43342 11.7 4.2178 11.7844Z" fill="url(#paint7_linear_870_101107)"/>
<path d="M20.1664 11.7883C19.9929 11.8633 19.857 12.1212 19.9039 12.2993C19.9508 12.4962 20.1195 12.604 21.2867 13.1758C22.5476 13.7946 22.6508 13.8227 22.8804 13.5977C23.0398 13.4337 23.0633 13.1665 22.932 12.9977C22.857 12.8946 20.6539 11.793 20.4336 11.7462C20.3726 11.7321 20.2508 11.7508 20.1664 11.7883Z" fill="url(#paint8_linear_870_101107)"/>
<path d="M8.35313 16.2236C7.63125 16.2939 6.975 16.5048 6.35156 16.8705C5.79375 17.2033 5.47031 17.3392 5.20312 17.3673L4.94531 17.3955L4.80469 17.1705C4.62656 16.8892 4.26094 16.6595 3.91875 16.6173C3.7875 16.5986 3.20625 16.5939 2.625 16.6033C1.45781 16.622 1.37344 16.6408 1.03594 16.9455C0.9375 17.0345 0.80625 17.222 0.745313 17.358L0.632812 17.6017V20.0626C0.632812 22.4673 0.632812 22.5283 0.73125 22.7392C0.848438 22.9876 1.10625 23.2548 1.35 23.3767C1.50469 23.4517 1.67344 23.4611 2.76562 23.4751C4.1625 23.4892 4.26094 23.4751 4.60781 23.1611C4.80469 22.9876 5.01562 22.5986 5.01562 22.4158C5.01562 22.2939 4.98281 22.2986 5.64844 22.3595C6.375 22.4298 6.70781 22.5095 8.97656 23.1751C11.7797 23.9908 11.6953 23.9673 12.3281 23.972C12.8016 23.9767 12.9188 23.958 13.275 23.8408C13.9688 23.6158 13.9078 23.6533 18.3328 20.5033C19.3547 19.772 20.2594 19.097 20.3391 18.9986C20.4188 18.9001 20.5453 18.7033 20.6109 18.5626C20.7188 18.3423 20.7375 18.2439 20.7422 17.883C20.7422 17.4986 20.7281 17.433 20.5875 17.147C20.4094 16.7861 20.1562 16.5376 19.7906 16.3689C19.4438 16.2095 18.9609 16.1767 18.5859 16.2845C18.4359 16.3314 17.4375 16.8048 16.3641 17.3392C15.2906 17.8783 14.3719 18.3283 14.3203 18.347C14.2406 18.3705 14.2125 18.3376 14.1422 18.1408C14.0391 17.8548 13.6219 17.3861 13.3406 17.2548C13.0875 17.1283 10.9453 16.4955 10.3453 16.3642C9.96563 16.2798 8.93906 16.158 8.78906 16.1767C8.76562 16.1814 8.56875 16.2001 8.35313 16.2236ZM9.91406 17.2361C10.4625 17.3298 12.8344 18.0236 12.9797 18.1314C13.3734 18.4173 13.4484 18.947 13.1484 19.3033C13.0031 19.4767 12.7594 19.5939 12.5531 19.5939C12.4641 19.5939 11.775 19.4158 11.0156 19.1955C10.2563 18.9751 9.58125 18.797 9.51094 18.797C9.35156 18.797 9.1125 18.9892 9.075 19.1486C9.0375 19.2986 9.15 19.5705 9.28125 19.6408C9.3375 19.6736 10.0312 19.8845 10.8234 20.1189C12.1734 20.5126 12.2766 20.5361 12.6094 20.5173C13.1016 20.4939 13.4719 20.3205 13.8047 19.9642C13.9406 19.8142 14.0719 19.6455 14.0859 19.5892C14.1328 19.4392 18.6797 17.208 19.0125 17.1705C19.3031 17.1376 19.5469 17.2408 19.7016 17.4564C19.8469 17.658 19.8469 18.0517 19.7016 18.2861C19.6219 18.408 18.825 19.0033 16.7391 20.4892C15.1641 21.6095 13.7156 22.6126 13.5141 22.7205C13.0125 22.9876 12.6328 23.0814 12.1875 23.0486C11.7984 23.0158 11.4469 22.922 8.97656 22.2001C8.04844 21.9236 7.05469 21.6517 6.76875 21.5861C6.35625 21.4923 5.44688 21.3798 5.07656 21.3751C5.02969 21.3751 5.01562 21.0423 5.01562 19.8611V18.3423L5.4 18.2861C5.81719 18.2298 6.07031 18.122 6.7875 17.7048C7.72031 17.1517 8.64375 17.0158 9.91406 17.2361ZM3.90469 17.583C3.96094 17.6158 4.02188 17.6626 4.04063 17.6908C4.05938 17.7189 4.07813 18.783 4.07813 20.058C4.07813 22.1486 4.06875 22.383 3.99844 22.4626C3.92813 22.5376 3.82969 22.547 2.83594 22.547C1.84219 22.547 1.74375 22.5376 1.66875 22.4626C1.59844 22.383 1.59375 22.1626 1.60313 20.0111L1.61719 17.6533L1.73438 17.5923C1.88906 17.5126 3.75469 17.508 3.90469 17.583Z" fill="url(#paint9_linear_870_101107)"/>
</g>
<defs>
<linearGradient id="paint0_linear_870_101107" x1="5.22656" y1="7.44483" x2="19.5422" y2="7.44483" gradientUnits="userSpaceOnUse">
<stop offset="0.3125" stop-color="#DC9750"/>
<stop offset="1" stop-color="#58003F"/>
</linearGradient>
<linearGradient id="paint1_linear_870_101107" x1="9.74805" y1="6.00624" x2="10.6708" y2="6.00624" gradientUnits="userSpaceOnUse">
<stop offset="0.3125" stop-color="#DC9750"/>
<stop offset="1" stop-color="#58003F"/>
</linearGradient>
<linearGradient id="paint2_linear_870_101107" x1="9.58789" y1="10.1659" x2="15.184" y2="10.1659" gradientUnits="userSpaceOnUse">
<stop offset="0.3125" stop-color="#DC9750"/>
<stop offset="1" stop-color="#58003F"/>
</linearGradient>
<linearGradient id="paint3_linear_870_101107" x1="1.74609" y1="7.57882" x2="4.87477" y2="7.57882" gradientUnits="userSpaceOnUse">
<stop offset="0.3125" stop-color="#DC9750"/>
<stop offset="1" stop-color="#58003F"/>
</linearGradient>
<linearGradient id="paint4_linear_870_101107" x1="19.9023" y1="7.58482" x2="23.0145" y2="7.58482" gradientUnits="userSpaceOnUse">
<stop offset="0.3125" stop-color="#DC9750"/>
<stop offset="1" stop-color="#58003F"/>
</linearGradient>
<linearGradient id="paint5_linear_870_101107" x1="1.40625" y1="10.1708" x2="4.86996" y2="10.1708" gradientUnits="userSpaceOnUse">
<stop offset="0.3125" stop-color="#DC9750"/>
<stop offset="1" stop-color="#58003F"/>
</linearGradient>
<linearGradient id="paint6_linear_870_101107" x1="19.9023" y1="10.1719" x2="23.3474" y2="10.1719" gradientUnits="userSpaceOnUse">
<stop offset="0.3125" stop-color="#DC9750"/>
<stop offset="1" stop-color="#58003F"/>
</linearGradient>
<linearGradient id="paint7_linear_870_101107" x1="1.73633" y1="12.7378" x2="4.86692" y2="12.7378" gradientUnits="userSpaceOnUse">
<stop offset="0.3125" stop-color="#DC9750"/>
<stop offset="1" stop-color="#58003F"/>
</linearGradient>
<linearGradient id="paint8_linear_870_101107" x1="19.8945" y1="12.734" x2="23.017" y2="12.734" gradientUnits="userSpaceOnUse">
<stop offset="0.3125" stop-color="#DC9750"/>
<stop offset="1" stop-color="#58003F"/>
</linearGradient>
<linearGradient id="paint9_linear_870_101107" x1="0.632812" y1="20.0737" x2="20.7422" y2="20.0737" gradientUnits="userSpaceOnUse">
<stop offset="0.3125" stop-color="#DC9750"/>
<stop offset="1" stop-color="#58003F"/>
</linearGradient>
<clipPath id="clip0_870_101107">
<rect width="24" height="24" fill="white"/>
</clipPath>
</defs>
</svg>
