<svg width="35" height="35" viewBox="0 0 35 35" fill="none" xmlns="http://www.w3.org/2000/svg">
<path d="M29.8422 3.27588C29.897 3.32294 29.9518 3.37 30.0083 3.41848C30.0645 3.46553 30.1207 3.51259 30.1786 3.56107C31.6593 4.83876 32.533 6.62118 32.811 8.54543C32.8748 9.67417 32.8725 10.8077 32.5376 11.895C32.5161 11.9654 32.5161 11.9654 32.4943 12.0373C32.176 13.0452 31.664 13.9726 30.9653 14.7661C30.9184 14.822 30.8716 14.8779 30.8233 14.9354C29.5926 16.3653 27.7303 17.3941 25.8384 17.5689C25.7178 17.5703 25.5971 17.5708 25.4765 17.5705C24.649 17.5402 24.649 17.5402 23.9457 17.9107C23.8463 18.0237 23.7481 18.1376 23.6509 18.2525C23.5319 18.3532 23.4107 18.4514 23.2877 18.5473C22.9586 18.8132 22.6494 19.0953 22.3409 19.3843C22.0545 19.6511 21.7558 19.8981 21.4505 20.143C21.1912 20.3592 20.9464 20.5894 20.7 20.8201C20.4727 21.0318 20.2406 21.2327 19.9979 21.4269C19.6988 21.6668 19.418 21.9205 19.1391 22.1831C18.8033 22.4994 18.4589 22.7965 18.0985 23.0849C17.8797 23.2668 17.672 23.4583 17.4643 23.6529C17.1404 23.9563 16.8066 24.2402 16.4603 24.518C16.2408 24.7009 16.0322 24.8931 15.8237 25.0884C15.4996 25.392 15.166 25.6763 14.8189 25.9536C14.6411 26.1023 14.4743 26.2572 14.3072 26.4175C13.6678 27.0289 12.9558 27.5623 12.0981 27.8228C12.0484 27.838 11.9987 27.8533 11.9475 27.869C10.8365 28.1467 9.65188 27.9665 8.64197 27.4495C8.47508 27.3443 8.47508 27.3443 8.36296 27.2459C7.99526 26.9324 7.72656 26.8751 7.25102 26.8868C7.18784 26.8869 7.12467 26.887 7.05958 26.8871C6.92675 26.8877 6.79392 26.8893 6.66112 26.8919C6.45902 26.8956 6.25712 26.8961 6.055 26.896C5.92531 26.8971 5.79562 26.8983 5.66593 26.8997C5.5763 26.9 5.5763 26.9 5.48485 26.9003C4.9386 26.9129 4.45751 27.0531 4.03172 27.4126C3.75351 27.7863 3.5948 28.1739 3.62156 28.6431C3.70788 29.1428 3.87659 29.5122 4.28702 29.8281C4.90086 30.2007 5.59774 30.1245 6.29025 30.1198C6.4305 30.1201 6.57074 30.1207 6.71099 30.1214C7.07872 30.123 7.44642 30.1227 7.81415 30.1218C8.40309 30.1206 8.99202 30.1213 9.58096 30.1236C9.7859 30.124 9.9908 30.1231 10.1957 30.1221C10.322 30.1223 10.4483 30.1226 10.5746 30.1229C10.631 30.1222 10.6874 30.1216 10.7456 30.1209C11.3189 30.1248 11.7603 30.2988 12.1828 30.6923C12.4954 31.0513 12.5968 31.4618 12.645 31.9243C12.7754 32.0547 13.015 32.0039 13.1926 32.0046C13.2427 32.005 13.2929 32.0055 13.3445 32.0059C13.4538 32.0069 13.563 32.0077 13.6723 32.0084C13.8453 32.0095 14.0182 32.0111 14.1912 32.0128C14.6831 32.0177 15.175 32.0218 15.667 32.0253C15.9676 32.0275 16.2682 32.0303 16.5687 32.0335C16.6833 32.0346 16.7979 32.0354 16.9125 32.036C17.073 32.0369 17.2335 32.0385 17.394 32.0403C17.4649 32.0404 17.4649 32.0404 17.5372 32.0405C17.8994 32.0459 18.143 32.0961 18.4085 32.3473C18.5584 32.5971 18.5693 32.7309 18.5239 33.0181C18.3849 33.2553 18.2433 33.4078 17.977 33.4966C17.8087 33.5038 17.6424 33.5073 17.474 33.5076C17.423 33.508 17.372 33.5083 17.3194 33.5086C17.1503 33.5096 16.9813 33.5101 16.8123 33.5105C16.6945 33.5109 16.5767 33.5113 16.4589 33.5117C16.2117 33.5124 15.9645 33.5128 15.7173 33.513C15.4017 33.5134 15.0861 33.515 14.7705 33.517C14.527 33.5183 14.2835 33.5186 14.04 33.5187C13.9238 33.5189 13.8075 33.5195 13.6913 33.5204C12.8943 33.5261 12.2127 33.5266 11.6009 32.9465C11.3404 32.6518 11.2091 32.3576 11.171 31.9671C11.1611 31.8853 11.1513 31.8035 11.1411 31.7193C10.8743 31.5414 10.6505 31.5636 10.3411 31.5651C10.2802 31.5648 10.2194 31.5646 10.1567 31.5643C10.0245 31.5639 9.89221 31.5637 9.75995 31.5638C9.55009 31.5638 9.34027 31.563 9.13042 31.5618C8.53369 31.5586 7.93697 31.557 7.34024 31.5565C6.97521 31.5562 6.6102 31.5545 6.24518 31.552C6.10652 31.5514 5.96786 31.5512 5.8292 31.5516C4.75518 31.5543 3.88076 31.4612 3.06374 30.6915C2.41438 30.0033 2.14987 29.2418 2.16892 28.3048C2.24202 27.4127 2.66902 26.6426 3.34759 26.0665C4.07926 25.5318 4.91619 25.4565 5.79624 25.4473C5.891 25.4454 5.98575 25.4433 6.0805 25.4411C6.30903 25.4364 6.53752 25.4327 6.76609 25.4302C6.73767 25.3473 6.73767 25.3473 6.70868 25.2628C6.68392 25.1897 6.65916 25.1167 6.63365 25.0414C6.60906 24.9692 6.58448 24.8971 6.55915 24.8227C6.2193 23.7349 6.35827 22.4472 6.87088 21.441C7.13597 20.9562 7.48098 20.5669 7.86385 20.1721C8.04503 19.9851 8.21011 19.7892 8.37254 19.5855C8.63367 19.26 8.91185 18.9557 9.19686 18.6514C9.40994 18.4226 9.61229 18.1889 9.80808 17.9448C10.0693 17.6193 10.3475 17.315 10.6326 17.0106C10.8443 16.7833 11.0451 16.5512 11.2394 16.3085C11.5146 15.9653 11.8105 15.6463 12.1118 15.3263C12.3882 15.0312 12.6447 14.7248 12.8973 14.4091C13.0793 14.1902 13.2708 13.9826 13.4653 13.7749C13.7147 13.5086 13.9546 13.2394 14.1831 12.9546C14.4116 12.6698 14.6514 12.4006 14.9009 12.1343C15.2062 11.8083 15.4947 11.475 15.7687 11.1217C15.9262 10.938 15.9262 10.938 16.1265 10.7714C16.5785 10.3769 16.7163 10.0896 16.7647 9.48482C16.7803 9.17391 16.7914 8.86291 16.8025 8.55181C16.9183 6.5854 18.087 4.75297 19.5009 3.45299C22.3542 0.938322 26.9128 0.833154 29.8422 3.27588ZM22.0786 3.48684C22.4937 4.19529 23.0032 4.82862 23.5141 5.46926C23.5451 5.50812 23.576 5.54698 23.6078 5.58702C23.9258 5.98534 24.257 6.3691 24.6004 6.74566C24.728 6.88645 24.852 7.02949 24.9753 7.17397C25.2897 7.53537 25.6343 7.8674 25.9751 8.20363C26.1642 8.39217 26.3526 8.58146 26.5404 8.77134C26.6211 8.85269 26.7018 8.93405 26.7826 9.0154C26.8419 9.07554 26.8419 9.07554 26.9023 9.1369C28.0421 10.283 29.3852 11.3877 30.7602 12.2368C30.8053 12.2368 30.8505 12.2368 30.897 12.2368C31.6128 10.5845 31.6562 8.78927 31.0064 7.10531C30.3248 5.45027 29.05 4.13648 27.4106 3.41848C26.5702 3.07732 25.7361 2.91353 24.8301 2.9186C24.7226 2.9191 24.7226 2.9191 24.6129 2.91962C23.7032 2.93328 22.9142 3.13035 22.0786 3.48684ZM20.3653 4.60195C20.3256 4.63894 20.2859 4.67593 20.2449 4.71403C19.7272 5.20452 19.3075 5.7096 19.0024 6.35793C19.7124 7.37651 20.4471 8.3571 21.2583 9.29738C21.3019 9.34796 21.3455 9.39854 21.3905 9.45066C21.5051 9.58256 21.6207 9.71357 21.7368 9.84426C21.7844 9.89819 21.832 9.95212 21.881 10.0077C22.2301 10.4002 22.5928 10.7748 22.9673 11.1431C23.1596 11.3344 23.3505 11.5271 23.5403 11.7209C23.9823 12.1705 24.4231 12.6012 24.9187 12.9917C25.0749 13.1163 25.2215 13.2465 25.3684 13.3819C25.7944 13.7645 26.2551 14.1035 26.7128 14.4467C26.8607 14.5588 27.0067 14.6729 27.1524 14.7878C27.2427 14.8575 27.3331 14.9272 27.4234 14.9968C27.4644 15.0298 27.5053 15.0628 27.5475 15.0968C27.7373 15.2408 27.8568 15.3124 28.0977 15.3167C28.34 15.2301 28.5072 15.1132 28.7095 14.9541C28.7455 14.9259 28.7816 14.8976 28.8188 14.8685C28.9195 14.7893 29.0196 14.7094 29.1196 14.6294C29.1915 14.5758 29.2634 14.5223 29.3375 14.4671C29.6398 14.1849 29.8894 13.86 30.145 13.5357C29.9377 13.3139 29.7176 13.149 29.4657 12.9802C28.7493 12.4927 28.078 11.9573 27.4202 11.3938C27.2179 11.2209 27.0113 11.0536 26.8039 10.8867C26.5532 10.6828 26.3205 10.4723 26.0967 10.2393C25.9763 10.1189 25.8514 10.0085 25.7219 9.89793C25.4281 9.64246 25.1515 9.37263 24.8771 9.09658C24.8314 9.05115 24.7857 9.00573 24.7386 8.95892C24.4692 8.68896 24.2127 8.41143 23.9636 8.12264C23.8233 7.96089 23.6772 7.8048 23.5312 7.64821C23.1746 7.25669 22.8491 6.84546 22.5261 6.42606C22.4114 6.27793 22.2954 6.13083 22.1793 5.98382C21.7671 5.46068 21.3685 4.94072 21.0158 4.37497C20.983 4.33003 20.9503 4.28509 20.9165 4.23879C20.6796 4.23879 20.5312 4.44729 20.3653 4.60195ZM18.3872 7.9302C17.8683 8.99665 18.0836 10.5388 18.4397 11.628C19.0846 13.4548 20.3452 14.8417 22.0949 15.6842C23.4292 16.2668 25.0559 16.4473 26.4536 15.9966C26.2244 15.7583 25.9899 15.5549 25.723 15.36C24.503 14.4565 23.347 13.4575 22.2837 12.3736C22.0902 12.1794 21.8958 11.9861 21.701 11.7933C20.8297 10.9294 20.8297 10.9294 20.438 10.4595C20.3815 10.3938 20.325 10.3282 20.2668 10.2606C19.6605 9.55482 19.096 8.82246 18.5578 8.06344C18.5241 8.01947 18.4903 7.9755 18.4555 7.9302C18.433 7.9302 18.4104 7.9302 18.3872 7.9302ZM17.02 11.8267C16.9312 11.9319 16.8448 12.0392 16.7594 12.1471C16.5116 12.4538 16.2549 12.7475 15.9861 13.0358C15.9506 13.0738 15.9152 13.1119 15.8786 13.1511C15.8105 13.2242 15.7423 13.2974 15.6741 13.3705C15.4142 13.6511 15.1669 13.9427 14.9187 14.2337C14.8487 14.3158 14.7787 14.3978 14.7086 14.4799C14.6732 14.5213 14.6379 14.5628 14.6014 14.6054C14.3824 14.8612 14.159 15.1121 13.931 15.36C13.713 15.5975 13.5049 15.8393 13.303 16.0906C13.0386 16.4185 12.7577 16.7261 12.47 17.0333C12.2583 17.2606 12.0574 17.4928 11.8631 17.7355C11.5879 18.0787 11.292 18.3977 10.9907 18.7177C10.7143 19.0128 10.4578 19.3192 10.2052 19.6349C10.0232 19.8537 9.83168 20.0614 9.63719 20.2691C9.2772 20.6541 8.94023 21.0529 8.6118 21.4654C8.56738 21.518 8.52297 21.5706 8.47721 21.6248C7.88616 22.3398 7.72575 23.081 7.79148 23.9946C7.95969 24.8914 8.4271 25.5762 9.15867 26.1138C9.91071 26.5792 10.689 26.702 11.5512 26.5154C12.6053 26.2217 13.389 25.3547 14.1737 24.6342C14.3521 24.4748 14.535 24.3239 14.7214 24.1741C15.0932 23.8741 15.4414 23.5527 15.7906 23.2272C16.1063 22.933 16.4326 22.6519 16.761 22.3719C16.8431 22.3019 16.9251 22.2318 17.0072 22.1618C17.0486 22.1264 17.0901 22.091 17.1328 22.0546C17.3885 21.8355 17.6394 21.6122 17.8873 21.3842C18.1248 21.1661 18.3666 20.9581 18.6179 20.7561C18.9458 20.4917 19.2534 20.2109 19.5606 19.9231C19.788 19.7114 20.0201 19.5105 20.2628 19.3163C20.6055 19.0415 20.9241 18.7463 21.2434 18.4452C21.5531 18.1548 21.8736 17.8859 22.2078 17.6239C22.3657 17.5001 22.3657 17.5001 22.4887 17.2954C22.4446 17.2787 22.4005 17.2619 22.355 17.2447C20.1147 16.3559 18.4078 14.9417 17.4302 12.7154C17.3075 12.4224 17.1949 12.1259 17.0884 11.8267C17.0658 11.8267 17.0432 11.8267 17.02 11.8267Z" fill="#58003F"/>
<path d="M11.0177 3.19732C11.0643 3.19735 11.1109 3.19738 11.1589 3.19742C11.2573 3.19762 11.3556 3.19816 11.454 3.19901C11.6027 3.20025 11.7513 3.20041 11.8999 3.20039C13.2095 3.20354 13.2095 3.20354 13.5352 3.41388C13.7111 3.59523 13.7366 3.65985 13.7659 3.91376C13.732 4.25312 13.6395 4.34491 13.3985 4.58026C13.1502 4.66302 12.9233 4.65714 12.665 4.6553C12.5968 4.6552 12.5968 4.6552 12.5271 4.65509C12.3576 4.65473 12.1881 4.65378 12.0185 4.6529C11.8135 4.65208 11.6085 4.65135 11.4035 4.65061C11.3016 4.65023 11.1997 4.64985 11.0979 4.64947C11.0224 4.64919 10.947 4.64891 10.8692 4.64862C10.524 6.12678 10.1874 7.60668 9.85957 9.08878C9.82553 9.24247 9.79148 9.39616 9.75742 9.54984C9.61807 10.1789 9.47876 10.8079 9.34029 11.4371C9.25403 11.829 9.16727 12.2208 9.08019 12.6125C9.04761 12.7595 9.0152 12.9066 8.98299 13.0537C8.46317 15.4265 8.46317 15.4265 7.5196 16.0646C6.52512 16.617 5.51531 16.6645 4.43194 16.3554C3.56214 16.0842 2.85931 15.5227 2.40333 14.7354C2.13656 14.146 2.07725 13.431 2.23456 12.7999C2.29874 12.6465 2.37085 12.5129 2.461 12.3732C2.49079 12.3257 2.52057 12.2782 2.55126 12.2293C3.01057 11.5604 3.6617 11.2347 4.43915 11.0573C5.66288 10.8461 6.71481 11.2167 7.72468 11.8947C7.74291 11.8132 7.76115 11.7317 7.77993 11.6477C7.95273 10.8755 8.12568 10.1032 8.29877 9.33098C8.38772 8.93408 8.47663 8.53716 8.56542 8.14022C8.65129 7.75635 8.73729 7.37251 8.82338 6.98869C8.85602 6.84307 8.88861 6.69745 8.92116 6.55181C9.00925 6.15765 9.09811 5.76369 9.18859 5.37007C9.21467 5.25624 9.2405 5.14235 9.26604 5.0284C9.30001 4.87739 9.33506 4.72668 9.37044 4.57599C9.38944 4.49342 9.40844 4.41086 9.42801 4.32579C9.57303 3.8868 9.82304 3.61618 10.1856 3.3498C10.468 3.208 10.7036 3.1963 11.0177 3.19732ZM3.75983 12.9201C3.56429 13.2235 3.51148 13.4502 3.55475 13.8088C3.73142 14.3503 4.09854 14.667 4.59296 14.9239C5.13062 15.1834 5.78281 15.191 6.35963 15.0609C6.78538 14.9063 7.04098 14.6976 7.24616 14.2873C7.28208 13.9599 7.28512 13.6865 7.14362 13.3858C6.66721 12.8498 6.20917 12.4826 5.47469 12.4181C4.82512 12.3947 4.24464 12.4353 3.75983 12.9201Z" fill="#58003F"/>
<path d="M28.1093 22.6142C28.1722 22.6133 28.2352 22.6125 28.3001 22.6116C29.2247 22.6097 29.2247 22.6097 29.5277 22.8833C29.6508 23.144 29.6958 23.3503 29.6174 23.631C29.4843 23.8774 29.3893 23.9734 29.1218 24.0625C29.0256 24.068 28.9291 24.0699 28.8326 24.0692C28.7778 24.069 28.7229 24.0688 28.6664 24.0685C28.6094 24.068 28.5525 24.0674 28.4938 24.0668C28.436 24.0665 28.3783 24.0662 28.3187 24.0659C28.1763 24.0651 28.0338 24.0638 27.8914 24.0625C27.8766 24.1305 27.8618 24.1985 27.8465 24.2686C27.7064 24.9114 27.5657 25.554 27.4242 26.1965C27.3516 26.5268 27.2791 26.8571 27.2072 27.1875C27.1378 27.5068 27.0677 27.8259 26.9971 28.1449C26.9704 28.2663 26.9439 28.3877 26.9177 28.5091C26.529 30.3054 26.529 30.3054 25.8967 30.7236C25.2538 31.0935 24.5102 31.1504 23.7858 30.9885C23.1387 30.7451 22.6788 30.346 22.3543 29.7364C22.1665 29.2412 22.171 28.8077 22.3521 28.3147C22.5803 27.8272 22.9641 27.5567 23.448 27.3438C24.0606 27.131 24.8857 27.2146 25.4585 27.489C25.4943 27.5088 25.5302 27.5285 25.5671 27.5489C25.7142 27.1502 25.7971 26.7396 25.887 26.3253C25.9227 26.164 25.9584 26.0027 25.9941 25.8415C26.0499 25.5885 26.1055 25.3355 26.1606 25.0823C26.214 24.8371 26.2684 24.5921 26.3228 24.3472C26.347 24.2345 26.347 24.2345 26.3716 24.1195C26.5932 23.1315 26.5932 23.1315 27.007 22.8021C27.3819 22.6027 27.6945 22.6144 28.1093 22.6142ZM23.6531 28.8477C23.6531 29.0827 23.6564 29.2592 23.8261 29.4341C24.1644 29.6676 24.4777 29.7421 24.8836 29.668C25.0873 29.577 25.0873 29.577 25.2254 29.4629C25.2235 29.233 25.2235 29.233 25.157 28.9844C24.8291 28.7135 24.5565 28.6234 24.1321 28.6266C23.9378 28.6493 23.8076 28.7318 23.6531 28.8477Z" fill="#58003F"/>
<path d="M17.7718 15.9273C18.2558 16.2486 18.5345 16.6727 18.7021 17.2272C18.8102 17.7763 18.7247 18.3085 18.4554 18.7984C18.1105 19.246 17.6966 19.6426 17.2991 20.0433C17.2295 20.1136 17.1603 20.1843 17.0913 20.2552C16.5336 20.8292 16.047 21.2631 15.2041 21.2807C14.5887 21.275 14.0921 21.122 13.6382 20.6959C13.2184 20.2141 13.0243 19.6383 13.0635 19.0035C13.1532 18.358 13.4473 17.9387 13.8972 17.4801C13.9845 17.391 14.0712 17.3012 14.1575 17.2112C14.3246 17.0373 14.4929 16.8646 14.6614 16.6921C14.7158 16.6357 14.7701 16.5793 14.8261 16.5212C15.6397 15.7 16.6893 15.3026 17.7718 15.9273ZM15.7135 17.628C15.6193 17.7225 15.6193 17.7225 15.5232 17.8188C15.4911 17.8513 15.4591 17.8838 15.4261 17.9172C15.3276 18.0169 15.2286 18.116 15.1296 18.2151C14.6671 18.637 14.6671 18.637 14.4606 19.2C14.4674 19.4305 14.4912 19.483 14.6315 19.6828C14.8719 19.8516 15.0179 19.8922 15.3109 19.8922C15.7213 19.6884 16.0226 19.3426 16.3427 19.0224C16.4513 18.9141 16.561 18.8069 16.6707 18.6998C16.7404 18.6304 16.8101 18.5611 16.8797 18.4916C16.9426 18.4292 17.0056 18.3668 17.0705 18.3025C17.2351 18.1025 17.3076 17.957 17.3616 17.7047C17.2828 17.4311 17.216 17.2746 16.9942 17.0937C16.4386 16.8688 16.0948 17.2449 15.7135 17.628Z" fill="white"/>
</svg>
