<svg width="18" height="24" viewBox="0 0 18 24" fill="none" xmlns="http://www.w3.org/2000/svg">
<path d="M18 24H0V0H18V24Z" stroke="#E5E7EB"/>
<g clip-path="url(#clip0_870_100817)">
<path d="M12.5 4H5.5C4.67188 4 3.99687 4.68125 4.02812 5.50625C4.03437 5.67188 4.04063 5.8375 4.05 6H0.75C0.334375 6 0 6.33437 0 6.75C0 9.64375 1.04688 11.6563 2.45312 13.0219C3.8375 14.3688 5.525 15.0469 6.76875 15.3906C7.5 15.5938 8 16.2031 8 16.8156C8 17.4688 7.46875 18 6.81563 18H6C5.44688 18 5 18.4469 5 19C5 19.5531 5.44688 20 6 20H12C12.5531 20 13 19.5531 13 19C13 18.4469 12.5531 18 12 18H11.1844C10.5312 18 10 17.4688 10 16.8156C10 16.2031 10.4969 15.5906 11.2312 15.3906C12.4781 15.0469 14.1656 14.3688 15.55 13.0219C16.9531 11.6563 18 9.64375 18 6.75C18 6.33437 17.6656 6 17.25 6H13.95C13.9594 5.8375 13.9656 5.675 13.9719 5.50625C14.0031 4.68125 13.3281 4 12.5 4ZM1.52813 7.5H4.16563C4.45 10.3156 5.07812 12.1969 5.7875 13.4563C5.00938 13.1125 4.2 12.6281 3.5 11.9469C2.5 10.975 1.6875 9.57188 1.53125 7.5H1.52813ZM14.5031 11.9469C13.8031 12.6281 12.9937 13.1125 12.2156 13.4563C12.925 12.1969 13.5531 10.3156 13.8375 7.5H16.475C16.3156 9.57188 15.5031 10.975 14.5063 11.9469H14.5031Z" fill="#9333EA"/>
</g>
<defs>
<clipPath id="clip0_870_100817">
<path d="M0 4H18V20H0V4Z" fill="white"/>
</clipPath>
</defs>
</svg>
