<svg width="53" height="53" viewBox="0 0 53 53" fill="none" xmlns="http://www.w3.org/2000/svg">
<rect width="52.9141" height="52.9141" rx="26.457" fill="white" fill-opacity="0.33"/>
<path d="M38.8117 27.7964L22.0346 38.9812C21.9154 39.0605 21.777 39.106 21.634 39.1128C21.491 39.1197 21.3488 39.0876 21.2226 39.02C21.0964 38.9524 20.9908 38.8519 20.9173 38.7291C20.8437 38.6063 20.8048 38.4658 20.8047 38.3227V15.9532C20.8048 15.81 20.8437 15.6695 20.9173 15.5467C20.9908 15.4239 21.0964 15.3234 21.2226 15.2558C21.3488 15.1882 21.491 15.1562 21.634 15.163C21.777 15.1699 21.9154 15.2154 22.0346 15.2947L38.8117 26.4794C38.9201 26.5517 39.009 26.6496 39.0705 26.7645C39.132 26.8794 39.1641 27.0076 39.1641 27.1379C39.1641 27.2682 39.132 27.3965 39.0705 27.5113C39.009 27.6262 38.9201 27.7241 38.8117 27.7964Z" fill="#58003F"/>
</svg>
