<svg width="14" height="24" viewBox="0 0 14 24" fill="none" xmlns="http://www.w3.org/2000/svg">
<path d="M14 24H0V0H14V24Z" stroke="#E5E7EB"/>
<path d="M14 20H0V4H14V20Z" stroke="#E5E7EB"/>
<path d="M8 6.5C8 5.94687 7.55312 5.5 7 5.5C6.44688 5.5 6 5.94687 6 6.5V11H1.5C0.946875 11 0.5 11.4469 0.5 12C0.5 12.5531 0.946875 13 1.5 13H6V17.5C6 18.0531 6.44688 18.5 7 18.5C7.55312 18.5 8 18.0531 8 17.5V13H12.5C13.0531 13 13.5 12.5531 13.5 12C13.5 11.4469 13.0531 11 12.5 11H8V6.5Z" fill="#6366F1"/>
</svg>
