<svg width="20" height="24" viewBox="0 0 20 24" fill="none" xmlns="http://www.w3.org/2000/svg">
<path d="M20 24H0V0H20V24Z" stroke="#E5E7EB"/>
<g clip-path="url(#clip0_870_100805)">
<path d="M3 8C3 6.93913 3.42143 5.92172 4.17157 5.17157C4.92172 4.42143 5.93913 4 7 4C8.06087 4 9.07828 4.42143 9.82843 5.17157C10.5786 5.92172 11 6.93913 11 8C11 9.06087 10.5786 10.0783 9.82843 10.8284C9.07828 11.5786 8.06087 12 7 12C5.93913 12 4.92172 11.5786 4.17157 10.8284C3.42143 10.0783 3 9.06087 3 8ZM0 19.0719C0 15.9937 2.49375 13.5 5.57188 13.5H8.42813C11.5063 13.5 14 15.9937 14 19.0719C14 19.5844 13.5844 20 13.0719 20H0.928125C0.415625 20 0 19.5844 0 19.0719ZM15.75 13.75V11.75H13.75C13.3344 11.75 13 11.4156 13 11C13 10.5844 13.3344 10.25 13.75 10.25H15.75V8.25C15.75 7.83437 16.0844 7.5 16.5 7.5C16.9156 7.5 17.25 7.83437 17.25 8.25V10.25H19.25C19.6656 10.25 20 10.5844 20 11C20 11.4156 19.6656 11.75 19.25 11.75H17.25V13.75C17.25 14.1656 16.9156 14.5 16.5 14.5C16.0844 14.5 15.75 14.1656 15.75 13.75Z" fill="#F59E0B"/>
</g>
<defs>
<clipPath id="clip0_870_100805">
<path d="M0 4H20V20H0V4Z" fill="white"/>
</clipPath>
</defs>
</svg>
