<svg width="24" height="24" viewBox="0 0 24 24" fill="none" xmlns="http://www.w3.org/2000/svg">
<path d="M3.795 13.6094L4.4955 14.9894C4.0155 15.4619 3.75 15.9764 3.75 16.4984C3.75 18.4274 7.3905 20.2484 12 20.2484C16.6095 20.2484 20.25 18.4274 20.25 16.4984C20.25 15.9764 19.983 15.4634 19.5045 14.9909L20.2185 13.6214C21.186 14.4314 21.75 15.4124 21.75 16.4984C21.75 19.5389 17.331 21.7484 12 21.7484C6.669 21.7484 2.25 19.5389 2.25 16.4984C2.25 15.4064 2.82 14.4224 3.795 13.6094Z" fill="url(#paint0_linear_870_100697)"/>
<path d="M3.795 9.10938L4.4955 10.4894C4.0155 10.9634 3.75 11.4779 3.75 11.9984C3.75 13.9274 7.3905 15.7484 12 15.7484C16.6095 15.7484 20.25 13.9274 20.25 11.9984C20.25 11.4764 19.983 10.9634 19.5045 10.4909L20.2185 9.12137C21.186 9.93137 21.75 10.9124 21.75 11.9984C21.75 15.0389 17.331 17.2484 12 17.2484C6.669 17.2484 2.25 15.0389 2.25 11.9984C2.25 10.9064 2.82 9.92237 3.795 9.10938Z" fill="url(#paint1_linear_870_100697)"/>
<path d="M12 12.75C6.669 12.75 2.25 10.5405 2.25 7.5C2.25 4.4595 6.669 2.25 12 2.25C17.331 2.25 21.75 4.4595 21.75 7.5C21.75 10.5405 17.331 12.75 12 12.75ZM12 11.25C16.6095 11.25 20.25 9.429 20.25 7.5C20.25 5.571 16.6095 3.75 12 3.75C7.3905 3.75 3.75 5.571 3.75 7.5C3.75 9.429 7.3905 11.25 12 11.25Z" fill="url(#paint2_linear_870_100697)"/>
<defs>
<linearGradient id="paint0_linear_870_100697" x1="2.25" y1="17.6789" x2="21.75" y2="17.6789" gradientUnits="userSpaceOnUse">
<stop offset="0.3125" stop-color="#DC9750"/>
<stop offset="1" stop-color="#58003F"/>
</linearGradient>
<linearGradient id="paint1_linear_870_100697" x1="2.25" y1="13.1789" x2="21.75" y2="13.1789" gradientUnits="userSpaceOnUse">
<stop offset="0.3125" stop-color="#DC9750"/>
<stop offset="1" stop-color="#58003F"/>
</linearGradient>
<linearGradient id="paint2_linear_870_100697" x1="2.25" y1="7.5" x2="21.75" y2="7.5" gradientUnits="userSpaceOnUse">
<stop offset="0.3125" stop-color="#DC9750"/>
<stop offset="1" stop-color="#58003F"/>
</linearGradient>
</defs>
</svg>
