<svg width="26" height="27" viewBox="0 0 26 27" fill="none" xmlns="http://www.w3.org/2000/svg">
<path d="M15.3898 0C15.5883 6.25466e-06 15.7816 0.0630072 15.942 0.17993C16.1024 0.296852 16.2216 0.461663 16.2823 0.650625L17.3135 3.855C17.7467 4.06687 18.161 4.305 18.5567 4.57312L21.8492 3.86438C22.0433 3.82293 22.2456 3.84417 22.4268 3.92504C22.6081 4.00591 22.7591 4.14223 22.8579 4.31438L25.4567 8.8125C25.5559 8.98454 25.5979 9.18366 25.5767 9.38113C25.5555 9.5786 25.4721 9.76423 25.3385 9.91125L23.0792 12.405C23.1121 12.8832 23.1121 13.3631 23.0792 13.8412L25.3385 16.3387C25.4721 16.4858 25.5555 16.6714 25.5767 16.8689C25.5979 17.0663 25.5559 17.2655 25.4567 17.4375L22.8579 21.9375C22.7588 22.1093 22.6077 22.2452 22.4265 22.3258C22.2452 22.4063 22.0431 22.4272 21.8492 22.3856L18.5567 21.6769C18.1629 21.9431 17.7467 22.1831 17.3154 22.395L16.2823 25.5994C16.2216 25.7883 16.1024 25.9531 15.942 26.0701C15.7816 26.187 15.5883 26.25 15.3898 26.25H10.1923C9.9938 26.25 9.80044 26.187 9.64005 26.0701C9.47966 25.9531 9.36052 25.7883 9.29979 25.5994L8.27041 22.3969C7.83846 22.1856 7.42182 21.9444 7.02354 21.675L3.73291 22.3856C3.53878 22.4271 3.33651 22.4058 3.15523 22.325C2.97394 22.2441 2.82301 22.1078 2.72416 21.9356L0.125411 17.4375C0.0261753 17.2655 -0.0158577 17.0663 0.00537233 16.8689C0.0266024 16.6714 0.109998 16.4858 0.243536 16.3387L2.50291 13.8412C2.47017 13.3643 2.47017 12.8857 2.50291 12.4088L0.243536 9.91125C0.109998 9.76423 0.0266024 9.5786 0.00537233 9.38113C-0.0158577 9.18366 0.0261753 8.98454 0.125411 8.8125L2.72416 4.3125C2.82328 4.1407 2.97433 4.00476 3.15559 3.92424C3.33685 3.84372 3.53898 3.82276 3.73291 3.86438L7.02354 4.575C7.42104 4.30688 7.83729 4.065 8.27041 3.85313L9.30166 0.650625C9.3622 0.462271 9.48077 0.297897 9.64041 0.181031C9.80005 0.0641652 9.99257 0.000798126 10.1904 0H15.3879H15.3898ZM14.7035 1.875H10.8785L9.81354 5.18813L9.09541 5.53875C8.74238 5.7115 8.40158 5.90821 8.07541 6.1275L7.41166 6.5775L4.00666 5.8425L2.09416 9.1575L4.42854 11.7413L4.37229 12.5363C4.34533 12.9283 4.34533 13.3217 4.37229 13.7137L4.42854 14.5087L2.09041 17.0925L4.00479 20.4075L7.40979 19.6744L8.07354 20.1225C8.3997 20.3418 8.7405 20.5385 9.09354 20.7112L9.81166 21.0619L10.8785 24.375H14.7073L15.776 21.06L16.4923 20.7112C16.8449 20.5389 17.1851 20.3422 17.5104 20.1225L18.1723 19.6744L21.5792 20.4075L23.4917 17.0925L21.1554 14.5087L21.2117 13.7137C21.2387 13.3211 21.2387 12.927 21.2117 12.5344L21.1554 11.7394L23.4935 9.1575L21.5792 5.8425L18.1723 6.57375L17.5104 6.1275C17.1851 5.90781 16.8449 5.71108 16.4923 5.53875L15.776 5.19L14.7054 1.875H14.7035ZM12.791 7.5C14.2829 7.5 15.7136 8.09263 16.7685 9.14752C17.8234 10.2024 18.416 11.6332 18.416 13.125C18.416 14.6168 17.8234 16.0476 16.7685 17.1025C15.7136 18.1574 14.2829 18.75 12.791 18.75C11.2992 18.75 9.86845 18.1574 8.81356 17.1025C7.75867 16.0476 7.16604 14.6168 7.16604 13.125C7.16604 11.6332 7.75867 10.2024 8.81356 9.14752C9.86845 8.09263 11.2992 7.5 12.791 7.5ZM12.791 9.375C11.7965 9.375 10.8426 9.77009 10.1394 10.4733C9.43612 11.1766 9.04104 12.1304 9.04104 13.125C9.04104 14.1196 9.43612 15.0734 10.1394 15.7766C10.8426 16.4799 11.7965 16.875 12.791 16.875C13.7856 16.875 14.7394 16.4799 15.4427 15.7766C16.1459 15.0734 16.541 14.1196 16.541 13.125C16.541 12.1304 16.1459 11.1766 15.4427 10.4733C14.7394 9.77009 13.7856 9.375 12.791 9.375Z" fill="black"/>
</svg>
