<svg width="30" height="30" viewBox="0 0 30 30" fill="none" xmlns="http://www.w3.org/2000/svg">
<g clip-path="url(#clip0_870_32805)">
<path d="M14.3431 0.0585918C13.2591 0.257811 12.222 0.849607 11.6595 1.59961C11.5189 1.78711 11.4017 1.88086 11.2786 1.90429C11.1849 1.92187 9.86654 2.08008 8.34896 2.25586C5.46029 2.5957 5.44857 2.60156 5.33138 2.90039C5.30795 2.9707 5.3724 3.72656 5.48373 4.6582C5.73568 6.76758 5.74154 6.62109 5.44271 6.62109C5.3138 6.62109 5.1556 6.65039 5.09701 6.67969C5.03255 6.71484 4.59896 7.37695 4.13021 8.16211L3.2806 9.58008V9.99023C3.2806 10.2187 3.05794 14.707 2.78841 19.9746C2.48373 25.8047 2.3138 29.6016 2.3431 29.6777C2.3724 29.7539 2.45443 29.8535 2.5306 29.9062C2.64779 29.9941 3.78451 30 15.0111 30H27.3568L27.5208 29.8594C27.679 29.7187 27.6849 29.7012 27.6732 29.168C27.6439 28.2305 26.8353 12.457 26.806 12.3223C26.7591 12.1172 26.5423 11.9531 26.3255 11.9531C26.0443 11.9531 25.8392 12.1699 25.8392 12.4629C25.8392 12.5859 26.0267 16.2715 26.2494 20.6543C26.472 25.0371 26.6595 28.7109 26.6595 28.8105V29.0039H14.9994H3.33919V28.8164C3.33919 28.4121 4.28255 10.2773 4.30599 10.207C4.32357 10.1484 6.56185 10.1367 15.3509 10.1367C22.6048 10.1367 26.4076 10.1191 26.4837 10.0781C26.5423 10.0488 26.6244 9.92578 26.6595 9.80859C26.7298 9.60351 26.724 9.59179 25.8744 8.16797C25.3997 7.38281 24.9662 6.71484 24.9017 6.67969C24.8431 6.65039 24.5677 6.62109 24.2865 6.62109C23.8001 6.62109 23.7884 6.61523 23.8177 6.48633C23.8353 6.41601 23.9115 6.07617 23.9935 5.73047C24.1751 4.95703 24.1751 4.85156 24.0052 4.66406C23.8763 4.51172 23.2728 4.35351 19.9154 3.59179L19.2357 3.43945L19.1009 3.02344C18.6615 1.61719 17.5189 0.533201 16.0833 0.152342C15.6615 0.0351543 14.724 -0.0117207 14.3431 0.0585918ZM16.0775 1.20117C16.8451 1.46484 17.5247 2.05078 17.9056 2.77148C18.0814 3.10547 18.099 3.16992 18.0111 3.14062C17.7005 3.04687 16.8509 2.87109 16.7044 2.87109C16.3646 2.87109 16.2943 3 16.0189 4.16015C15.8783 4.75781 15.7494 5.27344 15.7376 5.30859C15.7259 5.34375 15.6029 5.40234 15.474 5.4375C15.2513 5.49023 15.2337 5.48437 15.2044 5.36719C15.1927 5.30273 15.099 4.54687 14.9994 3.6914C14.7884 1.8457 14.7591 1.71679 14.5247 1.61719C14.3548 1.54687 14.2728 1.55273 13.2708 1.66992L12.9779 1.70508L13.2064 1.54687C13.9857 1.01367 15.1224 0.873045 16.0775 1.20117ZM17.7533 7.4414C17.9349 8.19726 18.1048 8.88867 18.1224 8.97656L18.1634 9.14062H14.3548H10.5462L10.5169 9.00586C10.4994 8.93554 10.4232 8.61914 10.347 8.30859L10.2122 7.74023L11.8001 7.35351C12.6732 7.14258 14.2435 6.76172 15.2923 6.50976C16.3411 6.25195 17.2494 6.04687 17.3138 6.05273C17.4076 6.06445 17.4661 6.24609 17.7533 7.4414ZM5.91732 8.39648L6.01107 9.14062H5.37826C5.03255 9.14062 4.74545 9.1289 4.74545 9.11719C4.74545 9.09961 4.94466 8.7539 5.19076 8.34961C5.76498 7.39453 5.80013 7.39453 5.91732 8.39648ZM24.8079 8.35547C25.054 8.75976 25.2533 9.09961 25.2533 9.11719C25.2533 9.1289 24.7904 9.14062 24.2279 9.14062C23.6654 9.14062 23.2025 9.1289 23.2025 9.11719C23.2025 9.08789 23.4896 7.85742 23.5306 7.71679C23.554 7.63476 23.6302 7.61719 23.9642 7.61719H24.3685L24.8079 8.35547Z" fill="#58003F"/>
<path d="M10.7785 11.2447C10.3625 11.3795 10.0109 11.6783 9.80582 12.0709C9.64762 12.3756 9.65348 13.0787 9.8234 13.3951C9.95816 13.6529 10.3449 14.0279 10.5324 14.0865C10.6437 14.1217 10.6496 14.192 10.6789 15.399C10.714 16.8404 10.7726 17.1685 11.13 17.901C11.5636 18.7916 12.2199 19.442 13.1515 19.8931C15.2668 20.9244 17.8449 20.022 18.8644 17.901C19.2218 17.1451 19.2804 16.8287 19.3156 15.4049L19.3507 14.1392L19.55 14.0279C19.8371 13.8756 20.13 13.5123 20.2472 13.1666C20.6339 12.0064 19.5031 10.8931 18.3312 11.2799C17.7511 11.4732 17.2824 12.1178 17.2824 12.7154C17.2824 13.2135 17.6164 13.7701 18.0793 14.0396L18.3371 14.192V15.106C18.3312 16.5357 18.2023 17.1568 17.7687 17.8131C16.4445 19.8053 13.6027 19.8228 12.2433 17.8424C12.132 17.6842 11.9738 17.3443 11.88 17.0865C11.7218 16.6236 11.716 16.5767 11.716 15.3814V14.151L11.9269 14.0338C12.3546 13.8053 12.7121 13.2017 12.7121 12.7154C12.7121 12.2115 12.3312 11.5904 11.8742 11.356C11.6105 11.2271 11.0246 11.1627 10.7785 11.2447ZM11.3879 12.2467C11.5754 12.317 11.7394 12.6217 11.6867 12.815C11.6574 12.9498 11.6457 12.9556 11.5461 12.8678C11.3644 12.7037 11.0832 12.6861 10.8957 12.8209C10.755 12.9263 10.7257 12.9322 10.6964 12.856C10.6261 12.6685 10.6671 12.5279 10.8312 12.358C11.0129 12.1763 11.1418 12.1529 11.3879 12.2467ZM19.1632 12.358C19.3273 12.5279 19.3683 12.6685 19.298 12.856C19.2687 12.9381 19.2453 12.9322 19.1164 12.8326C18.923 12.6803 18.6886 12.6861 18.4953 12.8326L18.3429 12.9556L18.3019 12.815C18.2609 12.6334 18.4191 12.317 18.589 12.2467C18.8234 12.1529 18.9875 12.1881 19.1632 12.358Z" fill="#58003F"/>
</g>
<defs>
<clipPath id="clip0_870_32805">
<rect width="30" height="30" fill="white"/>
</clipPath>
</defs>
</svg>
