<svg width="62" height="62" viewBox="0 0 62 62" fill="none" xmlns="http://www.w3.org/2000/svg">
<g clip-path="url(#clip0_870_99279)">
<path d="M28.9393 0.571205C28.9035 0.618942 28.3664 0.666679 27.7697 0.678616C27.161 0.678616 26.5166 0.750225 26.3137 0.833767C26.1227 0.905376 25.6931 0.988918 25.3589 1.01279C24.2132 1.0844 19.6541 2.40915 19.4631 2.71945C19.3438 2.91041 18.0071 3.45941 17.8639 3.37586C17.8042 3.34006 17.7803 3.36393 17.8161 3.4236C17.8639 3.49521 17.8161 3.59069 17.7087 3.62649C17.5894 3.67423 17.5536 3.65036 17.6013 3.54295C17.6491 3.47134 17.6013 3.49521 17.5058 3.60262C17.4104 3.72197 17.3149 3.78164 17.2791 3.74584C17.1836 3.6623 14.8921 4.98705 14.6534 5.27348C14.5341 5.40477 14.4386 5.47638 14.4386 5.4167C14.4386 5.36896 14.367 5.40477 14.2954 5.50024C14.0328 5.82248 12.183 7.15917 12.0039 7.15917C11.9204 7.15917 10.9895 7.9946 9.95116 9.02099C8.9009 10.0354 8.13708 10.8351 8.22063 10.7873C8.49512 10.6441 7.97 11.3125 7.1107 12.2076C6.68105 12.6491 6.323 13.1027 6.323 13.1981C6.323 13.3891 5.77401 14.2007 5.53531 14.3439C5.34436 14.4752 4.36571 16.1341 4.35378 16.3728C4.34184 16.4802 4.19862 16.7547 4.03154 16.9695C3.6735 17.435 2.73065 19.2849 2.8142 19.3565C2.8858 19.44 2.61131 20.168 2.50389 20.168C2.37261 20.168 2.09811 20.9557 2.07424 21.3973C2.06231 21.5763 1.97877 21.827 1.88329 21.9344C1.6804 22.1611 1.35816 23.2472 1.41783 23.4978C1.42977 23.5933 1.39396 23.7007 1.33429 23.7365C1.19107 23.82 0.773359 25.6699 0.534664 27.2692C0.260166 29.0117 0.176623 32.1266 0.343709 33.893C0.689816 37.4734 1.57299 40.5525 3.1245 43.6675C4.03154 45.4935 3.92413 45.3025 5.1176 47.0808C7.65969 50.8403 10.7985 53.8001 15.1547 56.5093C16.6107 57.4282 19.1528 58.574 21.0146 59.1707C22.1007 59.5168 24.5354 60.1135 24.9412 60.1255C25.0367 60.1255 25.4424 60.1851 25.8363 60.2568C26.2301 60.3284 26.7075 60.3522 26.8865 60.3164C27.0656 60.2806 27.2804 60.3045 27.3639 60.3642C27.4475 60.4358 28.4022 60.4716 29.8344 60.4477C32.7584 60.4 35.2766 60.1613 35.6227 59.9107C35.7898 59.7913 36.852 59.5407 37.4607 59.481C38.0455 59.4333 41.1366 58.4069 41.4111 58.1801C41.5066 58.0966 42.2585 57.7147 43.082 57.3208C44.7409 56.5331 46.5908 55.4471 48.0229 54.4326C48.5361 54.0626 49.0016 53.7643 49.0612 53.7643C49.3238 53.7643 52.1523 51.258 52.1523 51.0312C52.1523 50.9477 52.4626 50.5896 52.8446 50.2555C53.2145 49.9094 53.6561 49.5155 53.7993 49.3723C54.0858 49.1097 55.0644 47.8446 55.0763 47.7372C55.1002 47.5701 55.3986 47.1286 55.4583 47.1882C55.6015 47.3195 57.3081 44.5507 58.1794 42.7843C59.4564 40.1706 60.0531 38.2969 60.7692 34.5494C61.0198 33.2365 60.984 28.2001 60.7095 26.6128C60.256 23.9155 59.3609 20.8841 58.9074 20.4903C58.4061 20.0367 57.9526 19.8816 57.2843 19.9174C56.1147 19.9651 55.9715 19.989 55.9715 20.0725C55.9715 20.1203 55.8998 20.1322 55.8163 20.0964C55.7208 20.0606 55.3867 20.2158 55.0644 20.4306C54.587 20.7528 54.4438 20.9438 54.2767 21.4212C53.9067 22.5192 53.9903 23.3665 54.778 26.3144C55.1599 27.7227 55.1599 27.7943 55.1718 30.4916C55.1838 32.8546 55.148 33.4514 54.9212 34.7403C54.1335 39.1084 52.0688 43.5243 49.2522 46.7944C48.7748 47.3673 48.1781 47.9998 47.9394 48.2146C47.7007 48.4294 47.5336 48.6443 47.5694 48.7039C47.6052 48.7636 47.5097 48.8591 47.3546 48.9188C47.1994 48.9784 46.9965 49.1097 46.9011 49.2171C46.5669 49.6349 44.4544 51.246 43.3564 51.9383C42.2704 52.6305 40.3847 53.5972 39.5015 53.9433C39.2748 54.0268 39.0003 54.17 38.9048 54.2417C38.7138 54.4087 37.9142 54.6832 37.5323 54.719C36.9952 54.7907 34.7873 55.3158 34.7276 55.3993C34.656 55.4829 32.1617 55.6619 31.0279 55.6619C29.7389 55.6619 27.5668 55.5067 27.1252 55.3874C26.8627 55.3158 26.3017 55.2322 25.896 55.1964C25.4782 55.1606 25.1083 55.089 25.0725 55.0413C24.9889 54.9219 23.867 54.6236 23.7835 54.7071C23.7119 54.7787 22.9958 54.5281 22.9003 54.3968C22.8645 54.3491 22.5781 54.2536 22.2678 54.1939C21.9456 54.1342 21.6591 54.0388 21.6114 53.9791C21.5159 53.8478 20.5015 53.3943 20.3702 53.442C20.2508 53.4778 19.8689 53.2749 19.5586 53.0124C19.4273 52.905 19.2722 52.7976 19.2125 52.7976C19.1409 52.7856 19.0454 52.7737 18.9857 52.7618C18.938 52.7618 18.6993 52.5947 18.4845 52.3918C18.2577 52.2008 18.0429 52.0337 17.9952 52.0218C17.9355 52.0099 17.8519 51.986 17.7803 51.9741C17.7207 51.9621 17.6013 51.9383 17.5178 51.9263C17.4462 51.9263 17.4223 51.8786 17.4581 51.8308C17.5058 51.795 17.3388 51.616 17.0881 51.4609C12.9229 48.6443 9.19927 43.5959 7.46874 38.4043C6.46622 35.3848 6.02464 32.3653 6.12011 29.1191C6.22753 25.5267 6.76459 23.0562 8.12515 19.9055C8.36384 19.3326 8.53093 18.8433 8.49512 18.8075C8.45932 18.7717 8.49512 18.7359 8.57867 18.7359C8.66221 18.7359 8.69801 18.6881 8.66221 18.6284C8.61447 18.5688 8.63834 18.4972 8.68608 18.4733C8.81736 18.4256 9.67666 16.9815 9.71247 16.7666C9.7244 16.6712 9.90342 16.3847 10.1182 16.146C10.3211 15.8954 10.8105 15.2867 11.2162 14.7855C11.6101 14.2842 12.0636 13.7471 12.2307 13.592C12.3858 13.4368 12.5291 13.2459 12.5291 13.1743C12.5291 13.1027 12.6245 12.9594 12.732 12.8759C12.899 12.7327 12.9229 12.7327 12.8274 12.8759C12.7558 12.9953 12.7797 13.0191 12.8752 12.9594C12.9587 12.8998 12.9945 12.8282 12.9468 12.7924C12.8752 12.7088 13.8419 11.6944 13.997 11.6944C14.0567 11.6944 14.4267 11.4437 14.8205 11.1215C16.7181 9.64159 17.7565 8.94938 19.3319 8.13782C20.0241 7.77978 20.6685 7.4098 20.764 7.32626C20.9788 7.14724 22.5662 6.53857 22.6378 6.61017C22.6736 6.63404 22.8645 6.61017 23.0674 6.5505C23.7954 6.33567 25.5379 5.9657 26.6956 5.78668C28.8319 5.44057 32.3288 5.53605 34.7635 6.01344C35.2886 6.10891 35.7898 6.15665 35.8972 6.12085C36.0166 6.07311 36.0524 6.09698 35.9927 6.18052C35.9331 6.276 35.9927 6.32374 36.1359 6.32374C36.2672 6.32374 36.8043 6.45502 37.3294 6.59824C37.8665 6.75339 38.2723 6.83693 38.2484 6.7892C38.2126 6.74146 38.2961 6.72952 38.4274 6.76532C38.5587 6.80113 38.6661 6.87274 38.6661 6.92048C38.6661 7.01595 39.5254 7.29045 40.0267 7.35013C40.2176 7.374 40.4682 7.46947 40.5637 7.56495C40.6711 7.64849 41.0172 7.83945 41.3395 7.98267C41.8646 8.20943 42.0078 8.22136 42.6284 8.11395C43.0103 8.04234 43.3803 8.01847 43.4639 8.06621C43.5474 8.12589 43.5593 8.10201 43.4997 7.9946C43.44 7.89912 43.4639 7.86332 43.5713 7.89912C43.7861 7.98267 44.538 7.60075 44.7528 7.31432C44.9199 7.11143 44.908 7.11143 44.6812 7.27852C44.5499 7.374 44.5857 7.32626 44.7647 7.15917C45.2183 6.72952 45.3495 6.41922 45.3495 5.72701C45.3495 4.80803 44.8602 4.02034 43.9174 3.4236C43.5593 3.19684 41.4827 2.50463 41.1605 2.50463C41.0411 2.50463 40.9337 2.45689 40.9337 2.39722C40.9337 2.26593 39.8834 1.9437 39.2032 1.84822C38.9525 1.82435 38.7138 1.75274 38.678 1.69307C38.5945 1.57372 37.1027 1.21568 36.5895 1.20374C36.3985 1.19181 36.1717 1.13213 36.1001 1.07246C36.0166 1.00085 35.6347 0.941181 35.2528 0.929245C34.8589 0.929245 34.5009 0.881508 34.4293 0.833767C34.3696 0.78603 34.0116 0.702484 33.6535 0.666679C32.6629 0.547333 29.0467 0.475727 28.9393 0.571205ZM32.8778 1.49018C34.1309 1.56179 36.0285 1.88402 36.7924 2.14659C37.1265 2.26593 37.4488 2.33754 37.4965 2.31367C37.6158 2.23013 39.06 2.63591 39.1554 2.76719C39.1912 2.82687 39.3941 2.88654 39.6089 2.92234C40.1341 2.98202 41.1724 3.34006 41.1724 3.45941C41.1724 3.55489 41.6379 3.75777 42.1391 3.86519C42.3181 3.90099 42.6284 4.09195 42.8313 4.2829C43.0342 4.47386 43.2729 4.65288 43.3803 4.70062C43.6906 4.81997 44.0367 5.52411 44.0367 6.04924C44.0367 6.44309 43.9532 6.64598 43.6668 6.98015C43.3564 7.33819 43.2252 7.39787 42.7955 7.39787C42.533 7.38593 42.1749 7.31432 42.0078 7.21885C41.8407 7.12337 41.5901 7.05176 41.4469 7.03983C41.1366 7.03983 40.0983 6.56244 40.0983 6.41922C40.0983 6.37148 40.0028 6.32374 39.8834 6.32374C39.597 6.32374 38.5706 6.0015 38.1648 5.77474C37.9978 5.67926 37.6875 5.60766 37.4965 5.60766C37.0669 5.60766 35.8853 5.35703 35.8018 5.24961C35.766 5.20188 35.2408 5.13027 34.6322 5.09446C34.0235 5.04673 33.4268 4.96318 33.3074 4.89157C32.7107 4.58127 26.3375 4.84383 25.0605 5.23768C21.6114 6.29987 20.6208 6.65791 19.2722 7.32626C15.8947 8.97325 13.0064 11.3005 10.5718 14.3439C10.0586 14.9884 9.60505 15.5135 9.55731 15.5135C9.50958 15.5135 9.46184 15.5851 9.46184 15.6567C9.46184 15.7402 9.21121 16.2057 8.91284 16.6831C7.70743 18.5449 6.5259 21.0393 5.90529 23.0324C5.55918 24.1065 4.99825 26.2428 4.98632 26.4934C4.97438 26.5889 4.90277 27.1021 4.81923 27.6272C4.21056 31.1957 4.61634 35.8861 5.83368 39.4068C5.96496 39.7768 6.02464 40.1109 5.98883 40.1587C5.94109 40.1945 5.9769 40.2661 6.04851 40.3138C6.22753 40.4332 6.81233 41.7699 6.72879 41.9012C6.69298 41.9608 6.72879 42.0086 6.78846 42.0086C6.86007 42.0086 7.08683 42.3427 7.28972 42.7485C7.49261 43.1662 7.95806 43.942 8.30417 44.491C8.66221 45.0281 8.94864 45.5174 8.94864 45.5651C8.94864 45.6129 9.1396 45.8277 9.35442 46.0425C9.56925 46.2573 9.83181 46.5796 9.91536 46.7586C10.0108 46.9257 10.3211 47.2837 10.6076 47.5463C10.894 47.8088 11.1685 48.1549 11.2282 48.2982C11.2878 48.4533 11.4072 48.5727 11.4907 48.5727C11.5862 48.5727 11.9204 48.8591 12.2426 49.2052C12.5649 49.5394 12.8752 49.8497 12.9468 49.8855C13.2929 50.0406 14.0806 50.6732 14.0806 50.7925C14.0806 50.8641 14.3789 51.067 14.7489 51.258C15.1189 51.4489 15.5605 51.7473 15.7514 51.9383C15.9424 52.1173 16.1572 52.2724 16.2408 52.2724C16.4198 52.2724 17.4462 52.8692 17.5655 53.0363C17.6133 53.1079 17.661 53.1317 17.661 53.0721C17.661 52.9646 20.0957 54.17 20.1434 54.3133C20.1673 54.3729 20.3105 54.4207 20.4776 54.4207C20.6327 54.4207 21.0385 54.54 21.3846 54.6952C21.7307 54.8503 22.3513 55.0652 22.7691 55.1964C23.1748 55.3158 23.509 55.459 23.509 55.5187C23.509 55.5664 23.6522 55.6142 23.8432 55.6142C24.0222 55.6142 24.4877 55.6977 24.8815 55.8051C26.9343 56.3302 30.9324 56.5331 33.1165 56.2109C33.6416 56.1393 34.3099 56.0557 34.6083 56.0319C34.9067 56.008 35.9569 55.7335 36.9356 55.4351C37.9262 55.1368 38.9525 54.8384 39.239 54.7787C39.788 54.6594 42.4255 53.4182 43.3803 52.8453C45.0631 51.807 47.6171 49.9452 47.6171 49.7542C47.6171 49.6945 48.1065 49.1813 48.7032 48.6085C50.0876 47.2718 51.4601 45.6367 52.5343 44.0375C53.6203 42.4024 55.0286 39.5619 55.5657 37.903C55.8044 37.175 56.0431 36.5186 56.1027 36.447C56.1624 36.3754 56.1743 36.2918 56.1385 36.256C56.1027 36.2202 56.1624 35.8383 56.2579 35.3967C56.7591 33.2485 56.9382 30.1574 56.6875 28.0449C56.5085 26.565 56.0908 24.3452 55.8998 23.9275C55.5537 23.1159 55.4821 22.8295 55.4821 22.2327C55.4821 20.729 56.6159 20.1083 57.5588 21.0989C57.9168 21.4808 58.3584 22.6385 58.3584 23.2233C58.3584 23.4381 58.4181 23.6291 58.4777 23.653C58.6329 23.7007 59.1342 26.0757 59.3132 27.6153C59.5638 29.7397 59.5041 33.2843 59.1938 34.9074C59.1342 35.2296 59.0267 35.8502 58.9551 36.268C58.8716 36.6857 58.7642 37.175 58.6926 37.3421C58.621 37.5092 58.5732 37.7121 58.5852 37.7956C58.621 38.0462 57.523 41.2209 57.2723 41.567C57.1291 41.7579 57.0575 41.937 57.0933 41.9728C57.2127 42.0921 55.5776 45.1355 55.1122 45.6845C54.6348 46.2215 54.3841 46.6154 54.3483 46.8779C54.2887 47.224 52.4984 49.42 51.1379 50.8283C49.5506 52.4634 47.8081 53.9194 46.0179 55.101C44.6931 55.9841 41.8049 57.5237 41.3872 57.5714C41.2321 57.5834 40.9576 57.6669 40.7785 57.7385C40.5876 57.8221 40.4086 57.8817 40.3728 57.8817C40.337 57.8817 39.8954 58.0608 39.3941 58.2875C38.3916 58.741 36.2076 59.3378 35.5631 59.3378C35.3363 59.3378 34.9067 59.4094 34.6083 59.5168C33.4268 59.9107 27.2565 59.9345 26.7791 59.5407C26.6956 59.4691 26.5046 59.4333 26.3853 59.4691C26.1108 59.5407 24.8815 59.302 24.5235 59.111C24.3922 59.0394 24.0103 58.9439 23.6761 58.9081C23.0555 58.8365 22.6616 58.7291 22.0172 58.4188C21.8262 58.3353 21.4085 58.1921 21.0982 58.1085C20.776 58.0369 20.406 57.8698 20.2747 57.7505C20.1315 57.6192 19.9167 57.5237 19.7854 57.5237C19.487 57.5237 17.1836 56.3541 17.1836 56.2109C17.1836 56.1393 17.1001 56.0915 16.9926 56.0915C16.6346 56.0915 13.7703 54.2655 13.3287 53.7523C13.1974 53.5972 13.0184 53.4659 12.9229 53.4659C12.8394 53.4659 12.4813 53.1675 12.1113 52.8095C11.7533 52.4514 11.4311 52.1531 11.3953 52.1531C11.2282 52.1531 10.2615 51.258 10.2615 51.1028C10.2615 51.0073 10.166 50.9119 10.0347 50.8761C9.80794 50.8164 9.04412 49.969 8.91284 49.611C8.87704 49.5036 8.78156 49.4081 8.70995 49.4081C8.54286 49.4081 7.89839 48.692 7.80291 48.4056C7.76711 48.2862 7.54035 47.9879 7.31359 47.7611C7.08683 47.5343 6.81233 47.1644 6.72879 46.9376C6.63331 46.7228 6.45429 46.4363 6.33494 46.317C6.06044 46.0425 5.26081 44.6939 4.81923 43.7391C4.64021 43.3453 4.34184 42.7008 4.15089 42.3189C3.97186 41.925 3.81671 41.4954 3.81671 41.3402C3.81671 41.1851 3.76897 41.0419 3.7093 40.9941C3.42287 40.827 2.56357 37.6882 2.20553 35.5638C1.81168 33.2007 1.79974 28.9639 2.19359 26.3621C2.64711 23.3665 4.16282 18.5091 4.89084 17.7214C5.01019 17.5901 5.14147 17.3395 5.16534 17.1724C5.24888 16.7666 5.88142 15.5135 6.23946 15.0838C6.39461 14.8929 6.63331 14.499 6.77652 14.2007C6.91974 13.9023 7.4568 13.1027 7.97 12.4105C9.79601 9.96383 12.4813 7.39787 14.9041 5.78668C16.3124 4.84383 18.9141 3.45941 19.5705 3.29232C19.9047 3.19684 22.1604 2.50463 23.509 2.08691C24.3802 1.81242 25.1679 1.65726 26.9104 1.44244C27.71 1.34696 30.8369 1.37083 32.8778 1.49018Z" fill="#151515"/>
<path d="M57.1733 0.606884C56.7675 0.762035 55.9917 1.38264 55.3234 2.07486C54.6073 2.83868 52.2084 5.39271 51.182 6.4907C50.7643 6.94423 50.3108 7.43355 50.1795 7.56483C50.0482 7.70805 48.7593 9.08054 47.3271 10.6201C45.883 12.1597 44.057 14.117 43.2693 14.9644C42.4697 15.8117 41.7297 16.6114 41.6104 16.7546C41.491 16.8859 41.0017 17.411 40.5362 17.9003C40.0589 18.4016 39.2831 19.237 38.7938 19.7621C38.3045 20.2753 37.5526 21.0869 37.1229 21.5404C35.094 23.7006 33.4948 25.4192 32.898 26.0756L32.2416 26.7917L31.8955 26.6007C30.4156 25.7295 19.4715 19.7024 18.9225 19.4399C18.3138 19.1534 18.087 19.1057 17.4306 19.1415C16.3804 19.2012 15.724 19.4876 15.163 20.1202C14.2679 21.1346 14.3634 22.6145 15.3898 23.8677C15.6046 24.1183 16.082 24.7628 17.4903 26.6723C17.5858 26.8036 18.0393 27.4242 18.5047 28.0448C18.9583 28.6654 19.4237 29.286 19.5192 29.4173C19.6147 29.5486 20.0682 30.1692 20.5336 30.7898C20.9991 31.4104 21.4526 32.031 21.5481 32.1623C21.6436 32.2936 22.0971 32.9142 22.5626 33.5348C23.028 34.1554 23.4935 34.7879 23.6009 34.9431C23.8038 35.2176 24.1857 35.7308 26.322 38.619C26.9068 39.4067 27.4916 40.2063 27.6229 40.3853C27.7542 40.5643 28.1361 41.0775 28.4583 41.5072C28.7925 41.9488 29.3295 42.6887 29.6637 43.1542C30.5349 44.3596 30.6543 44.5028 31.3465 45.1831C32.54 46.3646 33.9005 46.7107 35.1059 46.1617C35.8101 45.8276 36.5142 45.2905 36.5142 45.0637C36.5142 44.8966 36.8484 44.5505 37.0513 44.5028C37.4452 44.3954 39.1757 41.5907 41.133 37.8313C41.5268 37.0675 42.0758 36.1008 42.3384 35.683C42.6129 35.2534 43.0067 34.585 43.2335 34.1912C43.4603 33.7974 44.1047 32.6636 44.6776 31.6849C45.2505 30.6943 45.8472 29.6799 46.0023 29.4173C46.1456 29.1547 46.8736 27.8897 47.6135 26.6126C48.3535 25.3356 49.0576 24.1183 49.1651 23.9273C49.2844 23.7244 49.6782 23.0322 50.0602 22.3758C50.4421 21.7194 50.9672 20.8124 51.2178 20.3589C51.4685 19.9053 51.7191 19.4757 51.7788 19.4041C51.8265 19.3325 52.0175 19.0341 52.1726 18.7357C52.3397 18.4374 52.7813 17.6735 53.1512 17.041C54.2492 15.1434 55.1563 13.568 55.3711 13.1861C55.4905 12.9832 55.8843 12.3029 56.2543 11.6704C57.4836 9.53406 58.2712 8.1735 58.4741 7.81546C58.5816 7.61257 58.8799 7.13518 59.1305 6.75327C59.3812 6.35942 59.8228 5.52399 60.1211 4.90339C61.1236 2.80288 60.9208 1.50199 59.4886 0.750103C59.0828 0.535278 57.6148 0.4398 57.1733 0.606884ZM58.4264 1.72875C58.6412 1.89584 58.868 2.02712 58.9396 2.02712C59.1544 2.02712 59.3334 2.96996 59.2022 3.36381C59.1305 3.5667 59.1067 3.76959 59.1425 3.82926C59.2141 3.94861 58.2354 5.72688 57.9013 6.12073C57.7939 6.24007 57.6984 6.39523 57.6864 6.47877C57.6506 6.70553 56.672 8.38832 56.3856 8.71056C56.123 8.997 55.7291 9.68921 55.7172 9.86823C55.7172 10.0114 54.8937 11.4794 54.5834 11.8971C54.4283 12.1 54.297 12.3148 54.297 12.3745C54.297 12.4223 54.0344 12.9235 53.7002 13.4725C53.378 14.0215 52.9126 14.8331 52.6739 15.2627C52.4352 15.6924 52.1129 16.1936 51.9458 16.3607C51.7907 16.5278 51.6475 16.7784 51.6117 16.9217C51.5878 17.0649 51.373 17.5184 51.1223 17.9242C50.8837 18.3419 50.5733 18.867 50.454 19.0938C49.8573 20.1321 49.2605 21.0988 48.9502 21.4688C48.7712 21.6955 48.6996 21.8388 48.7951 21.7791C48.8906 21.7194 48.9383 21.7313 48.9025 21.791C48.8667 21.8507 47.8284 23.6409 46.5991 25.7772C45.3698 27.9135 44.236 29.7992 44.0809 29.9663C43.9138 30.1334 43.7706 30.396 43.7348 30.5392C43.6631 30.9092 42.6487 32.6636 42.231 33.1529C42.04 33.3677 41.8849 33.5825 41.8729 33.6303C41.8371 33.9764 41.6581 34.3344 40.584 36.1724C39.9156 37.3181 39.3189 38.3325 39.2592 38.428C39.1279 38.6548 37.3019 41.901 36.7171 42.9632C35.9772 44.3238 34.9866 45.2308 34.2586 45.2308C33.7573 45.2308 32.6832 44.7176 32.4206 44.3477C32.2774 44.1448 32.0387 43.8464 31.8955 43.6793C31.7404 43.5122 31.5375 43.2139 31.442 42.999C31.3465 42.7961 31.2152 42.6052 31.1675 42.5813C31.0123 42.5216 29.8308 40.9104 29.8308 40.7553C29.8308 40.6837 29.5563 40.3256 29.2341 39.9795C28.8999 39.6334 28.6373 39.2396 28.6373 39.1202C28.6373 39.0009 28.5538 38.8696 28.4464 38.8219C28.2077 38.7383 25.7849 35.4921 25.6298 35.0505C25.5701 34.8715 25.4388 34.7283 25.3553 34.7283C25.2717 34.7283 25.1763 34.6567 25.1405 34.5731C25.1166 34.5015 24.675 33.8809 24.1737 33.2245C23.6725 32.5561 23.2667 31.9594 23.2667 31.8878C23.2667 31.8162 23.0519 31.5417 22.7774 31.2553C22.5148 30.9808 22.1806 30.5153 22.0494 30.2408C21.9181 29.9544 21.751 29.7157 21.6674 29.7157C21.4884 29.7157 20.8798 28.8325 20.8798 28.5819C20.8798 28.4745 20.832 28.4148 20.7843 28.4506C20.6888 28.5103 19.2686 26.6962 19.2686 26.5172C19.2566 26.3859 18.9821 25.9443 18.9702 26.0637C18.9702 26.2069 16.5833 23.0322 16.5833 22.8771C16.5833 22.8174 16.4997 22.6981 16.3923 22.6265C16.1536 22.4474 16.0104 21.6597 16.1178 21.1227C16.1655 20.8959 16.3446 20.5856 16.5236 20.4424C16.8339 20.1679 17.538 20.0605 17.538 20.2872C17.538 20.3469 17.6574 20.4066 17.8125 20.4066C18.1228 20.4066 19.3282 21.0749 19.3282 21.242C19.3282 21.3136 19.4237 21.3614 19.5431 21.3614C19.8056 21.3614 22.0732 22.6026 22.2045 22.8174C22.2642 22.9009 22.3119 22.9368 22.3119 22.8771C22.3119 22.7339 23.4219 23.3306 23.6725 23.617C23.8038 23.7603 23.9947 23.8677 24.1021 23.8677C24.3647 23.8677 26.5129 25.0492 26.6442 25.264C26.692 25.3476 26.8232 25.4192 26.9187 25.4192C27.1694 25.4192 27.79 25.7533 28.2793 26.1472C28.506 26.3382 28.7567 26.4933 28.8522 26.4933C29.1028 26.4933 29.9859 26.9826 30.2963 27.281C30.4514 27.4361 30.6662 27.5674 30.7736 27.5674C30.8811 27.5674 31.2272 27.6987 31.5494 27.8658C31.9074 28.0448 32.2297 28.1403 32.3848 28.0926C32.7548 27.9732 33.7215 27.1855 33.9483 26.8036C34.2347 26.3262 42.4816 17.4945 43.8302 16.2056C44.4389 15.6327 44.8805 15.1672 44.8208 15.1553C44.7611 15.1553 44.9998 14.845 45.3579 14.4631C45.7159 14.0931 47.2436 12.4581 48.7473 10.8588C50.263 9.24763 52.1607 7.18292 52.9842 6.26395C54.8221 4.21117 56.4214 2.58805 57.2568 1.93164C57.6148 1.65714 57.9251 1.43038 57.9609 1.43038C58.0087 1.43038 58.2116 1.56166 58.4264 1.72875Z" fill="#151515"/>
<path d="M55.8052 3.48487C54.743 4.559 52.9647 6.42082 51.8787 7.63816C50.7926 8.8555 48.8234 10.9679 47.5225 12.3524C46.2097 13.7249 45.1594 14.8825 45.1833 14.9064C45.2072 14.9303 45.5175 14.7751 45.8874 14.5722C46.2455 14.3693 46.5438 14.2261 46.5438 14.25C46.5438 14.2858 45.9948 14.6916 45.3265 15.1451C44.2166 15.9089 43.6676 16.446 39.6814 20.7186C37.2586 23.3204 35.0268 25.7193 34.7285 26.0534L34.1914 26.6621L34.6091 26.4115C34.8359 26.2683 36.0532 25.576 37.2944 24.86C38.5476 24.1439 42.3309 21.9598 45.7084 20.0025L51.8548 16.4579L52.9767 14.5006C53.5973 13.4265 54.0985 12.5075 54.0985 12.4479C54.0985 12.4001 54.1701 12.2927 54.2537 12.2092C54.4446 12.0063 55.5188 10.1325 55.471 10.0848C55.4471 10.0609 54.7311 10.4428 53.8837 10.9321C53.0244 11.4334 52.1054 11.9705 51.8309 12.1256C51.5445 12.2927 51.3177 12.4001 51.3177 12.3762C51.3177 12.3524 52.4277 11.5527 53.7763 10.6099L56.2229 8.8913L56.8435 7.81718C57.1896 7.23238 57.4641 6.67145 57.4641 6.5879C57.4641 6.50436 57.5238 6.39695 57.5954 6.34921C57.6789 6.30147 57.9415 5.91956 58.1802 5.48991C58.4308 5.06026 58.7411 4.5232 58.8843 4.29644L59.123 3.89066L58.4189 4.29644C56.8435 5.17961 56.6884 5.27508 56.6884 5.21541C56.6884 5.17961 57.2493 4.73802 57.9415 4.22483C58.8485 3.54455 59.1947 3.22231 59.1947 3.03135C59.1947 2.73299 58.9679 2.02884 58.8724 2.02884C58.8008 2.02884 57.2851 2.88814 56.569 3.31779C56.4019 3.4252 56.6884 3.1149 57.2016 2.63751C57.7028 2.16012 58.1205 1.71853 58.1205 1.65886C58.1205 1.31275 57.5477 1.76627 55.8052 3.48487Z" fill="#92096B"/>
<path d="M50.8398 17.3531C50.4818 17.5679 48.5245 18.7017 46.4837 19.8833C44.4548 21.0529 42.1394 22.3776 41.3517 22.8311C40.564 23.2966 38.5232 24.4662 36.8165 25.4449C35.1099 26.4354 33.5226 27.4141 33.2839 27.6408C32.6633 28.2495 32.2575 28.3211 31.5056 27.975C31.1595 27.8199 30.8372 27.6886 30.7776 27.6886C30.7179 27.6886 30.0138 28.0705 29.2022 28.524L27.7462 29.3714L28.4026 28.7985C28.7606 28.4882 29.2977 28.0108 29.596 27.7363L30.1212 27.2351L29.7154 26.9844C28.9635 26.519 28.88 26.5309 27.3046 27.438L25.8366 28.2853L26.9465 27.2589C27.5433 26.698 28.0445 26.1967 28.0445 26.149C28.0445 26.1013 27.77 25.9103 27.4478 25.7313L26.851 25.409L26.1588 25.791L25.4786 26.1729L26.0037 25.6955L26.5407 25.2181L25.395 24.6094C24.7744 24.2633 24.2135 23.9888 24.1657 23.9888C24.1061 23.9888 23.7003 24.2036 23.2587 24.4543C22.8052 24.7168 22.4352 24.8959 22.4352 24.8481C22.4352 24.7884 22.6739 24.5139 22.9723 24.2275C23.2706 23.9411 23.5093 23.6666 23.5093 23.6188C23.5093 23.5234 19.7738 21.4825 19.5828 21.4825C19.5112 21.4825 19.3083 21.5661 19.1532 21.6735C18.8309 21.8883 18.7354 21.7332 19.0338 21.4825C19.3083 21.2558 19.2606 21.208 18.5684 20.8261C18.0074 20.5277 17.8881 20.4919 17.6136 20.6232C17.3152 20.7545 17.3033 20.7545 17.4226 20.5277C17.542 20.3129 17.5181 20.2891 17.2197 20.2891C16.4559 20.2891 16.0143 21.0409 16.2172 21.948C16.3604 22.5925 16.4201 22.6402 16.7423 22.4492C17.0049 22.2822 17.0049 22.2822 16.7901 22.5328C16.5753 22.7715 16.5872 22.7953 17.7807 24.3946C18.4609 25.2897 19.0338 26.0177 19.0815 26.0177C19.1173 26.0177 19.368 25.8864 19.6305 25.7194C20.3347 25.2897 20.3944 25.3613 19.8215 25.9461L19.3083 26.4712L20.0363 27.438C20.4421 27.975 20.8121 28.4047 20.8479 28.4047C20.8837 28.4047 21.1104 28.2973 21.3491 28.154L21.7788 27.9034L21.3849 28.2495C21.1701 28.4285 21.003 28.6314 21.003 28.6911C21.003 28.7388 21.1701 28.9895 21.3611 29.252L21.7311 29.7056L22.65 29.1685C24.0703 28.3211 24.1061 28.3331 23.1274 29.264C22.6142 29.7533 22.1965 30.1949 22.1965 30.2426C22.1965 30.3739 22.841 31.269 22.9365 31.269C22.9842 31.269 23.4377 31.0184 23.9509 30.72C24.4641 30.4216 24.9892 30.1113 25.1205 30.0397C25.3353 29.9323 24.846 30.4097 23.6525 31.46L23.2587 31.8061L24.3448 33.274L25.4308 34.7301L25.9321 34.4436C26.2066 34.2885 27.2926 33.6679 28.3429 33.0592C29.3931 32.4505 30.4434 31.8538 30.6702 31.7225C31.6369 31.1735 30.4911 31.9731 28.1758 33.465C26.851 34.3124 25.7769 35.0523 25.7769 35.112C25.7769 35.1597 26.3737 36.019 27.0897 36.9977L28.4145 38.7759L30.2882 37.6899C31.3146 37.1051 32.341 36.5083 32.5558 36.3771C33.081 36.0548 33.0452 36.1742 32.4962 36.5561C31.3982 37.296 28.8203 39.0624 28.7725 39.0982C28.7129 39.1459 29.3335 40.1007 29.4289 40.1007C29.4648 40.1007 30.5747 39.4801 31.8994 38.7163C33.2242 37.9524 34.3461 37.296 34.4057 37.2722C34.4535 37.2483 34.4893 37.2483 34.4893 37.2722C34.4893 37.296 34.2386 37.4989 33.9283 37.7138C33.4151 38.0837 32.1978 38.9669 30.4553 40.2439L29.8347 40.7094L30.5627 41.6641L31.2908 42.6189L31.8398 42.2967C32.1501 42.1177 32.532 41.8909 32.6991 41.7954C33.0929 41.5687 32.2813 42.2967 31.8398 42.5712C31.4101 42.8337 31.422 42.9412 31.9114 43.4782C32.1262 43.7169 32.2813 43.9198 32.2455 43.9198C32.2097 43.9198 32.353 44.1108 32.5797 44.3375C32.8065 44.5643 33.0571 44.7552 33.1406 44.7552C33.2123 44.7552 33.5584 44.6001 33.8925 44.3972C34.2148 44.2062 34.6683 43.9556 34.8831 43.8482C35.2531 43.6453 35.265 43.6453 35.0979 43.8721C35.0025 43.9914 34.7041 44.3256 34.4415 44.6001C33.9999 45.0775 33.9761 45.1133 34.2386 45.1133C35.0025 45.1133 36.1243 43.9914 36.9001 42.428C37.2104 41.8312 40.7669 35.5894 41.5666 34.2527L41.8172 33.8469L41.3517 34.1214C41.0892 34.2766 40.6834 34.5152 40.4566 34.6465C40.2299 34.7778 39.8599 34.9926 39.657 35.112C38.9051 35.5655 39.2751 35.2433 40.7431 34.1811C42.3065 33.0592 42.2468 33.1428 43.4164 31.0542L43.7029 30.541L42.6526 31.1616C42.0678 31.4958 41.5188 31.8419 41.4233 31.9135C41.3279 31.9851 41.2801 31.9851 41.3159 31.9254C41.3517 31.8538 41.9843 31.4003 42.7004 30.911L44.0132 30.0159L46.3524 25.97C47.6413 23.7501 48.6797 21.9122 48.6677 21.9002C48.6439 21.8764 48.1426 22.1509 47.5459 22.485C44.8844 24.0366 44.8605 24.0127 47.3788 22.3418L49.1093 21.1842L50.1596 19.3939C51.2934 17.4725 51.5798 16.9473 51.5321 16.9473C51.5082 16.9473 51.1979 17.1383 50.8398 17.3531Z" fill="#92096B"/>
<path d="M26.3723 1.62313C23.7467 1.9573 23.7944 1.93343 17.66 5.53772C16.5859 6.18219 15.7982 6.58797 16.0488 6.38508C16.1801 6.2896 17.0275 5.65706 17.9345 4.98872C19.3905 3.92653 20.0231 3.34172 19.7247 3.34172C19.5337 3.34172 16.9797 4.63068 16.0488 5.19161C12.8503 7.12503 9.74727 10.061 7.4558 13.355L6.76359 14.3575L7.32452 14.0352C7.62289 13.8682 8.0048 13.6533 8.14802 13.5578C8.79249 13.164 9.54438 12.7702 9.54438 12.806C9.54438 12.8418 8.85216 13.3072 8.0048 13.8562C7.16937 14.4052 6.39361 15.0019 6.29813 15.169C6.20266 15.3361 5.91622 15.8374 5.66559 16.279L5.22401 17.0786L5.91622 16.6489C6.95454 16.0283 6.95454 16.1357 5.92816 16.9115C5.1166 17.5321 4.97338 17.6992 4.6034 18.5108C3.35026 21.2438 2.31194 25.2777 2.07324 28.4046C2.00163 29.4549 2.00163 29.5265 2.19259 29.3714C2.35967 29.2281 2.38354 29.2281 2.31194 29.4072C2.27613 29.5146 2.19259 29.5981 2.14485 29.5981C1.9897 29.5981 1.94196 30.7558 2.03744 32.5818C2.15678 34.8613 2.63417 37.9047 2.86093 37.7734C2.90867 37.7376 2.93254 37.8211 2.89674 37.9405C2.86093 38.0598 2.98028 38.6327 3.1593 39.2056C3.66056 40.8526 3.66056 40.8406 3.93506 40.6974C4.20956 40.5423 4.2573 40.7213 3.99473 40.9361C3.79184 41.1032 3.81571 41.2464 4.18569 42.1057C4.38858 42.5831 4.42438 42.607 4.67501 42.4757C4.93757 42.3325 4.93757 42.3325 4.73468 42.6428C4.53179 42.9531 4.54373 42.9769 5.08079 44.0033C5.37916 44.5762 5.80881 45.352 6.0475 45.7339L6.47715 46.4261L6.9068 46.1635L7.33645 45.901L7.06196 46.2709C6.91874 46.4738 6.79939 46.7006 6.79939 46.7841C6.79939 46.8915 7.19324 47.5002 7.52741 47.906C7.58708 47.9657 7.7661 47.9179 7.95706 47.7986C8.29123 47.5837 8.29123 47.5837 8.08834 47.8224C7.78997 48.1566 7.82578 48.3356 8.29123 48.8727L8.69701 49.3501L9.06699 49.1353C9.28182 49.0278 9.42503 48.9682 9.40116 49.0159C9.37729 49.0756 9.28182 49.2665 9.18634 49.4456C9.03119 49.7678 9.04312 49.8036 9.50857 50.2691L9.9979 50.7584L10.4395 50.4958L10.8811 50.2452L10.6304 50.5913C10.4872 50.7823 10.3798 50.9851 10.3798 51.0448C10.3798 51.1045 10.5946 51.3551 10.8572 51.6177L11.3346 52.0831L11.7523 51.8802C12.3252 51.6057 12.349 51.6177 12.0626 52.0712L11.812 52.477L12.2655 52.835C12.9338 53.3602 12.9696 53.3721 13.3516 53.1692C13.8289 52.9305 13.8886 52.9424 13.6738 53.2527C13.5664 53.396 13.4828 53.5869 13.4828 53.6705C13.4828 53.8017 15.5237 55.222 16.5501 55.8068C16.932 56.0216 16.9558 56.0216 17.3139 55.8068L17.6839 55.5919L17.481 55.8903C17.29 56.1887 17.3019 56.2006 17.5645 56.3796C17.7197 56.4751 18.3045 56.7735 18.8654 57.048L19.8918 57.5373L20.3572 57.2628L20.8227 56.9883L20.5482 57.3464L20.2737 57.6925L20.9898 57.967L21.7178 58.2415L22.1355 57.9908C22.5532 57.7402 22.7203 57.8357 22.3742 58.1221C22.0878 58.3608 22.1594 58.4324 22.9232 58.6472L23.6393 58.8382L24.5941 58.3131C25.1073 58.0147 25.5369 57.7999 25.5369 57.8357C25.5369 57.8595 25.346 58.146 25.1192 58.4682C24.8805 58.7905 24.7373 59.0888 24.785 59.1127C24.8447 59.1485 25.2147 59.232 25.6205 59.3156C26.3127 59.4349 26.3962 59.423 26.8139 59.1604C27.5897 58.683 27.6374 58.6711 27.2197 59.1127L26.8259 59.5304L27.721 59.6139C28.3296 59.6736 28.6877 59.6498 28.8786 59.5543C29.0218 59.4707 29.1173 59.4588 29.0696 59.5304C28.9622 59.7094 29.2963 59.793 30.1676 59.793C30.9075 59.793 31.0388 59.7452 31.922 59.2201C32.4471 58.9098 33.1513 58.504 33.4735 58.325L34.0702 57.9908L33.1751 58.8263C32.1607 59.781 32.1487 59.781 33.8554 59.5423C34.7386 59.423 35.7053 59.0172 36.851 58.2653C36.9942 58.1698 37.1136 58.1221 37.1136 58.1579C37.1136 58.1818 36.7914 58.4205 36.3856 58.6711C35.4189 59.2917 35.7053 59.3156 37.6148 58.7905C39.2618 58.3369 39.6199 58.1818 41.6249 57.0002C42.3649 56.5706 42.9616 56.2364 42.9616 56.2603C42.9616 56.2961 42.6752 56.5109 42.341 56.7615C41.243 57.5373 41.3743 57.5492 42.8423 56.8093C46.1601 55.1384 49.657 52.4412 52.0081 49.7439C53.0345 48.5624 54.049 47.2615 54.0609 47.1183C54.0609 47.0109 52.9152 47.6673 45.1099 52.1905C44.0954 52.7873 43.081 53.3602 42.8781 53.4914C40.9804 54.5656 37.6387 56.4871 37.4716 56.6064C37.3762 56.6661 37.7223 56.32 38.2474 55.8187C38.7725 55.3174 39.1664 54.9117 39.1306 54.8997C39.0948 54.8997 38.7486 55.0071 38.3548 55.1384C37.9729 55.2816 37.1136 55.5203 36.4572 55.6874C35.8008 55.8545 35.0728 56.1051 34.846 56.2484C34.488 56.4632 34.4521 56.4751 34.6073 56.2842C34.7744 56.0813 34.7625 56.0693 34.4283 56.129C34.2254 56.1767 33.5928 56.2722 33.008 56.3438C32.2084 56.4393 31.7907 56.5706 31.3372 56.8332L30.7285 57.1912L31.0746 56.8212L31.4327 56.4512H30.3227C29.2605 56.4512 29.1889 56.4632 28.4251 56.9167C27.9835 57.1673 27.4942 57.4418 27.3271 57.5254C26.9929 57.7044 26.9929 57.7163 27.6494 56.8928C27.8045 56.7019 27.9 56.5109 27.8642 56.4512C27.8403 56.4035 27.4107 56.32 26.9213 56.2722C26.1456 56.2006 25.9785 56.2245 25.525 56.4512L24.9998 56.7138L25.2743 56.4154C25.4295 56.2484 25.513 56.0932 25.4534 56.0574C25.4056 56.0335 24.9998 55.9381 24.5702 55.8545C23.866 55.7113 23.7467 55.7232 23.4961 55.8903C23.0903 56.1767 22.9471 56.1409 23.2454 55.8187L23.4961 55.5561L21.9804 55.031L20.4647 54.5178L19.9873 54.7923C19.5695 55.031 19.5337 55.0429 19.7008 54.8281C20.1066 54.3388 20.0947 54.3149 18.9131 53.7659C18.2687 53.4676 17.4332 53.0379 17.0394 52.7992L16.3114 52.3576L15.7266 52.6679L15.1418 52.9782L15.3685 52.656C15.4879 52.477 15.6311 52.2741 15.6669 52.1905C15.7146 52.1189 15.4998 51.8802 15.1418 51.6177L14.5331 51.188L14.1273 51.4267C13.5783 51.749 13.5664 51.749 13.8528 51.2716L14.0796 50.8777L13.5306 50.4242C13.0293 50.0065 12.9458 49.9826 12.6355 50.09C12.3132 50.2213 12.1461 50.1139 12.4087 49.9468C12.6355 49.8036 12.5161 49.5768 11.9671 49.1114C11.4181 48.6579 11.4181 48.6579 11.072 48.8488L10.714 49.0517L10.9527 48.7295L11.1914 48.4072L10.702 47.8224C10.3559 47.4167 10.1411 47.2615 9.98596 47.3092C9.81888 47.3451 9.79501 47.3212 9.89049 47.2138C9.98596 47.0944 9.90242 46.9035 9.53244 46.438C9.04312 45.8293 9.03119 45.8174 8.74475 46.0084L8.45832 46.1993L8.66121 45.901C8.85216 45.5906 8.85216 45.5787 8.25543 44.6597C7.93319 44.1585 7.46774 43.3708 7.21711 42.9292C6.89487 42.3444 6.71585 42.1296 6.58457 42.1893C6.44135 42.237 6.44135 42.2251 6.54876 42.0818C6.73972 41.8551 6.19072 40.5065 5.91622 40.5303C5.7014 40.5542 5.66559 40.4468 5.84461 40.2678C5.92816 40.1842 5.89235 39.9097 5.72527 39.4323C5.03305 37.4392 4.6034 35.0881 4.46019 32.6057C4.41245 31.806 4.3289 31.1496 4.2573 31.1496C4.18569 31.1496 4.18569 31.09 4.26923 30.9945C4.3289 30.9229 4.42438 30.4335 4.47212 29.9084L4.5676 28.9775L4.28117 29.1327L3.99473 29.2759L4.30503 28.8701C4.51986 28.5837 4.63921 28.2376 4.71082 27.6886C4.75855 27.2589 4.81823 26.8054 4.83016 26.6741C4.88984 26.2683 5.58205 23.6069 5.77301 23.0579C5.86848 22.7834 5.95203 22.5447 5.95203 22.5208C5.94009 22.4731 6.11911 22.0076 6.52489 21.029C9.11473 14.6558 14.0796 9.42844 20.035 6.81473C21.3359 6.24186 23.0187 5.66899 24.2838 5.37063C25.1789 5.16774 26.2053 4.64261 28.3774 3.31786C28.5803 3.18657 28.7593 3.11497 28.7593 3.15077C28.7593 3.18657 28.4967 3.53268 28.1625 3.92653C27.8403 4.32037 27.5658 4.66648 27.5658 4.69035C27.5658 4.71422 28.6161 4.71422 29.8811 4.69035L32.2084 4.65454L33.1155 4.11748C33.6048 3.81911 34.0464 3.58042 34.0822 3.58042C34.118 3.58042 33.9509 3.83105 33.7122 4.12942C33.4854 4.43972 33.2945 4.72615 33.2945 4.77389C33.2945 4.82163 33.7003 4.90517 34.1896 4.95292C35.0489 5.02452 35.1086 5.01259 35.753 4.64261C36.4452 4.2607 36.4691 4.28457 35.9798 4.96485C35.8008 5.20354 35.8127 5.21548 36.6481 5.37063C37.5552 5.54965 37.4597 5.57352 38.6532 4.85744L39.0709 4.60681L38.677 5.17967C38.4622 5.48997 38.3071 5.76447 38.3309 5.77641C38.3429 5.80028 38.7009 5.89576 39.1067 6.0151C39.787 6.20606 39.8824 6.20606 40.2166 6.02704L40.5866 5.83608L40.3837 6.13445L40.1927 6.44476L40.873 6.74312L41.5533 7.04149L42.1978 6.67151L42.8542 6.30154L42.6036 6.70732C42.4723 6.92214 42.3649 7.13697 42.3649 7.18471C42.3649 7.32792 43.0571 7.30405 43.3316 7.16084C43.6419 6.98182 43.9164 6.42088 43.9164 5.91962C43.9164 5.35869 43.4032 4.73809 43.0332 4.8455C42.8184 4.91711 42.8065 4.90517 42.9377 4.73809C43.081 4.571 43.0213 4.49939 42.4723 4.18909L41.8397 3.83105L41.2191 4.17715C40.885 4.38005 40.5627 4.5352 40.515 4.5352C40.4673 4.5352 40.5985 4.30844 40.8014 4.03394L41.1833 3.52075L40.4314 3.24625C39.8228 3.01949 39.6318 2.99562 39.4528 3.10303C39.3335 3.18657 39.047 3.35366 38.8203 3.47301L38.4145 3.69977L38.7128 3.30592C38.8799 3.07916 39.0231 2.87627 39.0231 2.84047C39.0231 2.80466 38.677 2.67338 38.2593 2.56597L37.4836 2.35114L36.6362 2.84047C35.765 3.35366 35.7292 3.32979 36.302 2.61371L36.6362 2.17212L36.0753 2.04084C35.753 1.96923 34.9415 1.82602 34.2731 1.73054L33.0319 1.55152L32.0055 2.16019C31.4327 2.50629 30.7763 2.88821 30.5495 3.03142C30.1676 3.25818 30.1915 3.21045 30.8837 2.35114L31.6356 1.43217H30.5495C29.5112 1.43217 29.4157 1.45604 28.6877 1.86182C27.8284 2.33921 27.6374 2.33921 28.4609 1.86182C28.7593 1.6828 28.998 1.51571 28.998 1.49184C28.998 1.38443 27.6613 1.45604 26.3723 1.62313Z" fill="#58003F"/>
<path d="M12.7554 6.3607C12.5167 6.49198 12.2541 6.71874 12.1706 6.83809C12.0751 6.99324 12.2064 6.9455 12.5883 6.671C12.8986 6.45618 13.1731 6.22942 13.1969 6.18168C13.2686 6.06233 13.2686 6.06233 12.7554 6.3607Z" fill="#58003F"/>
<path d="M21.36 7.161C20.9781 7.31616 20.9065 7.38776 21.0855 7.38776C21.2407 7.3997 21.5271 7.29229 21.7419 7.161C22.2313 6.86264 22.0642 6.86264 21.36 7.161Z" fill="#58003F"/>
<path d="M42.6649 8.23438C42.3307 8.31793 42.3307 8.32986 42.6052 8.3418C42.7723 8.3418 42.9871 8.29406 43.0826 8.23438C43.2855 8.1031 43.1781 8.1031 42.6649 8.23438Z" fill="#58003F"/>
<path d="M7.42409 11.4457C7.04218 11.8038 6.86316 12.2334 7.2212 11.935C7.42409 11.768 7.92535 11.0996 7.85374 11.0996C7.82987 11.0996 7.63891 11.2548 7.42409 11.4457Z" fill="#58003F"/>
<path d="M5.67947 13.7127C5.56012 13.844 5.48852 14.0111 5.51239 14.0946C5.53626 14.1782 5.6556 14.0946 5.77495 13.9037C6.02558 13.5218 5.96591 13.3905 5.67947 13.7127Z" fill="#58003F"/>
<path d="M3.95159 16.5636C3.87999 16.7068 3.82031 16.8859 3.82031 16.9694C3.83225 17.0529 3.91579 16.9694 4.01127 16.7904C4.11868 16.5994 4.16642 16.4204 4.14255 16.3846C4.10675 16.3607 4.0232 16.4323 3.95159 16.5636Z" fill="#58003F"/>
<path d="M56.3903 19.8106C56.3068 19.9538 56.4142 19.9538 56.7484 19.8106C56.9751 19.7151 56.9751 19.7031 56.7245 19.7031C56.5813 19.6912 56.4261 19.7389 56.3903 19.8106Z" fill="#58003F"/>
<path d="M56.1187 20.9435C55.8919 21.1345 55.7129 21.4328 55.6293 21.8028C55.4981 22.2921 55.51 22.4592 55.7487 23.1753C55.9754 23.9033 56.0351 23.9869 56.2619 23.9153C56.5006 23.8437 56.5006 23.8437 56.3096 24.0704C56.1306 24.2614 56.1187 24.3688 56.2141 24.7149C56.5125 25.7055 56.8347 27.9969 56.8944 29.5962C57.157 36.4229 54.3285 43.2018 49.0175 48.4769C47.7286 49.7539 47.5973 50.0165 48.5162 49.4914C48.7788 49.3362 50.0916 48.5724 51.4403 47.7966C55.1281 45.6723 55.0207 45.7558 55.6413 44.6817C56.3693 43.4166 56.7989 42.5454 56.8467 42.2589C56.8706 42.1396 56.9422 41.9486 57.0257 41.8651C57.1928 41.6622 58.0282 39.4543 58.243 38.6904C58.3147 38.404 58.4101 38.0818 58.4459 37.9863C58.5056 37.8311 58.4698 37.8073 58.2908 37.867C58.0879 37.9505 58.0879 37.9266 58.3147 37.7476C58.4817 37.6044 58.6369 37.2344 58.7682 36.6496C59.0188 35.5158 59.0188 35.5039 58.6608 35.7306C58.2072 36.029 58.1953 35.9574 58.6488 35.5636C58.9591 35.2771 59.0665 35.0862 59.1262 34.6326C59.174 34.3223 59.2336 33.8688 59.2694 33.6063C59.3291 33.2363 59.3052 33.1647 59.1859 33.2482C59.0546 33.3198 59.0427 33.3079 59.1501 33.1647C59.2217 33.0692 59.3291 32.6037 59.3649 32.1264L59.4485 31.2551L59.174 31.3983L58.8995 31.5415L59.174 31.2432C59.4485 30.9448 59.4485 30.8971 59.3649 29.4888C59.2933 28.1879 59.2694 28.0566 59.0904 28.1879C58.9353 28.3072 58.9233 28.3072 59.0546 28.164C59.2933 27.8895 59.1859 26.9228 58.6608 24.5597L58.4579 23.6288L58.0879 23.8317L57.7179 24.0227L58.0282 23.6527L58.3385 23.2827L58.0998 22.4712C57.8015 21.4806 57.4912 21.0271 56.978 20.8122C56.4767 20.5974 56.5364 20.5974 56.1187 20.9435Z" fill="#58003F"/>
<path d="M52.9203 50.3898L52.5742 50.7598L52.9681 50.4972C53.171 50.354 53.35 50.175 53.35 50.1153C53.35 49.9482 53.3022 49.984 52.9203 50.3898Z" fill="#58003F"/>
<path d="M48.2147 54.4566C47.1525 55.2562 44.682 56.7003 43.0589 57.4642C42.2235 57.858 41.5312 58.2161 41.5312 58.2638C41.5312 58.4309 41.9967 58.3593 42.3906 58.1325C42.6054 58.0132 43.5124 57.5 44.3956 56.9868C49.074 54.2895 49.0382 54.3015 49.0501 54.027C49.0501 53.8599 48.8711 53.9554 48.2147 54.4566Z" fill="#58003F"/>
<path d="M38.0718 54.3737L37.7734 54.5527L38.0718 54.4692C38.2389 54.4334 38.4537 54.3498 38.5492 54.2902C38.7043 54.2066 38.7043 54.1947 38.5492 54.1947C38.4537 54.1947 38.2389 54.2663 38.0718 54.3737Z" fill="#58003F"/>
<path d="M34.1279 55.2576C33.9967 55.3411 34.0563 55.377 34.3666 55.377C34.6769 55.377 34.7366 55.3411 34.6053 55.2576C34.5099 55.1979 34.4024 55.1383 34.3666 55.1383C34.3308 55.1383 34.2234 55.1979 34.1279 55.2576Z" fill="#58003F"/>
<path d="M36.2232 59.8513C35.7578 60.0065 35.7578 60.0065 36.1158 60.0184C36.3068 60.0303 36.5813 59.9468 36.7125 59.8513C36.987 59.6365 36.8557 59.6365 36.2232 59.8513Z" fill="#58003F"/>
</g>
<defs>
<clipPath id="clip0_870_99279">
<rect width="61.1058" height="61.1058" fill="white"/>
</clipPath>
</defs>
</svg>
