<svg width="30" height="30" viewBox="0 0 30 30" fill="none" xmlns="http://www.w3.org/2000/svg">
<g clip-path="url(#clip0_870_32783)">
<path d="M12.6626 -0.00939564C12.7889 -0.00943822 12.9152 -0.00956501 13.0414 -0.00971774C13.4876 -0.0102553 13.9339 -0.0104997 14.3801 -0.010453C14.7418 -0.0104219 15.1036 -0.0108323 15.4653 -0.0116546C27.2575 -0.0378464 27.2575 -0.0378463 28.6858 1.36225C30.3893 3.47989 29.9626 8.05828 29.9558 10.6487C29.9551 10.9059 29.9555 11.1631 29.9562 11.4202C29.9733 19.1446 29.9733 19.1446 28.6514 20.6254C28.503 20.7424 28.3528 20.8363 28.1827 20.9184C28.2458 21.1021 28.3255 21.2509 28.4354 21.4091C28.8427 22.0425 28.953 22.789 28.9539 23.5258C28.9541 23.587 28.9544 23.6482 28.9547 23.7113C28.9556 23.9131 28.956 24.115 28.9563 24.3168C28.9567 24.4573 28.957 24.5979 28.9573 24.7384C28.9579 25.0328 28.9583 25.3271 28.9585 25.6214C28.9588 25.9986 28.9602 26.3757 28.9619 26.7528C28.963 27.0429 28.9633 27.333 28.9634 27.6232C28.9636 27.7622 28.964 27.9013 28.9648 28.0403C28.9658 28.2347 28.9657 28.4291 28.9653 28.6235C28.9658 28.6808 28.9664 28.7382 28.9669 28.7973C28.9647 29.1588 28.924 29.4252 28.6659 29.6994C28.6309 29.7274 28.5959 29.7555 28.5599 29.7843C28.5248 29.8131 28.4896 29.8419 28.4535 29.8715C28.2244 30.041 27.9921 30.0091 27.7183 30.009C27.6361 30.0094 27.6361 30.0093 27.5521 30.0097C27.3672 30.0103 27.1823 30.0106 26.9974 30.0108C26.8653 30.0111 26.7331 30.0115 26.601 30.0119C26.2412 30.013 25.8814 30.0136 25.5216 30.0141C25.2969 30.0144 25.0723 30.0147 24.8476 30.0151C24.2256 30.0161 23.6036 30.0169 22.9815 30.0174C22.8201 30.0175 22.6586 30.0176 22.4972 30.0177C22.457 30.0177 22.4169 30.0178 22.3756 30.0178C21.7257 30.0183 21.0758 30.0198 20.4259 30.0217C19.7586 30.0236 19.0914 30.0246 18.4242 30.0248C18.0496 30.025 17.6749 30.0255 17.3003 30.027C16.9478 30.0283 16.5954 30.0286 16.2429 30.028C16.1135 30.028 15.9842 30.0283 15.8548 30.0291C15.6781 30.0302 15.5015 30.0298 15.3249 30.029C15.2481 30.0299 15.2481 30.0299 15.1698 30.0309C14.8303 30.0274 14.6341 29.9612 14.3546 29.766C14.1429 29.5377 14.0542 29.3641 14.0546 29.0537C14.0544 28.9794 14.0544 28.9794 14.0543 28.9036C14.0545 28.8494 14.0547 28.7952 14.0549 28.7395C14.0549 28.6823 14.0549 28.6251 14.0549 28.5662C14.055 28.3769 14.0554 28.1876 14.0559 27.9984C14.056 27.8673 14.0561 27.7361 14.0561 27.605C14.0564 27.2597 14.0569 26.9144 14.0576 26.569C14.0582 26.2167 14.0584 25.8644 14.0587 25.5121C14.0594 24.8207 14.0604 24.1293 14.0616 23.4379C14.0173 23.4384 13.973 23.4389 13.9274 23.4395C13.506 23.4442 13.0846 23.4478 12.6632 23.45C12.4467 23.4513 12.2302 23.4529 12.0136 23.4556C11.8039 23.4582 11.5942 23.4595 11.3845 23.4601C11.2672 23.4608 11.1499 23.4626 11.0326 23.4645C10.1113 23.4647 9.30836 23.2388 8.62337 22.5956C8.44101 22.4032 8.30137 22.189 8.16469 21.9625C8.08761 21.8381 8.08761 21.8381 7.90926 21.7973C7.75514 21.7829 7.60179 21.7711 7.44738 21.7613C7.35111 21.7548 7.25485 21.7482 7.15858 21.7416C7.10783 21.7381 7.05708 21.7347 7.00478 21.7312C2.20808 21.4027 2.20808 21.4027 1.34676 20.6254C-0.430752 18.4896 0.0336291 13.8172 0.039073 11.1573C0.039392 10.9951 0.0395305 10.8329 0.0396515 10.6707C0.0415198 9.06163 0.067476 7.46162 0.233479 5.85978C0.237871 5.81606 0.242264 5.77234 0.24679 5.7273C0.618701 2.03149 0.618701 2.03149 1.40169 1.262C3.0589 0.0316499 6.27462 0.222848 8.28279 0.110268C8.32287 0.108005 8.36294 0.105743 8.40423 0.103412C9.82318 0.0247274 11.2416 -0.009124 12.6626 -0.00939564ZM3.15584 1.61173C3.09752 1.62283 3.0392 1.63392 2.97912 1.64535C2.60683 1.72269 2.21689 1.81177 1.95032 2.1004C1.24257 3.60261 1.20332 5.51717 1.11238 7.14884C1.1099 7.18998 1.10742 7.23111 1.10486 7.27349C1.03994 8.3755 1.04281 9.47844 1.04293 10.5819C1.04294 10.7966 1.04254 11.0113 1.04173 11.226C0.77789 15.8001 0.77789 15.8001 2.07068 19.9019C2.42785 20.1946 2.94456 20.2746 3.38655 20.3581C3.44914 20.37 3.51172 20.382 3.5762 20.3943C4.2634 20.5175 4.95616 20.5955 5.64974 20.673C5.73624 20.6828 5.73624 20.6828 5.82448 20.6927C6.68875 20.7928 6.68875 20.7928 7.5577 20.8012C7.42062 20.3519 7.23264 19.9357 7.03035 19.5121C6.99168 19.5121 6.95301 19.5121 6.91317 19.5121C6.88552 19.5799 6.88552 19.5799 6.85732 19.649C6.83224 19.7078 6.80717 19.7665 6.78133 19.8271C6.75686 19.8855 6.73239 19.944 6.70717 20.0042C6.61254 20.1701 6.56395 20.2146 6.38582 20.2738C6.20638 20.2958 6.20638 20.2958 6.03426 20.2738C5.88157 20.1466 5.86118 20.0604 5.83582 19.8641C5.8418 19.4939 6.07304 19.1659 6.24128 18.8471C6.28122 18.7683 6.28122 18.7683 6.32196 18.6879C6.34682 18.6408 6.37167 18.5937 6.39728 18.5452C6.50128 18.2223 6.35058 17.9429 6.21553 17.6495C6.19051 17.5945 6.19051 17.5945 6.16497 17.5384C6.11203 17.4222 6.05853 17.3063 6.00496 17.1903C5.95147 17.074 5.8981 16.9576 5.84495 16.8411C5.79682 16.7356 5.74829 16.6303 5.69975 16.5251C5.4898 16.0338 5.48991 15.4585 5.65706 14.9528C5.92899 14.3085 6.35244 13.954 6.99007 13.6894C7.4674 13.6085 7.87365 13.6145 8.33322 13.7716C8.42812 13.8039 8.42812 13.8039 8.52493 13.8368C8.57313 13.8534 8.62132 13.87 8.67098 13.8871C8.68641 13.8559 8.70184 13.8246 8.71774 13.7924C9.09341 13.032 9.46999 12.2721 9.84759 11.5127C10.0302 11.1454 10.2124 10.778 10.394 10.4102C10.5691 10.0553 10.7451 9.70093 10.9217 9.34679C10.989 9.2115 11.0559 9.07607 11.1226 8.9405C11.2159 8.75085 11.3103 8.56174 11.4049 8.37272C11.4323 8.31637 11.4598 8.26002 11.488 8.20196C11.7317 7.71985 11.7317 7.71985 12.0108 7.61759C12.2269 7.62125 12.2269 7.62125 12.421 7.67619C12.5089 7.7714 12.5089 7.7714 12.5382 7.91056C12.5179 8.2981 12.3625 8.59235 12.1869 8.93371C12.1565 8.99397 12.1261 9.05423 12.0948 9.11632C12.029 9.24673 11.9628 9.37701 11.8965 9.50716C11.7915 9.71298 11.6874 9.91918 11.5834 10.1255C11.3253 10.6375 11.0658 11.149 10.8062 11.6603C10.5867 12.0929 10.3676 12.5258 10.1494 12.9591C10.0466 13.1626 9.94305 13.3656 9.83944 13.5687C9.77678 13.6929 9.71416 13.8171 9.65159 13.9414C9.62244 13.998 9.59328 14.0546 9.56324 14.1129C9.53727 14.1649 9.51131 14.2169 9.48456 14.2704C9.46168 14.3155 9.4388 14.3605 9.41523 14.407C9.32647 14.6761 9.49987 14.9297 9.61054 15.1741C9.63782 15.2351 9.63782 15.2351 9.66566 15.2973C9.72577 15.4316 9.78613 15.5657 9.84651 15.6999C10.1132 16.2932 10.377 16.8871 10.6286 17.487C10.6704 17.5861 10.7123 17.6852 10.7541 17.7843C10.8146 17.9276 10.8748 18.0711 10.9339 18.215C10.9889 18.3486 11.0449 18.4817 11.1012 18.6147C11.117 18.6539 11.1327 18.6931 11.1489 18.7335C11.263 18.999 11.4008 19.2021 11.6593 19.3363C11.8879 19.3779 12.1128 19.3734 12.3446 19.3696C12.4132 19.3696 12.4819 19.3697 12.5526 19.3697C12.779 19.3695 13.0053 19.3673 13.2317 19.365C13.3888 19.3644 13.546 19.364 13.7031 19.3637C14.0741 19.3628 14.4451 19.3604 14.8162 19.3574C15.2387 19.3542 15.6613 19.3526 16.0838 19.3511C16.9527 19.348 17.8216 19.3429 18.6905 19.3363C18.5367 19.1801 18.3843 19.0443 18.2071 18.9152C17.3666 18.2632 16.8869 17.3283 16.6626 16.3018C16.5089 15.038 16.7078 13.8262 17.4783 12.7885C17.5489 12.7042 17.621 12.6212 17.6944 12.5395C17.7371 12.4914 17.7798 12.4432 17.8237 12.3937C18.5599 11.6099 19.5922 11.0961 20.6742 11.0549C21.9512 11.0365 23.0725 11.3018 24.0546 12.1648C24.8717 12.9624 25.4376 14.0188 25.4874 15.1762C25.4904 15.2232 25.4934 15.2701 25.4965 15.3186C25.5394 16.5221 25.0829 17.6338 24.2741 18.5126C23.9965 18.8016 23.7114 19.0555 23.378 19.2777C23.378 19.2971 23.378 19.3164 23.378 19.3363C23.4314 19.3369 23.4847 19.3374 23.5397 19.338C25.9353 19.3689 25.9353 19.3689 27.0122 19.998C27.1816 20.1028 27.1816 20.1028 27.3624 20.1567C27.5047 20.1123 27.5047 20.1123 27.6517 20.0358C27.7018 20.0122 27.7518 19.9885 27.8034 19.9642C28.134 19.7349 28.2362 19.4005 28.3292 19.0287C28.3475 18.9563 28.3475 18.9563 28.3662 18.8823C28.6109 17.8725 28.7222 16.8432 28.8089 15.8097C28.8125 15.7676 28.816 15.7255 28.8197 15.6822C28.8451 15.377 28.8667 15.0717 28.8858 14.766C28.8887 14.7204 28.8916 14.6748 28.8946 14.6278C28.9609 13.5307 28.9554 12.4316 28.9553 11.3329C28.9553 11.1183 28.9557 10.9036 28.9565 10.6889C29.1979 6.10037 29.1979 6.10037 27.8897 1.934C25.033 0.101775 18.5415 0.917097 15.3515 0.922838C15.0774 0.92328 14.8034 0.92312 14.5294 0.922627C8.8168 0.905692 8.8168 0.905692 3.15584 1.61173ZM18.4561 13.0668C18.4232 13.0985 18.3903 13.1301 18.3563 13.1627C17.912 13.6269 17.5772 14.3589 17.5772 15.0004C18.19 15.3068 19.3339 15.0038 19.9583 14.8207C20.7669 14.5308 21.3868 14.0921 21.7996 13.3305C21.9446 13.0762 21.9446 13.0762 22.1842 12.9936C22.3801 13.0081 22.4572 13.0183 22.6163 13.1254C22.7232 13.2829 22.7232 13.2829 22.8324 13.477C23.1928 14.0883 23.6812 14.7139 24.3931 14.9233C24.4255 14.9294 24.4579 14.9355 24.4913 14.9418C24.4423 14.0918 23.9572 13.3619 23.3576 12.7839C22.924 12.4288 22.4009 12.1436 21.8546 12.0121C21.8118 12.0015 21.7691 11.9908 21.725 11.9799C20.4643 11.7768 19.3522 12.1593 18.4561 13.0668ZM22.1475 14.4145C22.0778 14.4915 22.0112 14.5715 21.9461 14.6525C21.2259 15.4806 20.0494 15.8438 18.9835 15.9379C18.759 15.952 18.5344 15.9619 18.3096 15.9709C18.2503 15.9734 18.1909 15.9759 18.1297 15.9785C17.9846 15.9847 17.8395 15.9907 17.6944 15.9965C17.7513 16.6912 17.9892 17.2337 18.4561 17.7543C18.4917 17.7946 18.5273 17.835 18.5639 17.8765C18.7808 18.108 18.9931 18.2677 19.2691 18.4245C19.55 18.5961 19.55 18.5961 19.6324 18.7534C19.6628 18.8903 19.6775 19.0206 19.6866 19.1606C19.7286 19.6077 19.8129 19.8974 20.1357 20.2219C20.4459 20.4725 20.7587 20.5901 21.1588 20.5668C21.5338 20.5073 21.8066 20.378 22.078 20.1127C22.2976 19.7864 22.3838 19.513 22.4075 19.1203C22.4285 18.844 22.4588 18.7051 22.6749 18.516C22.8033 18.4248 22.9331 18.3377 23.0665 18.254C23.8388 17.7447 24.2673 16.9542 24.4652 16.067C24.4738 16.0244 24.4824 15.9818 24.4913 15.9379C24.4558 15.9244 24.4203 15.9109 24.3837 15.8969C23.5635 15.5777 22.9251 15.2012 22.3581 14.5133C22.3119 14.4644 22.3119 14.4644 22.2647 14.4145C22.2261 14.4145 22.1874 14.4145 22.1475 14.4145ZM6.74837 14.9381C6.53163 15.2416 6.44312 15.505 6.50301 15.8793C6.5866 16.1394 6.68887 16.3898 6.79598 16.641C6.81531 16.6873 6.83465 16.7335 6.85457 16.7811C6.89279 16.8715 6.9321 16.9614 6.97176 17.0512C7.01043 17.0512 7.0491 17.0512 7.08895 17.0512C7.66902 15.92 7.66903 15.92 8.26082 14.766C7.73975 14.3752 7.1843 14.4477 6.74837 14.9381ZM8.78817 15.7621C8.62094 16.0763 8.45511 16.3911 8.29052 16.7066C8.23074 16.8209 8.17065 16.935 8.11028 17.049C8.01914 17.2214 7.9293 17.3944 7.83968 17.5675C7.79631 17.6487 7.79631 17.6487 7.75206 17.7316C7.59707 18.0313 7.59707 18.0313 7.56182 18.3615C7.61247 18.5052 7.66536 18.6381 7.73714 18.7724C7.77498 18.8432 7.81282 18.914 7.85067 18.9848C8.27995 18.8482 8.69457 18.6853 9.11043 18.5124C9.17463 18.4862 9.23883 18.46 9.30498 18.4331C9.36586 18.4078 9.42674 18.3825 9.48946 18.3565C9.54471 18.3337 9.59996 18.3109 9.65689 18.2874C9.79312 18.2345 9.79312 18.2345 9.84285 18.1059C9.81267 17.9975 9.81267 17.9975 9.75807 17.8774C9.73812 17.8305 9.71817 17.7836 9.69762 17.7353C9.67553 17.6846 9.65344 17.6339 9.63068 17.5817C9.60849 17.5299 9.58629 17.478 9.56343 17.4246C9.4922 17.2584 9.42034 17.0926 9.34847 16.9267C9.30017 16.8143 9.25191 16.7019 9.2037 16.5895C9.0852 16.3135 8.96613 16.0378 8.84676 15.7621C8.82742 15.7621 8.80809 15.7621 8.78817 15.7621ZM9.71422 19.2228C9.65204 19.2501 9.65204 19.2501 9.58861 19.278C9.45598 19.3363 9.32349 19.3949 9.191 19.4535C9.10121 19.4931 9.01141 19.5326 8.9216 19.5721C8.70124 19.6691 8.481 19.7663 8.26082 19.8637C8.37401 20.2176 8.52377 20.5461 8.68196 20.8818C8.70874 20.9405 8.73552 20.9993 8.7631 21.0598C9.06735 21.7046 9.41963 22.1038 10.0827 22.3748C10.4976 22.516 10.9029 22.5254 11.3369 22.5245C11.4672 22.5242 11.5975 22.525 11.7279 22.5261C12.051 22.5286 12.3742 22.5293 12.6974 22.53C12.9718 22.5307 13.2462 22.5321 13.5206 22.5344C13.6486 22.5352 13.7767 22.5349 13.9047 22.5347C13.9834 22.5352 14.062 22.5358 14.1406 22.5365C14.2432 22.5366 14.2432 22.5366 14.3478 22.5368C14.5502 22.5614 14.6608 22.6136 14.8233 22.7348C14.891 22.8702 14.8898 22.9485 14.8908 23.0992C14.8913 23.1511 14.8918 23.2029 14.8923 23.2563C14.8925 23.3133 14.8928 23.3704 14.893 23.4291C14.8937 23.519 14.8937 23.519 14.8945 23.6107C14.8955 23.7411 14.8964 23.8715 14.8972 24.002C14.8984 24.208 14.9 24.414 14.9017 24.6201C14.9058 25.1317 14.9092 25.6434 14.9127 26.1551C14.9157 26.5874 14.9189 27.0196 14.9225 27.4518C14.924 27.6554 14.9252 27.859 14.9264 28.0627C14.9274 28.1867 14.9284 28.3107 14.9294 28.4348C14.9297 28.4919 14.9299 28.549 14.9302 28.6079C14.9306 28.6596 14.9311 28.7112 14.9316 28.7645C14.9321 28.8322 14.9321 28.8322 14.9325 28.9013C14.9294 29.0059 14.9294 29.0059 14.9991 29.0629C15.1215 29.0686 15.244 29.07 15.3665 29.07C15.4053 29.07 15.4441 29.0701 15.4841 29.0701C15.6151 29.0702 15.7461 29.0699 15.8771 29.0696C15.9706 29.0695 16.0642 29.0695 16.1577 29.0696C16.4124 29.0696 16.6671 29.0693 16.9218 29.0688C17.1877 29.0685 17.4536 29.0684 17.7194 29.0684C18.2233 29.0682 18.7271 29.0677 19.231 29.0671C19.8044 29.0665 20.3779 29.0661 20.9514 29.0659C22.1313 29.0652 23.3113 29.0642 24.4913 29.0629C24.4914 29.0143 24.4914 29.0143 24.4916 28.9647C24.4937 28.1764 24.4972 27.3881 24.5021 26.5998C24.5044 26.2186 24.5063 25.8374 24.5072 25.4561C24.5081 25.0884 24.5101 24.7206 24.5129 24.3529C24.5137 24.2124 24.5142 24.072 24.5142 23.9315C24.5144 23.7351 24.516 23.5387 24.5179 23.3423C24.5176 23.284 24.5173 23.2256 24.517 23.1655C24.523 22.7736 24.523 22.7736 24.6563 22.5815C24.8456 22.4616 24.9754 22.4691 25.1944 22.5004C25.3224 22.5815 25.3224 22.5815 25.4288 22.7348C25.4647 22.9369 25.4618 23.1374 25.4608 23.3423C25.4614 23.404 25.462 23.4658 25.4626 23.5294C25.4643 23.7336 25.4644 23.9378 25.4645 24.1419C25.4654 24.2835 25.4664 24.425 25.4674 24.5666C25.47 24.9392 25.4712 25.3118 25.472 25.6844C25.4732 26.0645 25.4756 26.4447 25.478 26.8249C25.4824 27.5709 25.4852 28.3169 25.4874 29.0629C26.2802 29.0629 27.0729 29.0629 27.8897 29.0629C27.9569 28.9285 27.9553 28.8548 27.9547 28.7054C27.9546 28.6551 27.9546 28.6047 27.9545 28.5529C27.9539 28.4698 27.9539 28.4698 27.9533 28.3851C27.9531 28.3269 27.9529 28.2687 27.9527 28.2087C27.952 28.0151 27.9508 27.8216 27.9495 27.628C27.9491 27.5619 27.9487 27.4957 27.9482 27.4275C27.946 27.0767 27.9435 26.726 27.9406 26.3752C27.9377 26.0141 27.9362 25.6531 27.9349 25.292C27.9337 25.0135 27.9315 24.7349 27.929 24.4564C27.928 24.3234 27.9274 24.1904 27.9272 24.0575C27.9246 22.9169 27.8118 22.0382 26.9998 21.1674C26.1958 20.403 25.2893 20.2593 24.2274 20.2437C24.1299 20.2418 24.0323 20.239 23.9349 20.2353C23.3852 20.1924 23.3852 20.1924 22.89 20.3728C22.8016 20.4924 22.7378 20.6083 22.6749 20.7426C22.2743 21.181 21.7726 21.4022 21.1844 21.4597C20.5437 21.4782 19.9969 21.2956 19.4708 20.9342C19.335 20.8012 19.335 20.8012 19.2702 20.675C19.1572 20.4594 19.0724 20.3025 18.8333 20.2255C18.6416 20.2081 18.4559 20.2075 18.2635 20.2123C18.1549 20.2119 18.1549 20.2119 18.0442 20.2115C17.8871 20.2113 17.7305 20.212 17.5735 20.2144C17.3249 20.2182 17.0765 20.2182 16.8279 20.2178C16.4344 20.2175 16.041 20.2197 15.6476 20.223C14.9439 20.2289 14.2402 20.2313 13.5365 20.2316C13.2899 20.2318 13.0433 20.2334 12.7967 20.2361C12.6065 20.2379 12.4164 20.2382 12.2262 20.2389C12.1247 20.2406 12.1247 20.2406 12.0211 20.2423C11.4931 20.2418 11.0486 20.1271 10.6632 19.7465C10.549 19.5698 10.549 19.5698 10.4471 19.3803C10.3856 19.2662 10.3216 19.1533 10.253 19.0434C10.0582 19.0434 9.88982 19.1448 9.71422 19.2228Z" fill="#58003F"/>
<path d="M6.16002 3.80001C6.25562 3.79961 6.25562 3.79961 6.35315 3.79921C6.42374 3.79923 6.49433 3.79924 6.56706 3.79925C6.6416 3.79903 6.71615 3.79882 6.79296 3.79859C7.00056 3.79801 7.20816 3.79779 7.41577 3.79763C7.63941 3.79741 7.86304 3.79684 8.08668 3.79633C8.62708 3.79517 9.16748 3.79458 9.70788 3.79406C9.9622 3.79381 10.2165 3.79349 10.4708 3.79318C11.3159 3.79219 12.161 3.79134 13.0061 3.79091C13.2255 3.7908 13.4449 3.79069 13.6643 3.79058C13.746 3.79053 13.746 3.79053 13.8295 3.79049C14.7133 3.79 15.597 3.78852 16.4808 3.78662C17.3876 3.78468 18.2943 3.78362 19.2011 3.78344C19.7105 3.78331 20.2198 3.78279 20.7292 3.7813C21.1629 3.78003 21.5965 3.77955 22.0302 3.78013C22.2516 3.78039 22.4729 3.78028 22.6943 3.77914C22.9341 3.77793 23.1739 3.77852 23.4137 3.77929C23.519 3.77833 23.519 3.77833 23.6264 3.77734C24.0934 3.781 24.0934 3.781 24.3319 3.91242C24.4554 4.0677 24.4701 4.19144 24.474 4.38809C24.4122 4.58334 24.3164 4.70215 24.1422 4.80396C23.8995 4.84886 23.6588 4.84345 23.4127 4.84117C23.3377 4.84162 23.2628 4.84208 23.1856 4.84255C22.9777 4.84378 22.7698 4.84317 22.562 4.84226C22.3377 4.8416 22.1135 4.84262 21.8893 4.84343C21.45 4.84473 21.0108 4.84445 20.5716 4.8436C20.2147 4.84294 19.8577 4.84285 19.5008 4.84317C19.45 4.84321 19.3992 4.84326 19.3469 4.8433C19.2438 4.8434 19.1406 4.84349 19.0375 4.84359C18.07 4.84442 17.1025 4.84346 16.1351 4.84189C15.3047 4.84058 14.4743 4.84081 13.644 4.84216C12.68 4.84373 11.716 4.84434 10.752 4.84344C10.6492 4.84335 10.5465 4.84326 10.4437 4.84317C10.3931 4.84312 10.3426 4.84308 10.2905 4.84303C9.9339 4.84278 9.57735 4.84321 9.2208 4.84389C8.78636 4.84472 8.35193 4.84449 7.91748 4.84293C7.69576 4.84216 7.47407 4.84186 7.25235 4.84283C7.01215 4.84386 6.77202 4.84263 6.53183 4.84117C6.46152 4.84182 6.39122 4.84247 6.31878 4.84315C5.84935 4.83757 5.84935 4.83757 5.6123 4.6682C5.47683 4.46134 5.46964 4.34352 5.50935 4.10084C5.70726 3.85015 5.84985 3.80059 6.16002 3.80001Z" fill="#58003F"/>
<path d="M17.6831 7.46292C17.7536 7.4624 17.8242 7.46189 17.8968 7.46136C18.0901 7.46029 18.2832 7.46054 18.4765 7.46147C18.6787 7.46221 18.881 7.46153 19.0833 7.46107C19.423 7.46053 19.7626 7.46123 20.1023 7.46263C20.4949 7.46422 20.8875 7.46371 21.2801 7.4621C21.6173 7.46077 21.9545 7.46058 22.2917 7.46134C22.493 7.4618 22.6944 7.46186 22.8957 7.46089C23.1202 7.45989 23.3446 7.46128 23.569 7.46292C23.6691 7.46203 23.6691 7.46203 23.7713 7.46112C24.2202 7.46719 24.2202 7.46719 24.4174 7.63869C24.5108 7.82953 24.5283 7.93541 24.4933 8.14536C24.4174 8.30046 24.4174 8.30046 24.2589 8.43832C24.0297 8.48382 23.8021 8.4783 23.569 8.47623C23.4985 8.47675 23.428 8.47726 23.3553 8.47779C23.1621 8.47886 22.9689 8.47861 22.7757 8.47768C22.5734 8.47694 22.3712 8.47762 22.1689 8.47808C21.8292 8.47862 21.4896 8.47791 21.1499 8.47652C20.7573 8.47492 20.3647 8.47544 19.972 8.47705C19.6349 8.47838 19.2977 8.47857 18.9605 8.4778C18.7591 8.47735 18.5578 8.47729 18.3565 8.47826C18.132 8.47926 17.9076 8.47787 17.6831 8.47623C17.583 8.47712 17.583 8.47712 17.4809 8.47803C17.0319 8.47196 17.0319 8.47196 16.8348 8.30046C16.7414 8.10962 16.7239 8.00374 16.7589 7.79379C16.9541 7.39485 17.2918 7.45944 17.6831 7.46292Z" fill="#58003F"/>
<path d="M6.1291 7.46124C6.18688 7.46047 6.18688 7.46047 6.24583 7.45968C6.37282 7.4584 6.4997 7.45925 6.62669 7.46024C6.71513 7.46004 6.80356 7.45976 6.892 7.45939C7.0772 7.45896 7.26237 7.45958 7.44758 7.46095C7.68483 7.46262 7.92199 7.46166 8.15924 7.45991C8.34181 7.45885 8.52436 7.45919 8.70694 7.45994C8.7944 7.46014 8.88187 7.4599 8.96933 7.45922C9.09168 7.45847 9.21386 7.45961 9.3362 7.46124C9.40575 7.46147 9.47531 7.46171 9.54697 7.46195C9.72484 7.49915 9.72484 7.49915 9.86448 7.63702C9.98118 7.82808 9.99593 7.92336 9.95921 8.14368C9.86448 8.29878 9.86448 8.29878 9.72484 8.43665C9.54697 8.47385 9.54697 8.47385 9.3362 8.47456C9.27842 8.47533 9.27842 8.47533 9.21947 8.47611C9.09248 8.4774 8.9656 8.47655 8.83861 8.47556C8.75017 8.47576 8.66174 8.47604 8.5733 8.47641C8.3881 8.47684 8.20293 8.47621 8.01772 8.47484C7.78047 8.47317 7.54331 8.47414 7.30606 8.47589C7.12349 8.47695 6.94094 8.47661 6.75836 8.47585C6.6709 8.47566 6.58343 8.4759 6.49597 8.47658C6.37362 8.47732 6.25144 8.47619 6.1291 8.47456C6.05955 8.47432 5.98999 8.47409 5.91833 8.47385C5.74046 8.43665 5.74046 8.43665 5.60082 8.29878C5.48412 8.10772 5.46937 8.01244 5.50609 7.79212C5.68097 7.50578 5.79862 7.46235 6.1291 7.46124Z" fill="#58003F"/>
</g>
<defs>
<clipPath id="clip0_870_32783">
<rect width="30" height="30" fill="white"/>
</clipPath>
</defs>
</svg>
