<svg width="24" height="24" viewBox="0 0 24 24" fill="none" xmlns="http://www.w3.org/2000/svg">
<path d="M11.981 17.7328C12.164 17.7328 12.3167 17.6717 12.439 17.5494C12.5613 17.427 12.6225 17.2748 12.6225 17.0926V11.1216C12.6225 10.9394 12.5609 10.7871 12.4377 10.6648C12.3145 10.5425 12.1619 10.4809 11.9797 10.4801C11.7975 10.4792 11.6453 10.5408 11.5229 10.6648C11.4006 10.7888 11.3395 10.9411 11.3395 11.1216V17.0926C11.3395 17.2739 11.4011 17.4262 11.5242 17.5494C11.6474 17.6725 11.8001 17.7341 11.9823 17.7341M11.981 8.45677C12.2051 8.45677 12.3928 8.38107 12.5442 8.22968C12.6947 8.07829 12.77 7.89097 12.77 7.66773C12.77 7.44363 12.6943 7.25589 12.5429 7.10449C12.3915 6.9531 12.2042 6.87783 11.981 6.87868C11.7577 6.87954 11.5704 6.95524 11.419 7.10577C11.2676 7.25631 11.1919 7.44406 11.1919 7.66901C11.1919 7.89396 11.2676 8.08128 11.419 8.23096C11.5704 8.38065 11.7577 8.45591 11.981 8.45677ZM11.981 23.65C11.8646 23.65 11.7419 23.6393 11.6127 23.6179C11.4836 23.5965 11.3638 23.5645 11.2535 23.5217C8.72772 22.5595 6.72069 20.9275 5.23241 18.6258C3.74414 16.3241 3 13.8325 3 11.1511V5.65599C3 5.21635 3.12531 4.82033 3.37592 4.46794C3.62567 4.11554 3.94942 3.86022 4.34715 3.70199L11.2561 1.136C11.5058 1.04533 11.7475 1 11.981 1C12.2145 1 12.4565 1.04533 12.7071 1.136L19.6148 3.70199C20.0117 3.86108 20.3354 4.1164 20.586 4.46794C20.8366 4.82033 20.9619 5.21635 20.9619 5.65599V11.1511C20.9619 13.8325 20.2178 16.3241 18.7295 18.6258C17.2413 20.9275 15.2346 22.5595 12.7097 23.5217C12.5977 23.5645 12.4775 23.5965 12.3492 23.6179C12.2209 23.6393 12.0981 23.65 11.981 23.65ZM11.981 22.4414C14.2048 21.7358 16.0438 20.3245 17.4978 18.2075C18.9519 16.0906 19.6789 13.7384 19.6789 11.1511V5.63161C19.6789 5.46739 19.6336 5.31942 19.5429 5.1877C19.4531 5.05598 19.3257 4.95761 19.1606 4.89261L12.253 2.32662C12.1709 2.2924 12.0802 2.2753 11.981 2.2753C11.8818 2.2753 11.7911 2.2924 11.709 2.32662L4.80133 4.89261C4.63625 4.95761 4.5088 5.05598 4.41899 5.1877C4.32833 5.31942 4.283 5.46739 4.283 5.63161V11.1511C4.283 13.7384 5.01003 16.0906 6.46409 18.2075C7.91815 20.3245 9.75711 21.7358 11.981 22.4414Z" fill="url(#paint0_linear_870_102245)"/>
<defs>
<linearGradient id="paint0_linear_870_102245" x1="3" y1="12.325" x2="20.9619" y2="12.325" gradientUnits="userSpaceOnUse">
<stop offset="0.3125" stop-color="#DC9750"/>
<stop offset="1" stop-color="#58003F"/>
</linearGradient>
</defs>
</svg>
