<svg width="24" height="20" viewBox="0 0 24 20" fill="none" xmlns="http://www.w3.org/2000/svg">
<g clip-path="url(#clip0_870_105265)">
<path d="M5.4 0C6.19565 0 6.95871 0.316071 7.52132 0.87868C8.08393 1.44129 8.4 2.20435 8.4 3C8.4 3.79565 8.08393 4.55871 7.52132 5.12132C6.95871 5.68393 6.19565 6 5.4 6C4.60435 6 3.84129 5.68393 3.27868 5.12132C2.71607 4.55871 2.4 3.79565 2.4 3C2.4 2.20435 2.71607 1.44129 3.27868 0.87868C3.84129 0.316071 4.60435 0 5.4 0ZM19.2 0C19.9956 0 20.7587 0.316071 21.3213 0.87868C21.8839 1.44129 22.2 2.20435 22.2 3C22.2 3.79565 21.8839 4.55871 21.3213 5.12132C20.7587 5.68393 19.9956 6 19.2 6C18.4044 6 17.6413 5.68393 17.0787 5.12132C16.5161 4.55871 16.2 3.79565 16.2 3C16.2 2.20435 16.5161 1.44129 17.0787 0.87868C17.6413 0.316071 18.4044 0 19.2 0ZM0 11.2013C0 8.9925 1.7925 7.2 4.00125 7.2H5.6025C6.19875 7.2 6.765 7.33125 7.275 7.56375C7.22625 7.83375 7.20375 8.115 7.20375 8.4C7.20375 9.8325 7.83375 11.1188 8.8275 12C8.82 12 8.8125 12 8.80125 12H0.79875C0.36 12 0 11.64 0 11.2013ZM15.1988 12C15.1912 12 15.1838 12 15.1725 12C16.17 11.1188 16.7963 9.8325 16.7963 8.4C16.7963 8.115 16.77 7.8375 16.725 7.56375C17.235 7.3275 17.8013 7.2 18.3975 7.2H19.9988C22.2075 7.2 24 8.9925 24 11.2013C24 11.6438 23.64 12 23.2013 12H15.1988ZM8.4 8.4C8.4 7.44522 8.77929 6.52955 9.45442 5.85442C10.1295 5.17929 11.0452 4.8 12 4.8C12.9548 4.8 13.8705 5.17929 14.5456 5.85442C15.2207 6.52955 15.6 7.44522 15.6 8.4C15.6 9.35478 15.2207 10.2705 14.5456 10.9456C13.8705 11.6207 12.9548 12 12 12C11.0452 12 10.1295 11.6207 9.45442 10.9456C8.77929 10.2705 8.4 9.35478 8.4 8.4ZM4.8 18.1987C4.8 15.4388 7.03875 13.2 9.79875 13.2H14.2013C16.9613 13.2 19.2 15.4388 19.2 18.1987C19.2 18.75 18.7537 19.2 18.1987 19.2H5.80125C5.25 19.2 4.8 18.7537 4.8 18.1987Z" fill="url(#paint0_linear_870_105265)" fill-opacity="0.45"/>
</g>
<defs>
<linearGradient id="paint0_linear_870_105265" x1="0" y1="9.6" x2="24" y2="9.6" gradientUnits="userSpaceOnUse">
<stop offset="0.3125" stop-color="#DC9750"/>
<stop offset="1" stop-color="#58003F"/>
</linearGradient>
<clipPath id="clip0_870_105265">
<path d="M0 0H24V19.2H0V0Z" fill="white"/>
</clipPath>
</defs>
</svg>
