<svg width="35" height="35" viewBox="0 0 35 35" fill="none" xmlns="http://www.w3.org/2000/svg">
<g clip-path="url(#clip0_870_32767)">
<path d="M9.04892 0.307602C8.78915 0.437485 8.4747 0.751938 7.66122 1.67479C7.08017 2.33104 6.57431 2.87108 6.54013 2.87108C6.49912 2.87108 6.12998 2.7617 5.71298 2.62498C4.77646 2.3242 4.21591 2.26952 3.62802 2.41991C2.8624 2.61815 2.43857 2.89158 1.76181 3.65037C1.09873 4.39549 0.893648 4.74412 0.886812 5.14061C0.886812 5.67381 1.18759 6.07713 1.87802 6.45994C2.10361 6.58299 3.73056 7.43065 5.50107 8.33983C7.27158 9.24901 8.7413 10.0215 8.76865 10.0488C8.80283 10.0762 8.34482 10.7803 7.75693 11.6074L6.68369 13.1113L5.40537 12.667C4.7081 12.4209 3.92197 12.1474 3.6622 12.0586C3.02646 11.8398 2.62998 11.7988 2.14462 11.8945C1.57041 12.0107 1.14658 12.2637 0.668062 12.7764C0.169038 13.3096 -0.0292039 13.7197 0.0186476 14.0957C0.0664992 14.4717 0.312593 14.7519 0.927827 15.1416C1.22861 15.3262 2.00791 15.832 2.66416 16.2695L3.86728 17.0556L3.69638 17.4658C3.23154 18.6006 3.69638 19.8721 4.73544 20.2685C5.0499 20.3848 5.0499 20.3848 5.08408 20.7744C5.11142 20.9863 5.17294 21.5332 5.23447 21.9912C5.41904 23.4336 6.06845 25.6211 6.3624 25.7783C6.58798 25.8945 6.90927 25.8262 7.0665 25.6142L7.20322 25.4297L6.92294 24.5889C6.4581 23.2217 6.23251 22.1211 6.12998 20.7265L6.0958 20.2959L6.33505 20.2002C6.46494 20.1455 6.65634 20.043 6.75888 19.9678L6.95029 19.831L8.2081 21.3144C9.71201 23.0918 9.84189 23.2148 10.1837 23.3174C10.6007 23.4404 10.9493 23.3105 11.3868 22.8594C12.1593 22.0732 12.4122 21.4785 12.3575 20.5967C12.3233 20.1113 12.2823 20.0156 11.4552 18.3408C10.7784 16.9736 10.6075 16.5771 10.669 16.5019C10.7784 16.3721 13.2599 14.1162 13.3145 14.1025C13.3419 14.0957 13.6769 14.5537 14.0597 15.1279C15.1602 16.7822 15.1329 16.748 15.4405 16.748C15.755 16.748 15.9259 16.584 15.9259 16.2764C15.9259 16.1055 15.7276 15.7568 15.0372 14.7383C14.5519 14.0137 14.1485 13.3984 14.1554 13.3574C14.1622 13.289 17.2247 10.5 17.252 10.541C17.2657 10.5547 17.9903 12.0996 18.8722 13.9795L20.4718 17.3974V18.0127C20.4718 18.792 20.3624 19.0312 19.6241 19.8242C19.1388 20.3437 19.0704 20.3916 18.9337 20.3301C18.8448 20.289 18.3868 19.6943 17.9151 19.0039C17.4435 18.3066 16.9786 17.7051 16.8897 17.664C16.5685 17.5 16.1993 17.7529 16.1993 18.1289C16.1993 18.293 17.6895 20.583 18.0313 20.9385C18.4415 21.376 19.0431 21.5127 19.5216 21.2871C19.7745 21.164 20.7315 20.1865 21.0528 19.7148C21.4083 19.209 21.545 18.6484 21.5177 17.876C21.4972 17.2129 21.4835 17.165 21.1007 16.3447C20.7657 15.6133 20.7247 15.4765 20.8067 15.3877C20.8546 15.3262 21.3399 14.7861 21.8731 14.1846C22.4063 13.583 22.9054 12.9678 22.9737 12.8174C23.1173 12.5029 23.1378 12.0039 23.0216 11.5937C22.9601 11.3818 22.7892 11.1699 22.2901 10.6777C21.5518 9.96678 21.1143 9.70702 20.6495 9.70702C20.0343 9.70702 19.8292 9.80956 19.2208 10.4385C18.9063 10.7529 18.6397 11.0058 18.6192 10.9922C18.6056 10.9785 18.4757 10.7051 18.3253 10.3838L18.0518 9.80956L18.6808 9.23534C20.0411 7.98436 20.5948 7.33494 21.0255 6.48045L21.2579 6.02244L21.6134 6.05662C22.2013 6.11815 23.5685 6.41209 24.1837 6.59666L24.7442 6.7744L24.5323 7.08202C24.211 7.5537 24.1085 7.92967 24.1427 8.51073C24.1974 9.33104 24.5528 9.92577 26.1114 11.8262C26.6378 12.4687 26.9659 13.0293 27.0343 13.4053C27.0958 13.7197 26.9864 13.9795 26.5079 14.6357C26.0636 15.2578 25.5509 16.2285 25.4005 16.7412C25.2501 17.2607 25.2569 18.0742 25.421 18.4365C25.6056 18.8398 26.0567 19.2431 26.5079 19.4209C26.7198 19.4961 27.2667 19.6191 27.7179 19.6875C28.6544 19.8242 28.8731 19.8994 29.1397 20.1523C29.4063 20.3984 29.502 20.6035 29.5909 21.082C29.7755 22.0732 30.4249 22.7158 31.505 22.9687C31.963 23.0781 33.0226 23.0234 33.378 22.8799C33.6173 22.7773 33.631 22.7773 33.631 22.8935C33.631 23.1055 33.2276 24.4385 32.9747 25.0674C32.8448 25.3955 32.5782 25.9629 32.3936 26.332L32.045 26.9951L31.6075 26.6601C30.3224 25.6758 29.0645 25.2246 27.6017 25.2246C25.9268 25.2246 24.5938 25.8603 23.753 27.0635C23.0763 28.0342 22.3653 28.5469 21.3263 28.8271C20.9913 28.9228 20.6358 28.9502 19.8907 28.9433C18.9952 28.9433 18.8517 28.9228 18.3526 28.7519C18.0177 28.6357 17.6417 28.4375 17.3614 28.2324C15.3653 26.7558 13.0753 26.8994 11.8995 28.581C11.5919 29.0117 11.38 29.5517 11.1612 30.4199L11.0997 30.6592L10.2794 29.8389C9.58212 29.1416 9.0831 28.5332 8.29697 27.4463C8.02353 27.0566 7.38095 27.2549 7.38095 27.7334C7.38095 28.0957 8.60458 29.668 9.74619 30.7617C11.6739 32.6211 14.0528 33.8994 16.7052 34.5215C18.9474 35.041 21.7296 34.9795 24.0128 34.3506C29.1397 32.9492 33.2413 28.7724 34.5196 23.6523C34.8751 22.2373 34.964 21.499 34.964 19.9267C34.964 18.1562 34.8067 17.083 34.3145 15.4834C33.3233 12.2158 31.1153 9.29002 28.1964 7.36229C26.5147 6.25487 24.252 5.40037 22.1808 5.09959C21.7159 5.03123 21.5724 4.99022 21.5929 4.91502C21.6065 4.86033 21.6339 4.38182 21.6544 3.84862C21.7159 2.00975 21.3673 1.1826 20.3214 0.704086C19.6173 0.382797 18.2638 0.430649 16.9171 0.833969C15.5704 1.23045 14.5313 2.09178 13.2667 3.86229C12.9112 4.34764 12.6036 4.7783 12.5763 4.81248C12.5284 4.8535 11.9952 4.71678 11.2911 4.47752C11.2296 4.45701 11.3458 4.28612 11.6192 3.98533C12.1524 3.40428 12.3165 3.05565 12.3097 2.52245C12.3097 1.94139 12.0909 1.57225 11.3321 0.916C10.9972 0.615219 10.6075 0.321274 10.4708 0.25975C10.0811 0.0751801 9.46591 0.102524 9.04892 0.307602ZM10.3341 1.41502C11.1476 2.11913 11.2774 2.27635 11.2774 2.54295C11.2774 2.76854 11.2091 2.87791 10.7169 3.43162C10.4093 3.78026 10.1222 4.06737 10.0811 4.06053C10.0401 4.05369 9.47275 3.87596 8.82333 3.65721C7.75693 3.30174 7.65439 3.25389 7.74326 3.15135C8.2081 2.59764 9.45224 1.23045 9.5206 1.20995C9.78036 1.10057 10.0606 1.16893 10.3341 1.41502ZM19.9933 1.68163C20.4239 1.90721 20.5948 2.3037 20.629 3.21287C20.7042 5.06541 20.2052 6.30956 18.8517 7.62889C17.4503 9.00291 6.23251 19.0996 5.97958 19.2158C5.45322 19.4551 4.88583 19.3389 4.68076 18.9355C4.54404 18.6689 4.55087 18.0742 4.70126 17.7598C4.89951 17.3359 14.6339 3.69823 15.0919 3.20604C15.5841 2.67284 16.3565 2.1328 16.9102 1.92088C18.0177 1.51073 19.4464 1.40135 19.9933 1.68163ZM8.33115 4.58006C11.8585 5.74217 11.8995 5.75584 11.8038 5.90623C11.7491 5.98143 11.2022 6.76073 10.5802 7.63573L9.45224 9.22166L5.85654 7.36229C3.88095 6.3369 2.1788 5.44139 2.06943 5.35936C1.90537 5.22948 1.89169 5.1953 1.96005 5.05174C2.06943 4.81932 2.91708 3.88963 3.17685 3.7119C3.50498 3.48631 4.02451 3.34959 4.41416 3.37694C4.6124 3.39061 6.25986 3.89647 8.33115 4.58006ZM26.4395 7.54686C27.6768 8.16893 28.8868 9.07127 29.9532 10.1582C32.2569 12.5029 33.5831 15.3877 33.9112 18.7373C34.0069 19.7695 33.9659 20.9453 33.8155 21.2256C33.5694 21.7041 33.1046 21.957 32.4005 21.998C31.9972 22.0185 31.8058 21.998 31.505 21.8818C30.9444 21.6699 30.7188 21.3965 30.589 20.7881C30.4044 19.9131 30.0352 19.4004 29.338 19.0449C28.9278 18.8398 28.6134 18.7578 27.9024 18.6689C27.0753 18.5664 26.795 18.4707 26.5421 18.2178C26.337 18.0127 26.3165 17.9512 26.3165 17.6025C26.3165 16.9805 26.6583 16.2217 27.4649 15.0732C27.8614 14.5127 28.087 13.9931 28.0938 13.6377C28.0938 13.2617 27.8888 12.6191 27.6085 12.1543C27.4649 11.9014 27.0069 11.2861 26.6036 10.7871C25.6124 9.55663 25.5167 9.42674 25.3253 9.00975C25.1476 8.62694 25.1134 8.2578 25.2227 7.95702C25.3116 7.73143 25.6876 7.24608 25.7765 7.24608C25.8106 7.24608 26.1114 7.3828 26.4395 7.54686ZM21.1007 10.999C21.8731 11.6211 22.0782 11.8603 22.0782 12.1133C22.0782 12.291 22.0167 12.4346 21.8595 12.626C21.3673 13.207 20.2735 14.4238 20.2393 14.4238C20.2188 14.417 19.9591 13.8974 19.6651 13.2549L19.1251 12.0928L19.296 11.874C19.3917 11.7578 19.6651 11.4502 19.9044 11.1904C20.4376 10.623 20.6017 10.5957 21.1007 10.999ZM4.49619 13.4463C5.33017 13.7402 6.01376 14 6.01376 14.0205C6.01376 14.0615 4.62607 16.0303 4.50986 16.1533C4.46201 16.208 1.24228 14.1435 1.13291 13.9863C1.08505 13.918 1.15341 13.7881 1.35849 13.542C1.77548 13.0498 2.23349 12.831 2.73251 12.8857C2.8624 12.8994 3.65537 13.1523 4.49619 13.4463ZM10.5255 18.7988C11.3321 20.4121 11.421 20.706 11.2774 21.2324C11.1954 21.5195 10.6007 22.2851 10.4571 22.2851C10.4093 22.2851 7.83212 19.3047 7.78427 19.1816C7.76376 19.1406 9.67099 17.3154 9.75302 17.3017C9.76669 17.2949 10.1153 17.9717 10.5255 18.7988ZM28.6544 26.3525C29.4952 26.5303 30.4591 27.0224 31.2384 27.6787L31.4708 27.8769L31.0675 28.4101C30.5343 29.1279 29.1602 30.4883 28.422 31.042C26.3917 32.5527 24.1358 33.4619 21.6681 33.7627C20.8409 33.8721 19.0226 33.8515 18.1817 33.7353C16.213 33.4551 14.169 32.7168 12.6036 31.7051L12.1251 31.3974L12.1729 30.8711C12.2345 30.208 12.4601 29.5381 12.7403 29.1689C13.6632 27.959 15.1397 27.9248 16.7804 29.0869C17.6895 29.7295 18.3595 29.9346 19.6856 29.9892C20.4376 30.0166 20.7247 29.9961 21.2579 29.8867C22.5909 29.6133 23.6026 29.0117 24.2315 28.1299C25.2022 26.7695 26.1046 26.2705 27.5811 26.2568C27.9229 26.2568 28.4015 26.2978 28.6544 26.3525Z" fill="#58003F"/>
<path d="M16.9454 2.99373C16.5557 3.04158 16.378 3.55428 16.6514 3.83455C16.7266 3.90974 16.9454 3.99178 17.1436 4.02596C17.6973 4.11482 18.1553 4.53181 18.3194 5.11971C18.3536 5.24275 18.4356 5.40681 18.4971 5.47517C18.6612 5.65974 19.0303 5.64607 19.2149 5.44783C19.6319 5.01033 18.921 3.68416 18.0118 3.21931C17.7042 3.06209 17.2188 2.95955 16.9454 2.99373Z" fill="#58003F"/>
</g>
<defs>
<clipPath id="clip0_870_32767">
<rect width="35" height="35" fill="white"/>
</clipPath>
</defs>
</svg>
