<svg width="26" height="26" viewBox="0 0 26 26" fill="none" xmlns="http://www.w3.org/2000/svg">
<path fill-rule="evenodd" clip-rule="evenodd" d="M3.46406 7.25898V18.7423H17.1141V7.25898H3.46406ZM3.2474 5.95898H17.3307C17.618 5.95898 17.8936 6.07312 18.0968 6.27629C18.2999 6.47945 18.4141 6.755 18.4141 7.04232V18.959C18.4141 19.2463 18.2999 19.5219 18.0968 19.725C17.8936 19.9282 17.618 20.0423 17.3307 20.0423H3.2474C2.96008 20.0423 2.68453 19.9282 2.48136 19.725C2.2782 19.5219 2.16406 19.2463 2.16406 18.959V7.04232C2.16406 6.755 2.2782 6.47945 2.48136 6.27629C2.68453 6.07312 2.96008 5.95898 3.2474 5.95898ZM20.7974 14.5422L23.6141 16.7956V9.20573L20.7974 11.4591V14.5422ZM19.4974 10.834L23.1536 7.90898C23.3129 7.78146 23.505 7.70151 23.7077 7.67834C23.9104 7.65516 24.1156 7.68972 24.2995 7.77801C24.4835 7.86631 24.6387 8.00476 24.7475 8.17742C24.8562 8.35008 24.9139 8.54994 24.9141 8.75398V17.2473C24.9139 17.4514 24.8562 17.6512 24.7475 17.8239C24.6387 17.9965 24.4835 18.135 24.2995 18.2233C24.1156 18.3116 23.9104 18.3461 23.7077 18.323C23.505 18.2998 23.3129 18.2198 23.1536 18.0923L19.4974 15.1673V10.834Z" fill="#58003F"/>
</svg>
