<svg width="35" height="35" viewBox="0 0 35 35" fill="none" xmlns="http://www.w3.org/2000/svg">
<g clip-path="url(#clip0_870_32775)">
<path d="M13.9349 -0.0440682C14.0356 -0.0445322 14.1363 -0.0451413 14.237 -0.0458832C14.5086 -0.0474319 14.7802 -0.0468412 15.0518 -0.0457536C15.3371 -0.0448833 15.6224 -0.0456921 15.9078 -0.0462274C16.3868 -0.0468478 16.8658 -0.0460334 17.3448 -0.044402C17.8972 -0.0425421 18.4496 -0.0431447 19.002 -0.0450262C19.4778 -0.0465814 19.9535 -0.0467942 20.4293 -0.0459017C20.7128 -0.045371 20.9963 -0.0452916 21.2798 -0.0464269C21.5465 -0.0474202 21.8131 -0.0467186 22.0797 -0.044754C22.1771 -0.0443052 22.2745 -0.0444264 22.3719 -0.0451856C23.022 -0.0497833 23.5544 0.0135043 24.0564 0.456638C24.4607 0.870282 24.5529 1.33766 24.5465 1.90087C24.5458 1.98034 24.5451 2.05982 24.5444 2.1417C24.5435 2.20198 24.5426 2.26227 24.5417 2.32438C24.6047 2.32347 24.6047 2.32347 24.669 2.32254C25.1093 2.31645 25.5496 2.31235 25.9899 2.30936C26.1539 2.30799 26.3178 2.30613 26.4818 2.30375C26.7185 2.3004 26.9552 2.29887 27.192 2.29767C27.2643 2.29626 27.3367 2.29485 27.4113 2.2934C28.2375 2.29315 28.9373 2.58397 29.5429 3.14469C30.1651 3.79598 30.3641 4.48676 30.3589 5.36343C30.3588 5.45602 30.3588 5.45602 30.3586 5.55048C30.3582 5.74688 30.3574 5.94328 30.3565 6.13969C30.3562 6.27315 30.3559 6.40662 30.3556 6.54009C30.3548 6.86663 30.3536 7.19316 30.3522 7.51969C30.4208 7.51897 30.4893 7.51826 30.5599 7.51752C30.8177 7.51502 31.0754 7.51347 31.3332 7.51218C31.4441 7.5115 31.555 7.51057 31.6659 7.50938C33.54 7.48973 33.54 7.48973 34.3043 8.1691C34.3536 8.2255 34.403 8.2819 34.4538 8.34C34.5003 8.38935 34.5469 8.4387 34.5948 8.48954C35.0143 9.0985 35.0416 9.71033 35.037 10.4274C35.0372 10.5291 35.0374 10.6309 35.0378 10.7327C35.0382 10.9449 35.0376 11.157 35.0363 11.3692C35.0348 11.6396 35.0357 11.91 35.0373 12.1805C35.0383 12.3903 35.038 12.6 35.0373 12.8098C35.0371 12.9095 35.0373 13.0091 35.0379 13.1088C35.0407 13.6665 35.0193 14.1392 34.7272 14.6291C34.696 14.6836 34.6647 14.7382 34.6324 14.7944C34.2253 15.3483 33.6946 15.6717 33.0183 15.7912C32.5606 15.8239 32.1009 15.8106 31.6425 15.804C31.5172 15.803 31.3919 15.802 31.2665 15.8012C30.9618 15.7989 30.657 15.7954 30.3522 15.7912C30.3544 15.9157 30.3544 15.9157 30.3566 16.0428C30.3616 16.354 30.3647 16.6653 30.3673 16.9765C30.3686 17.1107 30.3705 17.2448 30.3729 17.3789C30.393 18.5423 30.2578 19.3889 29.455 20.2815C28.7553 20.9457 27.8552 21.0782 26.9316 21.0682C26.8284 21.0679 26.8284 21.0679 26.723 21.0676C26.5058 21.0669 26.2885 21.0651 26.0712 21.0634C25.9229 21.0627 25.7745 21.0621 25.6261 21.0615C25.2646 21.06 24.9032 21.0577 24.5417 21.0548C24.543 21.138 24.543 21.138 24.5442 21.2229C24.5449 21.2961 24.5456 21.3693 24.5462 21.4447C24.5475 21.5533 24.5475 21.5533 24.5488 21.664C24.5315 22.1798 24.3432 22.5464 23.9927 22.9192C23.6259 23.2409 23.202 23.3882 22.7181 23.3868C22.6237 23.3868 22.6237 23.3868 22.5274 23.3868C22.46 23.3865 22.3926 23.3861 22.3232 23.3857C22.2538 23.3856 22.1844 23.3855 22.1129 23.3854C21.8914 23.3851 21.6699 23.3842 21.4484 23.3833C21.2982 23.383 21.1479 23.3827 20.9977 23.3824C20.6295 23.3816 20.2614 23.3805 19.8933 23.3791C19.8933 23.7851 19.8933 24.1912 19.8933 24.6095C20.0286 24.6546 20.164 24.6998 20.3034 24.7463C20.4559 24.8702 20.4559 24.8702 20.5897 25.0197C20.6343 25.0676 20.679 25.1156 20.725 25.165C21.0448 25.6667 21.0855 26.2158 21.0819 26.7969C21.0824 26.9046 21.0824 26.9046 21.083 27.0145C21.0839 27.2497 21.0833 27.4849 21.0826 27.7202C21.0827 27.8848 21.0829 28.0494 21.0832 28.214C21.0835 28.5581 21.0831 28.9022 21.0821 29.2463C21.0809 29.6864 21.0816 30.1265 21.0828 30.5666C21.0836 30.9062 21.0833 31.2458 21.0828 31.5854C21.0827 31.7477 21.0828 31.9099 21.0833 32.0722C21.0838 32.2992 21.083 32.5262 21.0819 32.7533C21.0823 32.8196 21.0827 32.886 21.0832 32.9544C21.0775 33.5624 20.9443 34.1419 20.5085 34.59C20.1682 34.847 19.8665 35.0072 19.4344 35.0123C19.3692 35.0131 19.3039 35.014 19.2366 35.0149C19.1309 35.0157 19.1309 35.0157 19.023 35.0164C18.9502 35.017 18.8775 35.0176 18.8025 35.0181C18.6483 35.0191 18.4942 35.0198 18.34 35.0203C18.1052 35.0215 17.8704 35.0245 17.6357 35.0275C17.4857 35.0282 17.3358 35.0288 17.1858 35.0293C17.116 35.0305 17.0462 35.0317 16.9743 35.0329C16.4374 35.0313 16.0794 34.9162 15.6721 34.5644C15.1666 33.9746 15.0874 33.4495 15.0893 32.6989C15.089 32.6279 15.0886 32.557 15.0883 32.4838C15.0873 32.2504 15.0874 32.017 15.0875 31.7835C15.0873 31.6204 15.087 31.4573 15.0866 31.2942C15.0861 30.9528 15.0862 30.6113 15.0865 30.2699C15.0869 29.8335 15.0858 29.3971 15.0842 28.9607C15.0832 28.6239 15.0831 28.2872 15.0833 27.9505C15.0833 27.7896 15.0829 27.6288 15.0822 27.4679C15.0814 27.2425 15.0819 27.0171 15.0826 26.7917C15.0821 26.726 15.0816 26.6603 15.0811 26.5926C15.0855 26.0196 15.1703 25.4526 15.5738 25.0197C15.6179 24.9703 15.6621 24.921 15.7076 24.8702C15.8601 24.7463 15.8601 24.7463 16.2702 24.6095C16.2702 24.2035 16.2702 23.7974 16.2702 23.3791C16.1782 23.3801 16.0861 23.3812 15.9913 23.3823C15.6477 23.386 15.3041 23.3884 14.9605 23.3903C14.8122 23.3914 14.6639 23.3928 14.5156 23.3945C14.3016 23.397 14.0876 23.3982 13.8736 23.3991C13.808 23.4002 13.7424 23.4012 13.6748 23.4023C13.041 23.4025 12.5483 23.2689 12.0816 22.8301C11.7233 22.4216 11.6117 21.9808 11.6175 21.4479C11.6181 21.3742 11.6187 21.3006 11.6194 21.2247C11.6206 21.1406 11.6206 21.1406 11.6218 21.0548C11.5535 21.055 11.5535 21.055 11.4838 21.0552C10.374 21.0583 9.26421 21.0605 8.1544 21.0619C7.61769 21.0626 7.08099 21.0636 6.54428 21.0652C6.07626 21.0665 5.60824 21.0674 5.14022 21.0677C4.89262 21.0679 4.64502 21.0683 4.39741 21.0693C4.12039 21.0704 3.84337 21.0704 3.56634 21.0704C3.48507 21.0709 3.40379 21.0714 3.32004 21.0719C2.38804 21.0696 1.49759 20.8804 0.79295 20.2222C0.255895 19.6073 -0.0321594 18.9377 -0.0258259 18.1245C-0.0261941 18.0667 -0.0265627 18.0089 -0.026942 17.9494C-0.0279131 17.7575 -0.0274333 17.5657 -0.0269451 17.3738C-0.0273353 17.2355 -0.0278115 17.0972 -0.0283669 16.9589C-0.0295909 16.5845 -0.0295134 16.2101 -0.0291231 15.8356C-0.0289115 15.5226 -0.0293281 15.2095 -0.0297406 14.8964C-0.0307 14.1575 -0.0305946 13.4187 -0.0298157 12.6798C-0.029031 11.9187 -0.0299934 11.1576 -0.0318257 10.3965C-0.0333422 9.74194 -0.0337933 9.08742 -0.0333924 8.43289C-0.0331624 8.04243 -0.0333249 7.65198 -0.0345033 7.26153C-0.0355635 6.89423 -0.0352871 6.52696 -0.0340037 6.15966C-0.0337525 6.02527 -0.0339621 5.89087 -0.0346796 5.75649C-0.0400764 4.66155 0.0875376 3.88614 0.885876 3.0782C1.59069 2.426 2.29774 2.30346 3.23264 2.30886C3.32431 2.30889 3.41597 2.30887 3.50763 2.3088C3.75533 2.30876 4.00303 2.30956 4.25072 2.31051C4.51001 2.31137 4.76929 2.31145 5.02858 2.31161C5.51906 2.31204 6.00954 2.31316 6.50002 2.31453C7.05864 2.31606 7.61725 2.31681 8.17586 2.3175C9.3245 2.31892 10.4731 2.32133 11.6218 2.32438C11.6204 2.26454 11.6191 2.2047 11.6177 2.14305C11.6162 2.02436 11.6162 2.02436 11.6146 1.90327C11.6132 1.82511 11.6119 1.74694 11.6105 1.6664C11.6357 1.15092 11.8611 0.693303 12.237 0.341955C12.7787 -0.0290859 13.296 -0.0490492 13.9349 -0.0440682ZM12.9206 1.50406C12.8013 1.71721 12.8013 1.71721 12.8522 2.32438C16.3037 2.32438 19.7552 2.32438 23.3112 2.32438C23.3538 1.7267 23.3538 1.7267 23.1061 1.29899C22.9246 1.20823 22.7871 1.2214 22.5837 1.22057C22.5017 1.22008 22.4196 1.21959 22.3351 1.21908C22.2437 1.21889 22.1523 1.2187 22.0609 1.21853C21.965 1.2181 21.8691 1.21764 21.7732 1.21717C21.5124 1.21598 21.2515 1.21525 20.9906 1.21469C20.8277 1.21434 20.6648 1.21392 20.5019 1.21349C19.9925 1.21219 19.483 1.21122 18.9735 1.21065C18.385 1.20998 17.7965 1.20818 17.208 1.20542C16.7534 1.20336 16.2987 1.20235 15.8441 1.20212C15.5724 1.20196 15.3008 1.20134 15.0291 1.19963C14.7736 1.19804 14.5181 1.19775 14.2626 1.19845C14.124 1.1985 13.9855 1.19719 13.8469 1.19585C13.7645 1.19632 13.682 1.1968 13.5971 1.19729C13.4896 1.19704 13.4896 1.19704 13.38 1.19679C13.1465 1.23927 13.0677 1.32213 12.9206 1.50406ZM1.73983 3.97755C1.69745 4.0284 1.65506 4.07924 1.61139 4.13163C1.56777 4.1823 1.52416 4.23297 1.47921 4.28517C1.23912 4.62659 1.21111 4.93458 1.2124 5.34345C1.21205 5.39937 1.21169 5.45529 1.21132 5.5129C1.21029 5.70013 1.21025 5.88735 1.2102 6.07458C1.20968 6.20889 1.2091 6.3432 1.20848 6.47751C1.20697 6.84235 1.20637 7.20718 1.20603 7.57201C1.20578 7.80006 1.20535 8.02811 1.20486 8.25617C1.20319 9.05211 1.2023 9.84806 1.20205 10.644C1.20181 11.3853 1.19976 12.1266 1.1969 12.8679C1.19453 13.5048 1.19347 14.1417 1.19342 14.7786C1.19337 15.1587 1.19277 15.5389 1.19083 15.9191C1.18904 16.2769 1.18889 16.6347 1.18998 16.9925C1.19011 17.1235 1.18965 17.2545 1.18856 17.3855C1.16503 18.3531 1.16503 18.3531 1.57294 19.2091C2.42849 20.0449 3.46859 19.8244 4.64911 19.8244C4.64911 14.4554 4.64911 9.08649 4.64911 3.55485C3.05378 3.40012 3.05378 3.40012 1.73983 3.97755ZM5.87958 3.55485C5.87958 8.92379 5.87958 14.2927 5.87958 19.8244C6.62402 19.8244 7.36845 19.8244 8.13544 19.8244C8.14705 19.1445 8.14705 19.1445 8.1558 18.4646C8.17828 17.5345 8.35572 16.699 9.0113 16.0011C9.97733 15.0935 11.1957 15.1485 12.4421 15.1076C12.3983 14.8203 12.3163 14.6953 12.1232 14.4782C11.8854 14.1589 11.7715 13.7597 11.6987 13.373C11.6022 13.0621 11.4852 13.0136 11.2116 12.8517C11.0033 12.5987 10.9704 12.3422 10.9173 12.0284C10.867 11.8142 10.7876 11.6367 10.6962 11.4367C10.4892 10.9073 10.4806 10.4134 10.491 9.85007C10.4938 9.68672 10.4938 9.52356 10.4933 9.36019C10.4968 8.46106 10.5533 7.52685 10.998 6.72501C11.0203 6.68122 11.0426 6.63742 11.0655 6.5923C11.5238 5.72031 12.3017 5.23315 13.2093 4.92016C13.8598 4.75266 14.493 4.69214 15.1636 4.69559C15.2414 4.69593 15.3191 4.69627 15.3992 4.69661C16.6555 4.71407 17.8273 5.02285 18.7739 5.88761C19.5966 6.76188 19.8412 7.94354 19.8321 9.10985C19.8239 9.32266 19.8055 9.53353 19.7864 9.74564C19.7632 10.0101 19.7563 10.2444 19.7993 10.5061C19.8619 10.9436 19.6888 11.33 19.513 11.7238C19.4279 11.9311 19.3873 12.0952 19.3507 12.3134C19.2971 12.6045 19.2256 12.7804 19.0046 12.9884C18.9374 13.0104 18.9374 13.0104 18.8689 13.0328C18.6514 13.1786 18.6301 13.405 18.5688 13.6464C18.4436 14.0935 18.2929 14.4172 17.9792 14.7658C17.9341 14.8335 17.889 14.9011 17.8425 14.9709C17.865 15.016 17.8876 15.0611 17.9108 15.1076C17.9525 15.1089 17.9941 15.1103 18.037 15.1117C20.4842 15.1955 20.4842 15.1955 21.3614 16.0128C21.9234 16.6612 22.1455 17.4187 22.1707 18.2623C22.1733 18.3445 22.176 18.4268 22.1786 18.5115C22.1816 18.6148 22.1845 18.7182 22.1876 18.8246C22.2024 19.3195 22.2024 19.3195 22.2175 19.8244C22.9619 19.8244 23.7063 19.8244 24.4733 19.8244C24.4733 14.4554 24.4733 9.08649 24.4733 3.55485C18.3374 3.55485 12.2015 3.55485 5.87958 3.55485ZM25.7038 3.55485C25.7038 8.92379 25.7038 14.2927 25.7038 19.8244C27.323 19.9395 27.323 19.9395 28.6643 19.2711C29.0287 18.8605 29.1319 18.4595 29.1323 17.9207C29.1326 17.8654 29.1329 17.8102 29.1332 17.7533C29.1341 17.5675 29.1345 17.3818 29.135 17.196C29.1355 17.0631 29.1361 16.9301 29.1366 16.7972C29.1384 16.3599 29.1395 15.9227 29.1405 15.4854C29.1408 15.3349 29.1412 15.1843 29.1416 15.0338C29.143 14.4074 29.1443 13.7811 29.1451 13.1547C29.1462 12.2574 29.1485 11.36 29.1524 10.4626C29.155 9.83157 29.1563 9.20051 29.1567 8.56945C29.157 8.19262 29.1578 7.81582 29.16 7.439C29.1621 7.08421 29.1625 6.72946 29.1617 6.37468C29.1617 6.24478 29.1622 6.11487 29.1634 5.98498C29.1791 4.93192 29.1791 4.93192 28.66 4.04107C27.837 3.25332 26.845 3.55485 25.7038 3.55485ZM12.3737 6.76774C11.8555 7.49216 11.7264 8.14329 11.6901 9.0236C11.8098 8.84411 11.8949 8.6759 11.9849 8.48099C12.1235 8.20216 12.239 8.02698 12.5104 7.86149C12.5711 7.82342 12.6317 7.78535 12.6942 7.74613C13.2498 7.52597 13.742 7.56208 14.2878 7.79313C14.3956 7.85266 14.5024 7.91389 14.6082 7.97684C14.8813 8.13493 15.0611 8.18735 15.3815 8.13492C15.6433 8.02962 15.8821 7.88868 16.1249 7.74613C16.6073 7.54352 17.0562 7.55274 17.5469 7.7245C17.9739 7.90893 18.2151 8.11632 18.4046 8.54481C18.4746 8.72536 18.5388 8.90646 18.5944 9.09196C18.617 9.09196 18.6395 9.09196 18.6628 9.09196C18.632 8.15025 18.4749 7.33707 17.7973 6.65318C16.9166 5.84468 15.7335 5.8193 14.599 5.86755C13.7801 5.92159 12.9595 6.16868 12.3737 6.76774ZM30.3522 8.75016C30.3522 10.6676 30.3522 12.5851 30.3522 14.5607C32.6064 14.7492 32.6064 14.7492 33.4284 14.2873C33.7187 13.9821 33.7785 13.754 33.7823 13.3408C33.7832 13.2587 33.7841 13.1765 33.785 13.0919C33.7855 13.003 33.786 12.9142 33.7865 12.8226C33.7868 12.7773 33.7871 12.732 33.7873 12.6853C33.7888 12.4455 33.7897 12.2057 33.7904 11.9659C33.7911 11.7188 33.7935 11.4717 33.7962 11.2246C33.798 11.0341 33.7986 10.8435 33.7988 10.653C33.7993 10.5178 33.8011 10.3826 33.8029 10.2475C33.8056 9.64775 33.8056 9.64775 33.4968 9.16031C32.704 8.38901 31.2617 8.75016 30.3522 8.75016ZM13.0875 8.92747C12.9216 9.2044 12.8405 9.51009 12.7414 9.81587C12.6292 10.0935 12.4974 10.3083 12.2455 10.4762C12.0626 10.5408 11.882 10.5697 11.6901 10.5959C11.8199 10.9965 11.8199 10.9965 11.9678 11.3905C12.0319 11.5529 12.0319 11.5529 12.0832 11.7964C12.1904 12.0912 12.3191 12.1406 12.5788 12.3048C12.7518 12.5581 12.8007 12.7935 12.848 13.091C12.9534 13.7112 13.3261 14.0508 13.8093 14.424C14.521 14.9568 14.521 14.9568 15.3498 15.0934C16.0705 14.8616 16.9461 14.233 17.364 13.6037C17.4308 13.4103 17.473 13.2144 17.5135 13.0141C17.6357 12.4466 17.6357 12.4466 17.7058 12.2365C17.8724 12.1596 17.8724 12.1596 18.0476 12.0998C18.2097 12.0379 18.2097 12.0379 18.2676 11.8148C18.2973 11.7234 18.3265 11.6318 18.3552 11.5401C18.377 11.4723 18.377 11.4723 18.3992 11.4032C18.428 11.3138 18.4566 11.2244 18.4849 11.1349C18.5425 10.9546 18.6025 10.7752 18.6628 10.5959C18.5796 10.5789 18.4964 10.562 18.4107 10.5446C18.1389 10.4893 17.9747 10.3771 17.7741 10.1857C17.6732 9.99638 17.6732 9.99638 17.5947 9.78837C17.5666 9.71628 17.5385 9.6442 17.5095 9.56994C17.484 9.50244 17.4586 9.43494 17.4323 9.36539C17.3269 9.03811 17.3269 9.03811 17.0905 8.81852C16.6975 8.77135 16.5115 8.86434 16.1986 9.07513C15.7711 9.34791 15.2561 9.34766 14.7663 9.29703C14.4336 9.21034 14.1297 9.09526 13.8373 8.91358C13.5918 8.77195 13.3014 8.7087 13.0875 8.92747ZM13.4675 15.7228C13.4903 16.2169 13.5756 16.6346 13.9217 17.0054C14.2956 17.3418 14.668 17.4924 15.1765 17.5002C15.7158 17.4519 16.0889 17.3323 16.4838 16.949C16.6824 16.638 16.9221 16.2137 16.8585 15.8363C16.838 15.7801 16.838 15.7801 16.8171 15.7228C16.7454 15.7566 16.6738 15.7903 16.6 15.8251C16.5057 15.8693 16.4115 15.9136 16.3172 15.9578C16.27 15.9801 16.2228 16.0023 16.1742 16.0252C15.6259 16.2822 15.136 16.3837 14.542 16.2005C14.269 16.088 14.0119 15.9682 13.7599 15.8139C13.6146 15.7113 13.6146 15.7113 13.4675 15.7228ZM9.84443 16.8849C9.09498 17.825 9.36591 18.3932 9.36591 19.8244C13.2009 19.8244 17.0358 19.8244 20.987 19.8244C21.0925 18.2228 21.0925 18.2228 20.4951 16.8708C20.0765 16.4549 19.5973 16.3367 19.0222 16.3314C18.9052 16.3318 18.7883 16.3326 18.6713 16.3338C18.6112 16.3341 18.5511 16.3344 18.4892 16.3347C18.342 16.3355 18.1948 16.3367 18.0476 16.338C18.0276 16.3951 18.0077 16.4521 17.9872 16.5108C17.6905 17.3254 17.3373 18.0025 16.5394 18.4059C15.7084 18.74 14.7564 18.7425 13.9163 18.4414C13.143 18.0813 12.7646 17.5994 12.4421 16.8166C12.392 16.6579 12.3482 16.4989 12.3054 16.338C12.1017 16.3343 11.8981 16.3316 11.6944 16.3295C11.6376 16.3284 11.5808 16.3272 11.5223 16.326C10.8617 16.3209 10.326 16.4064 9.84443 16.8849ZM12.8522 21.0548C12.8162 21.6117 12.8162 21.6117 13.0573 22.0119C13.2815 22.1544 13.4617 22.166 13.7247 22.1669C13.8453 22.1678 13.8453 22.1678 13.9683 22.1686C14.0563 22.1686 14.1443 22.1685 14.2349 22.1685C14.3287 22.1689 14.4224 22.1693 14.5162 22.1698C14.7707 22.1711 15.0252 22.1714 15.2797 22.1715C15.4388 22.1716 15.5978 22.1719 15.7568 22.1722C16.3117 22.1735 16.8666 22.174 17.4215 22.1739C17.9386 22.1738 18.4558 22.1753 18.9729 22.1774C19.417 22.1792 19.8612 22.18 20.3053 22.1799C20.5705 22.1798 20.8357 22.1802 21.1009 22.1817C21.3503 22.183 21.5997 22.183 21.8491 22.182C21.9842 22.1818 22.1192 22.183 22.2542 22.1841C22.3348 22.1836 22.4154 22.183 22.4985 22.1824C22.5684 22.1825 22.6383 22.1825 22.7103 22.1826C22.952 22.1395 23.067 22.043 23.2429 21.8752C23.3622 21.662 23.3622 21.662 23.3112 21.0548C19.8598 21.0548 16.4083 21.0548 12.8522 21.0548ZM17.5007 23.3791C17.5007 23.74 17.5007 24.1009 17.5007 24.4728C17.8842 24.4728 18.2677 24.4728 18.6628 24.4728C18.6628 24.1119 18.6628 23.7509 18.6628 23.3791C18.2793 23.3791 17.8958 23.3791 17.5007 23.3791ZM16.4069 25.9767C16.3439 26.1657 16.3297 26.2787 16.329 26.4736C16.3286 26.5331 16.3282 26.5926 16.3278 26.6539C16.3277 26.719 16.3276 26.7841 16.3276 26.8512C16.3272 26.9199 16.3269 26.9886 16.3265 27.0594C16.3255 27.2871 16.3251 27.5149 16.3247 27.7426C16.3243 27.9007 16.3239 28.0588 16.3235 28.2169C16.3228 28.5487 16.3224 28.8804 16.3221 29.2122C16.3218 29.6372 16.3201 30.0622 16.3182 30.4873C16.3169 30.814 16.3166 31.1407 16.3164 31.4674C16.3162 31.6241 16.3157 31.7808 16.3148 31.9374C16.3136 32.1567 16.3138 32.376 16.3142 32.5952C16.3136 32.6599 16.3129 32.7246 16.3123 32.7912C16.3145 33.1451 16.3423 33.3965 16.5436 33.7013C16.7762 33.8176 17.0412 33.7838 17.2972 33.786C17.3586 33.7865 17.4199 33.7871 17.4832 33.7877C17.6131 33.7886 17.7431 33.7893 17.8731 33.7899C18.0719 33.791 18.2707 33.794 18.4695 33.7971C18.5957 33.7978 18.7219 33.7983 18.8481 33.7988C18.9076 33.8 18.967 33.8012 19.0283 33.8024C19.3666 33.8035 19.3666 33.8035 19.6552 33.6397C19.8005 33.4339 19.8335 33.3214 19.8345 33.0729C19.8349 33.0128 19.8353 32.9527 19.8357 32.8908C19.8358 32.8247 19.8358 32.7586 19.8359 32.6905C19.8362 32.6211 19.8366 32.5516 19.8369 32.48C19.8379 32.2494 19.8384 32.0187 19.8388 31.7881C19.8392 31.6282 19.8396 31.4682 19.84 31.3083C19.8407 30.9727 19.8411 30.637 19.8413 30.3013C19.8417 29.871 19.8433 29.4407 19.8453 29.0104C19.8465 28.6799 19.8469 28.3495 19.847 28.019C19.8472 27.8603 19.8478 27.7017 19.8487 27.543C19.8498 27.3211 19.8497 27.0992 19.8493 26.8773C19.8499 26.8117 19.8505 26.746 19.8512 26.6783C19.8491 26.3445 19.8436 26.1073 19.6198 25.84C19.3549 25.6634 19.1311 25.6812 18.8235 25.6803C18.7655 25.6799 18.7074 25.6794 18.6476 25.6789C18.5247 25.6782 18.4018 25.6779 18.279 25.6779C18.0914 25.6777 17.904 25.6752 17.7164 25.6726C17.597 25.6722 17.4775 25.6719 17.3581 25.6718C17.3022 25.6708 17.2463 25.6698 17.1887 25.6688C16.8435 25.6716 16.6534 25.7114 16.4069 25.9767Z" fill="#58003F"/>
<path d="M3.21038 11.0731C3.41331 11.224 3.47211 11.3114 3.55218 11.5517C3.55909 11.6537 3.56232 11.7559 3.56319 11.8582C3.56385 11.92 3.56451 11.9818 3.56518 12.0456C3.56547 12.1122 3.56576 12.1789 3.56606 12.2475C3.56645 12.3162 3.56684 12.3849 3.56724 12.4557C3.56789 12.6011 3.56834 12.7465 3.5686 12.8918C3.56926 13.114 3.57138 13.3362 3.57354 13.5584C3.57399 13.6996 3.57435 13.8409 3.57461 13.9822C3.57545 14.0485 3.5763 14.1149 3.57717 14.1833C3.57574 14.6149 3.52417 14.8609 3.21038 15.1747C2.73995 15.2287 2.73995 15.2287 2.48618 15.0495C2.24448 14.7312 2.27257 14.4536 2.27631 14.0639C2.27599 13.9893 2.27566 13.9147 2.27532 13.8379C2.27509 13.6805 2.27572 13.523 2.27715 13.3656C2.27898 13.1247 2.27717 12.8841 2.27498 12.6433C2.27521 12.4902 2.27564 12.3371 2.27631 12.184C2.27562 12.1121 2.27493 12.0401 2.27422 11.966C2.28221 11.4668 2.28221 11.4668 2.48648 11.1987C2.7601 11.0046 2.88106 11.0261 3.21038 11.0731Z" fill="#58003F"/>
<path d="M27.6184 10.4585C27.8029 10.5815 27.9288 10.6693 28.0285 10.8686C28.0506 11.1373 28.0507 11.4066 28.0542 11.6761C28.0567 11.7509 28.0593 11.8256 28.0619 11.9027C28.0679 12.4532 28.0679 12.4532 27.8734 12.7298C27.5904 12.9136 27.4722 12.8985 27.1398 12.851C26.9737 12.7232 26.891 12.6267 26.7981 12.4409C26.7779 12.1835 26.779 11.9256 26.7767 11.6676C26.7747 11.5961 26.7727 11.5245 26.7707 11.4509C26.7663 10.9217 26.7663 10.9217 26.9276 10.6521C27.1612 10.4488 27.3102 10.4282 27.6184 10.4585Z" fill="#58003F"/>
<path d="M2.9057 8.0957C3.18073 8.13991 3.29419 8.20936 3.48675 8.40759C3.56202 8.63341 3.56894 8.8108 3.5722 9.04846C3.57396 9.12513 3.57573 9.20179 3.57754 9.28078C3.55278 9.52427 3.49582 9.64875 3.35003 9.84314C3.14961 9.96231 3.03223 9.98084 2.79889 9.97131C2.5559 9.89893 2.47658 9.84096 2.32464 9.63806C2.29538 9.43484 2.28325 9.26381 2.28619 9.06128C2.28456 9.00995 2.28293 8.95862 2.28125 8.90574C2.28201 8.6187 2.30185 8.50547 2.48299 8.27087C2.66644 8.13416 2.66644 8.13416 2.9057 8.0957Z" fill="#58003F"/>
</g>
<defs>
<clipPath id="clip0_870_32775">
<rect width="35" height="35" fill="white"/>
</clipPath>
</defs>
</svg>
