<svg width="100" height="83" viewBox="0 0 100 83" fill="none" xmlns="http://www.w3.org/2000/svg">
<path d="M52.953 54.0917H44.8134C44.2939 54.0917 43.8728 54.5124 43.8728 55.0307C43.8728 55.5502 44.2939 55.9697 44.8134 55.9697H47.9432V64.5793C47.9432 65.0971 48.3643 65.5183 48.8821 65.5183C49.4004 65.5183 49.8211 65.0971 49.8211 64.5793V55.9697H52.953C53.4708 55.9697 53.8919 55.5502 53.8919 55.0307C53.8919 54.5124 53.4708 54.0917 52.953 54.0917ZM64.2807 63.6403H57.0805V60.744H62.2854C62.8032 60.744 63.2244 60.3228 63.2244 59.805C63.2244 59.2855 62.8032 58.866 62.2854 58.866H57.0805V55.9697H64.2807C64.7989 55.9697 65.2196 55.5502 65.2196 55.0307C65.2196 54.5124 64.7989 54.0917 64.2807 54.0917H56.1416C55.622 54.0917 55.2026 54.5124 55.2026 55.0307V64.5793C55.2026 65.0971 55.622 65.5183 56.1416 65.5183H64.2807C64.7989 65.5183 65.2196 65.0971 65.2196 64.5793C65.2196 64.0598 64.7989 63.6403 64.2807 63.6403ZM40.6842 56.6942C40.6842 56.2954 40.3601 55.9697 39.9614 55.9697H35.1471C34.7483 55.9697 34.4226 56.2954 34.4226 56.6942V62.9158C34.4226 63.3146 34.7483 63.6403 35.1471 63.6403H39.9614C40.3601 63.6403 40.6842 63.3146 40.6842 62.9158V56.6942ZM42.5621 56.6942V62.9158C42.5621 64.3503 41.3958 65.5183 39.9614 65.5183H35.1471C33.7126 65.5183 32.5446 64.3503 32.5446 62.9158V56.6942C32.5446 55.2593 33.7126 54.0917 35.1471 54.0917H39.9614C41.3958 54.0917 42.5621 55.2593 42.5621 56.6942ZM49.7626 16.7314C49.7626 13.1165 46.8327 10.187 43.2183 10.187C39.6038 10.187 36.6739 13.1165 36.6739 16.7314C36.6739 20.3454 39.6038 23.2766 43.2183 23.2766C46.8327 23.2766 49.7626 20.3454 49.7626 16.7314ZM55.5838 29.3805H30.8528V4.08228H55.5838V29.3805ZM31.1592 55.3985L27.0888 64.9472C26.9427 65.2935 26.6028 65.5178 26.2263 65.5178C25.8494 65.5178 25.5095 65.2935 25.3617 64.9472L21.2921 55.3985C21.0889 54.922 21.3111 54.3706 21.7881 54.1656C22.2655 53.9641 22.8173 54.185 23.0201 54.6628L26.2263 62.1827L29.4325 54.6628C29.6341 54.185 30.1871 53.9641 30.6637 54.1656C31.1403 54.3706 31.3629 54.922 31.1592 55.3985Z" fill="#58003F"/>
<mask id="mask0_870_98867" style="mask-type:luminance" maskUnits="userSpaceOnUse" x="8" y="3" width="70" height="80">
<path d="M8.7334 3.14294H77.7155V82.5825H8.7334V3.14294Z" fill="white"/>
</mask>
<g mask="url(#mask0_870_98867)">
<path d="M39.1867 18.4809C38.8197 18.1143 38.8197 17.5196 39.1867 17.153C39.5537 16.786 40.148 16.786 40.515 17.153L41.9636 18.6021L45.9356 14.6288C46.3026 14.2622 46.8969 14.2622 47.2639 14.6288C47.6309 14.9958 47.6309 15.5901 47.2639 15.9571L42.628 20.5943C42.4436 20.7769 42.2038 20.8693 41.9636 20.8693C41.7238 20.8693 41.4823 20.7769 41.2997 20.5943L39.1867 18.4809ZM75.8384 80.7046H10.6122V36.9524H75.8384V80.7046ZM21.092 25.2126H29.92V28.4412H25.1457C24.6278 28.4412 24.2076 28.8623 24.2076 29.3801C24.2076 29.898 24.6278 30.3191 25.1457 30.3191H61.3032C61.8214 30.3191 62.2421 29.898 62.2421 29.3801C62.2421 28.8623 61.8214 28.4412 61.3032 28.4412H56.5289V25.2126H65.3564L74.6076 35.0728H11.8412L21.092 25.2126ZM31.7996 5.02087H54.651V28.4412H31.7996V5.02087ZM77.7155 36.0023C77.7137 35.9451 77.709 35.891 77.6978 35.8355C77.6948 35.8209 77.6901 35.8068 77.6871 35.7926C77.6772 35.7526 77.666 35.7148 77.6501 35.6765C77.6441 35.6589 77.6377 35.6417 77.6295 35.6258C77.6123 35.5859 77.59 35.5463 77.5663 35.5081C77.5612 35.5004 77.5565 35.4922 77.5517 35.4827C77.5247 35.4428 77.4946 35.4062 77.4615 35.3697L66.4492 23.6303C66.2713 23.4413 66.0238 23.3347 65.7629 23.3347H56.5289V4.08191C56.5289 3.56322 56.1077 3.14294 55.5899 3.14294H30.8589C30.3411 3.14294 29.92 3.56322 29.92 4.08191V23.3347H20.6855C20.4259 23.3347 20.1776 23.4413 20.0001 23.6303L8.9878 35.3697C8.95428 35.4067 8.9242 35.4432 8.89713 35.4827C8.89154 35.4922 8.8881 35.5004 8.88251 35.5081C8.85802 35.5463 8.83696 35.5859 8.81849 35.6258C8.81118 35.6417 8.80473 35.6589 8.79872 35.6748C8.78368 35.7148 8.77121 35.753 8.76219 35.7926C8.75832 35.8068 8.75403 35.8209 8.75145 35.8355C8.7407 35.891 8.73512 35.9451 8.73469 36.0023C8.73469 36.0053 8.7334 36.0087 8.7334 36.0135V81.6435C8.7334 82.1614 9.1541 82.5825 9.67236 82.5825H76.7765C77.296 82.5825 77.7155 82.1614 77.7155 81.6435V36.0023Z" fill="#58003F"/>
</g>
<mask id="mask1_870_98867" style="mask-type:luminance" maskUnits="userSpaceOnUse" x="0" y="0" width="16" height="17">
<path d="M0 0H15.1815V16.3916H0V0Z" fill="white"/>
</mask>
<g mask="url(#mask1_870_98867)">
<mask id="mask2_870_98867" style="mask-type:luminance" maskUnits="userSpaceOnUse" x="-1" y="-3" width="19" height="23">
<path d="M6.71167 -2.4873L17.604 1.80055L10.6893 19.3662L-0.203125 15.0784L6.71167 -2.4873Z" fill="white"/>
</mask>
<g mask="url(#mask2_870_98867)">
<mask id="mask3_870_98867" style="mask-type:luminance" maskUnits="userSpaceOnUse" x="-1" y="-3" width="19" height="23">
<path d="M6.71362 -2.48853L17.606 1.79933L10.6912 19.365L-0.201172 15.0771L6.71362 -2.48853Z" fill="white"/>
</mask>
<g mask="url(#mask3_870_98867)">
<mask id="mask4_870_98867" style="mask-type:luminance" maskUnits="userSpaceOnUse" x="-1" y="-3" width="19" height="23">
<path d="M6.71557 -2.48975L17.608 1.7981L10.6932 19.3638L-0.199219 15.0759L6.71557 -2.48975Z" fill="white"/>
</mask>
<g mask="url(#mask4_870_98867)">
<path d="M9.47492 14.3263C9.60599 14.5153 9.82558 14.5643 10.0211 14.6593C10.3984 14.8428 10.5127 15.2287 10.3082 15.5871C10.2398 15.707 10.1775 15.8312 10.1174 15.9558C9.93516 16.3318 9.77573 16.4388 9.36405 16.3318C8.84795 16.1982 8.30219 16.2527 7.79597 16.0203C7.58282 15.9227 7.27599 15.9481 7.03663 16.0104C6.75344 16.0843 6.51021 16.0379 6.30136 15.8883C6.09208 15.7384 5.90042 15.7397 5.69415 15.8342C5.49734 15.9249 5.31384 15.9236 5.12132 15.8312C4.97307 15.7603 4.82223 15.7813 4.6585 15.8002C3.85276 15.8956 3.04916 15.8127 2.13384 15.563C1.93229 15.508 1.73891 15.5446 1.54339 15.5678C1.22539 15.6047 0.957235 15.5304 0.738502 15.282C0.635367 15.1638 0.499572 15.0749 0.385694 14.9653C0.0857417 14.6756 0.0436282 14.4676 0.274823 14.123C0.415775 13.9129 0.605286 13.7289 0.800384 13.5644C0.877305 13.4999 1.05349 13.4694 1.13901 13.5128C1.4626 13.6774 1.82916 13.6348 2.16607 13.7784C2.46817 13.9077 2.84375 13.8957 3.18668 13.8944C3.60309 13.8922 4.00789 13.9107 4.4243 13.9739C5.13894 14.0826 5.8755 14.016 6.58885 14.1827C6.98549 13.9692 7.34303 14.1668 7.7285 14.2519C8.10666 14.3349 8.51147 14.2683 8.88705 14.447C9.05593 14.5278 9.21923 14.3383 9.47492 14.3263ZM4.10501 6.24003C4.07923 6.41407 4.11747 6.54514 4.24038 6.66976C4.74058 7.17684 5.09511 7.85324 5.86089 8.05005C5.95414 8.07412 5.92707 8.18413 5.9666 8.24429C6.18405 8.57561 6.42684 8.94475 6.8222 9.0062C7.21067 9.06637 7.45046 9.27564 7.60001 9.55798C7.86816 10.0629 8.3963 10.2529 8.75942 10.6349C9.10578 10.634 9.29916 10.8833 9.45558 11.1248C9.62232 11.3826 9.85266 11.5687 10.0662 11.7681C10.2888 11.9761 10.6807 11.8815 10.8909 12.166C10.9167 12.2012 11.0426 12.1793 11.1165 12.1609C11.7087 12.0126 11.9674 11.3096 11.6356 10.7926C11.4805 10.5507 11.1865 10.4381 11.0477 10.2417C10.829 9.9327 10.5763 9.73331 10.2566 9.56657C10.1436 9.50727 10.0847 9.35171 9.98759 9.25373C9.71299 8.97483 9.46762 8.67445 9.09676 8.4901C8.6073 8.24644 7.99235 8.1158 7.8789 7.42737C7.87332 7.39428 7.82218 7.37194 7.80241 7.33799C7.59786 6.98475 7.22142 6.99034 6.88408 6.91342C6.84712 6.32168 6.24679 6.24905 5.94555 5.89925C5.7122 5.62852 5.25798 5.51765 4.85618 5.4721C4.62198 5.44546 4.37617 5.41022 4.13294 5.65087C4.12521 5.84683 4.1338 6.04622 4.10501 6.24003ZM14.6626 8.85107C14.7503 8.80552 15.1491 8.04704 15.1319 7.94563C15.064 7.54555 15.171 7.1141 14.9136 6.74582C14.8418 6.64269 14.8599 6.51592 14.9028 6.39946C14.9475 6.27913 14.9325 6.16139 14.8779 6.05138C14.7503 5.79655 14.7206 5.52195 14.6833 5.24434C14.5999 4.61908 14.2797 4.03594 14.3498 3.38189C14.0387 3.00803 14.1057 2.57099 14.1379 2.13825C14.1422 2.0811 14.1353 2.01191 14.1066 1.96464C13.9721 1.74505 14.0056 1.50655 14.0094 1.26934C14.018 0.73733 13.6889 0.25861 13.202 0.0776933C13.006 0.00463913 12.777 -0.0353259 12.639 0.115939C12.4293 0.346275 12.2127 0.6097 12.1221 0.898479C12.0383 1.16749 12.0834 1.49323 12.3219 1.73259C12.3601 1.77083 12.3808 1.84088 12.3829 1.89717C12.3992 2.32003 12.2613 2.76222 12.5436 3.15113C12.3275 3.54347 12.5479 3.87608 12.6768 4.22803C12.7288 4.37156 12.7112 4.54044 12.7228 4.69816C12.7327 4.8361 12.6996 4.99209 12.7533 5.10898C12.9888 5.62079 12.991 6.19104 13.1766 6.71617C13.2308 6.86958 13.3348 7.05909 13.2587 7.23442C13.144 7.49656 13.3021 7.75139 13.275 7.97528C13.2041 8.55799 13.6807 8.63277 13.9286 8.87256C14.2075 8.97612 14.4392 8.96839 14.6626 8.85107Z" fill="#58003F"/>
</g>
</g>
</g>
</g>
<mask id="mask5_870_98867" style="mask-type:luminance" maskUnits="userSpaceOnUse" x="84" y="19" width="16" height="22">
<path d="M84.498 19.3629H99.6301V40.155H84.498V19.3629Z" fill="white"/>
</mask>
<g mask="url(#mask5_870_98867)">
<mask id="mask6_870_98867" style="mask-type:luminance" maskUnits="userSpaceOnUse" x="84" y="19" width="16" height="22">
<path d="M84.5684 21.584L96.0662 19.3881L99.6076 37.9309L88.1093 40.1264L84.5684 21.584Z" fill="white"/>
</mask>
<g mask="url(#mask6_870_98867)">
<mask id="mask7_870_98867" style="mask-type:luminance" maskUnits="userSpaceOnUse" x="84" y="19" width="16" height="22">
<path d="M99.6971 19.3584H84.5156V40.1505H99.6971V19.3584Z" fill="white"/>
</mask>
<g mask="url(#mask7_870_98867)">
<mask id="mask8_870_98867" style="mask-type:luminance" maskUnits="userSpaceOnUse" x="85" y="20" width="15" height="19">
<path d="M85.8164 20.679H99.4578V38.1707H85.8164V20.679Z" fill="white"/>
</mask>
<g mask="url(#mask8_870_98867)">
<mask id="mask9_870_98867" style="mask-type:luminance" maskUnits="userSpaceOnUse" x="84" y="19" width="16" height="22">
<path d="M84.5742 21.5787L96.0721 19.3828L99.6135 37.9257L88.1152 40.1212L84.5742 21.5787Z" fill="white"/>
</mask>
<g mask="url(#mask9_870_98867)">
<mask id="mask10_870_98867" style="mask-type:luminance" maskUnits="userSpaceOnUse" x="84" y="19" width="16" height="22">
<path d="M96.0686 19.3799L84.5703 21.5758L88.1117 40.1182L99.6096 37.9228L96.0686 19.3799Z" fill="white"/>
</mask>
<g mask="url(#mask10_870_98867)">
<mask id="mask11_870_98867" style="mask-type:luminance" maskUnits="userSpaceOnUse" x="84" y="19" width="16" height="22">
<path d="M96.0549 19.3794L84.5566 21.5753L88.098 40.1178L99.5959 37.9223L96.0549 19.3794Z" fill="white"/>
</mask>
<g mask="url(#mask11_870_98867)">
<path d="M90.2459 35.3946C90.0822 35.5562 89.8574 35.5639 89.6477 35.6211C89.2425 35.7311 89.059 36.0895 89.1935 36.4793C89.2386 36.6099 89.2764 36.7431 89.3125 36.8768C89.4221 37.2803 89.5588 37.4148 89.9833 37.386C90.5154 37.3503 91.0418 37.505 91.5819 37.3705C91.8097 37.3142 92.1062 37.3959 92.3301 37.5012C92.5944 37.6266 92.8423 37.6258 93.0753 37.5175C93.3086 37.4088 93.4964 37.4457 93.682 37.5768C93.8582 37.7023 94.0391 37.7349 94.2454 37.6799C94.404 37.6378 94.5484 37.6864 94.7061 37.7354C95.48 37.9782 96.2849 38.0461 97.2308 37.97C97.4387 37.9532 97.6227 38.025 97.8105 38.0839C98.1156 38.1793 98.3932 38.1561 98.654 37.9519C98.7774 37.8553 98.9273 37.7929 99.0597 37.7061C99.4078 37.4771 99.4877 37.2807 99.3244 36.8991C99.2251 36.6666 99.0726 36.4505 98.9114 36.2532C98.8478 36.175 98.6802 36.1127 98.5883 36.1398C98.2398 36.2416 97.8874 36.1316 97.5298 36.2102C97.2088 36.2811 96.8418 36.1999 96.5054 36.135C96.0967 36.0555 95.6953 35.9988 95.2742 35.9842C94.5518 35.9584 93.8406 35.7564 93.1088 35.7882C92.7585 35.5051 92.3705 35.6331 91.976 35.6451C91.5888 35.6563 91.2034 35.5158 90.8016 35.6224C90.6202 35.6705 90.4952 35.4539 90.2459 35.3946ZM97.021 28.4429C97.0142 28.6191 96.9519 28.7407 96.8083 28.8404C96.2226 29.246 95.7495 29.8451 94.9601 29.8966C94.8638 29.9027 94.8702 30.0161 94.8204 30.0677C94.5449 30.353 94.2381 30.671 93.8385 30.6581C93.4453 30.6452 93.1711 30.8064 92.9717 31.0561C92.6146 31.503 92.0602 31.5915 91.6327 31.8996C91.2927 31.8347 91.0564 32.0436 90.8578 32.2524C90.6464 32.475 90.3856 32.6151 90.1389 32.7711C89.8815 32.9344 89.5137 32.7685 89.2545 33.0096C89.2227 33.0397 89.1028 32.9941 89.0341 32.9623C88.4793 32.7075 88.3555 31.9684 88.7771 31.5219C88.9743 31.313 89.2842 31.2567 89.4569 31.0896C89.7294 30.8261 90.0143 30.6775 90.3594 30.5726C90.4814 30.5352 90.5682 30.3934 90.6821 30.3152C91.0035 30.0917 91.3 29.8421 91.6988 29.7295C92.2248 29.5808 92.8535 29.5666 93.0924 28.9108C93.1041 28.8795 93.1582 28.8666 93.184 28.8369C93.4504 28.528 93.8196 28.6032 94.1651 28.5903C94.3112 28.0153 94.9145 28.0552 95.2755 27.7673C95.5544 27.5443 96.0215 27.5198 96.4246 27.5495C96.6601 27.5666 96.908 27.5774 97.1023 27.8589C97.0739 28.0527 97.0283 28.2473 97.021 28.4429ZM86.1622 29.0535C86.0844 28.9921 85.833 28.173 85.8687 28.0767C86.0096 27.696 85.9843 27.2521 86.3057 26.9379C86.3955 26.8499 86.4011 26.7222 86.3805 26.5993C86.3586 26.473 86.3951 26.36 86.4694 26.262C86.6418 26.0355 86.7221 25.7712 86.8098 25.5052C87.0079 24.9062 87.4307 24.3922 87.4832 23.7365C87.8579 23.4271 87.8729 22.9849 87.9211 22.5538C87.9275 22.4967 87.9473 22.4301 87.9847 22.3888C88.1574 22.198 88.1682 21.9574 88.209 21.7236C88.2988 21.1993 88.7109 20.7898 89.2227 20.7021C89.429 20.6669 89.6615 20.6699 89.7689 20.8439C89.9326 21.1091 90.0964 21.4086 90.132 21.7086C90.1647 21.9887 90.0598 22.3003 89.7814 22.4915C89.7367 22.522 89.7032 22.5869 89.6907 22.6419C89.5962 23.0545 89.6503 23.5147 89.3005 23.8447C89.4402 24.2702 89.1617 24.556 88.97 24.8783C88.8923 25.0093 88.8785 25.1786 88.8377 25.3316C88.8024 25.4653 88.8063 25.6247 88.7315 25.7295C88.4058 26.1889 88.2975 26.7489 88.0182 27.2306C87.9361 27.3715 87.799 27.5383 87.8416 27.7244C87.9056 28.0033 87.7028 28.2246 87.6882 28.4497C87.6495 29.0355 87.1678 29.0209 86.8794 29.2099C86.5863 29.2602 86.3603 29.2099 86.1622 29.0535Z" fill="#58003F"/>
</g>
</g>
</g>
</g>
</g>
</g>
</g>
</svg>
