<svg width="24" height="24" viewBox="0 0 24 24" fill="none" xmlns="http://www.w3.org/2000/svg">
<path d="M4 14.07C5.015 14.07 6.431 13.768 7.32 14.42L9.082 15.71C9.737 16.19 10.446 16.032 11.177 15.918C12.139 15.767 13 16.588 13 17.656C13 17.948 10.927 18.691 10.628 18.832C10.3401 18.9681 10.0205 19.0231 9.70369 18.991C9.38685 18.9589 9.08477 18.841 8.83 18.65L6.842 17.193" stroke="#DC9750" stroke-width="1.5" stroke-linecap="round" stroke-linejoin="round"/>
<path d="M13 17L17.091 15.11C17.4518 14.9853 17.8409 14.9676 18.2116 15.059C18.5822 15.1504 18.9185 15.3469 19.18 15.625L19.85 16.326C20.09 16.576 20.034 16.998 19.737 17.17L11.883 21.731C11.651 21.867 11.3935 21.9538 11.1264 21.9859C10.8594 22.0181 10.5887 21.995 10.331 21.918L4 20.027M12.002 12C12.002 12 14.102 9.761 14.102 7C14.102 4.239 12.002 2 12.002 2C12.002 2 9.902 4.239 9.902 7C9.902 9.761 12.002 12 12.002 12ZM12.002 12C12.002 12 15.069 11.932 17.002 9.96C18.935 7.987 19.002 4.857 19.002 4.857C19.002 4.857 17.732 4.885 16.312 5.431M12.002 12C12.002 12 8.935 11.932 7.002 9.96C5.069 7.987 5.002 4.857 5.002 4.857C5.002 4.857 6.272 4.885 7.692 5.431" stroke="#DC9750" stroke-width="1.5" stroke-linecap="round" stroke-linejoin="round"/>
</svg>
