<svg width="25" height="25" viewBox="0 0 25 25" fill="none" xmlns="http://www.w3.org/2000/svg">
<path d="M17.0684 3.75488C19.8939 3.75496 22.1033 5.95573 22.1035 8.79004C22.1035 10.525 21.3273 12.1559 19.8271 13.9912C18.3198 15.8353 16.1508 17.8057 13.4746 20.2324L13.4736 20.2334L12.4131 21.1973L11.3535 20.2334L11.3525 20.2324L9.44336 18.4932C7.63353 16.8285 6.13059 15.3744 5 13.9912C3.49983 12.1559 2.72363 10.525 2.72363 8.79004C2.72383 5.95581 4.93335 3.75508 7.75879 3.75488C9.36105 3.75488 10.9101 4.50436 11.918 5.67871L12.4141 6.25586L12.9092 5.67871C13.9171 4.50436 15.4661 3.75488 17.0684 3.75488Z" stroke="url(#paint0_linear_870_102520)" stroke-width="1.30653"/>
<defs>
<linearGradient id="paint0_linear_870_102520" x1="2.07031" y1="12.5916" x2="22.7571" y2="12.5916" gradientUnits="userSpaceOnUse">
<stop offset="0.3125" stop-color="#DC9750"/>
<stop offset="1" stop-color="#58003F"/>
</linearGradient>
</defs>
</svg>
